<svg width="201" height="189" viewBox="0 0 201 189" fill="none" xmlns="http://www.w3.org/2000/svg">
<path opacity="0.2" d="M64.8599 99.4134L121.47 132.323L177.851 99.1849L121.241 66.5042L64.8599 99.4134Z" fill="black"/>
<path d="M120.095 58.7339V130.037L170.288 101.242V29.2527L120.095 58.7339Z" fill="url(#paint0_linear_125_1051)"/>
<path d="M120.325 58.7339V130.037L69.9023 101.013V29.2527L120.325 58.7339Z" fill="url(#paint1_linear_125_1051)"/>
<path d="M69.9023 29.2527L120.325 58.7339L170.288 29.2527L119.866 0L69.9023 29.2527Z" fill="url(#paint2_linear_125_1051)"/>
<path d="M141.181 46.3931V117.925L150.348 112.897V40.9082L141.181 46.3931Z" fill="url(#paint3_linear_125_1051)"/>
<path d="M90.5298 16.9116L141.41 46.3929L150.349 40.908L99.4683 11.4268L90.5298 16.9116Z" fill="url(#paint4_linear_125_1051)"/>
<path d="M99.2393 46.6213V117.925L90.3008 113.126V41.365L99.2393 46.6213Z" fill="url(#paint5_linear_125_1051)"/>
<path d="M149.432 17.1401L99.0101 46.6214L90.3008 41.365L140.723 11.8838L149.432 17.1401Z" fill="url(#paint6_linear_125_1051)"/>
<path d="M127.201 30.1669L119.179 25.5962C119.179 25.5962 127.43 13.9408 134.993 10.2842C139.577 7.99886 144.849 10.9698 146.453 14.1693C147.37 16.2262 145.078 19.6542 142.557 21.254C135.681 25.3676 127.201 30.1669 127.201 30.1669Z" fill="url(#paint7_linear_125_1051)"/>
<path d="M142.557 15.0837C143.703 14.3981 145.078 14.1695 146.453 14.3981C144.849 10.97 139.577 8.22759 134.993 10.2844C127.43 13.941 119.179 25.5964 119.179 25.5964L126.972 30.1671C128.347 28.3388 135.681 18.2832 142.557 15.0837Z" fill="url(#paint8_linear_125_1051)"/>
<path d="M113.219 30.3954L121.241 25.8247C121.241 25.8247 112.99 14.1693 105.426 10.5127C100.843 8.22737 95.5712 11.1984 93.9669 14.3979C93.0501 16.4547 95.342 19.8827 97.8631 21.4825C104.739 25.5962 113.219 30.3954 113.219 30.3954Z" fill="url(#paint9_linear_125_1051)"/>
<path d="M97.8635 15.312C96.7176 14.6263 95.3424 14.3978 93.9673 14.6264C95.5716 11.1983 100.843 8.45586 105.427 10.5127C112.99 14.1693 121.241 25.8246 121.241 25.8246L113.449 30.3954C112.303 28.5671 104.739 18.74 97.8635 15.312Z" fill="url(#paint10_linear_125_1051)"/>
<path d="M125.367 28.3385C125.367 28.3385 132.014 26.9673 137.285 28.567C144.161 30.3953 148.516 37.0229 145.307 39.7653C141.869 42.2792 138.431 44.7931 134.764 42.7363C131.097 40.6795 118.033 33.1377 118.033 33.1377L125.367 28.3385Z" fill="url(#paint11_linear_125_1051)"/>
<path d="M130.18 33.1377C124.909 31.538 118.262 32.9092 118.262 32.9092L118.033 33.1377L125.597 28.3385C125.597 28.3385 132.243 26.9673 137.515 28.567C144.39 30.3953 148.745 37.0229 145.536 39.7653C143.474 41.3651 141.411 42.7363 139.348 43.4219C140.494 40.2224 136.369 34.966 130.18 33.1377Z" fill="url(#paint12_linear_125_1051)"/>
<path d="M124.679 28.5669L122.616 26.7386C121.241 25.5959 119.408 25.5959 118.262 26.7386L115.97 28.7954L120.095 31.7664L124.679 28.5669Z" fill="url(#paint13_linear_125_1051)"/>
<path d="M114.595 28.3385C114.595 28.3385 107.948 26.9673 102.677 28.567C95.8011 30.3953 91.4464 37.0229 94.6551 39.7653C98.093 42.2792 101.531 44.7931 105.198 42.7363C108.865 40.6795 121.929 33.1377 121.929 33.1377L114.595 28.3385Z" fill="url(#paint14_linear_125_1051)"/>
<path d="M109.552 33.1377C114.823 31.538 121.47 32.9092 121.47 32.9092L121.699 33.1377L114.136 28.3385C114.136 28.3385 107.489 26.9673 102.218 28.567C95.3421 30.3953 90.9875 37.0229 94.1961 39.7653C96.2589 41.3651 98.3216 42.7363 100.384 43.4219C99.4675 40.2224 103.593 34.966 109.552 33.1377Z" fill="url(#paint15_linear_125_1051)"/>
<path opacity="0.2" d="M37.3569 132.78L82.9661 159.519L128.346 132.78L82.7369 106.27L37.3569 132.78Z" fill="black"/>
<path d="M81.8198 119.982V157.691L122.387 134.151V96.2141L81.8198 119.982Z" fill="url(#paint16_linear_125_1051)"/>
<path d="M82.0495 119.982V157.691L41.2534 134.151V96.2141L82.0495 119.982Z" fill="url(#paint17_linear_125_1051)"/>
<path d="M41.2534 96.2141L82.0496 119.982L122.387 96.2141L81.5912 72.6748L41.2534 96.2141Z" fill="url(#paint18_linear_125_1051)"/>
<path d="M99.0088 110.155V147.635L106.343 143.75V105.812L99.0088 110.155Z" fill="url(#paint19_linear_125_1051)"/>
<path d="M57.9844 86.1583L99.0097 110.155L106.344 105.812L65.3185 82.0447L57.9844 86.1583Z" fill="url(#paint20_linear_125_1051)"/>
<path d="M64.8603 110.383V147.863L57.7554 143.978V106.041L64.8603 110.383Z" fill="url(#paint21_linear_125_1051)"/>
<path d="M105.656 86.3869L64.8603 110.383L57.7554 106.041L98.5515 82.2732L105.656 86.3869Z" fill="url(#paint22_linear_125_1051)"/>
<path d="M87.5494 96.8997L80.9028 93.0146C80.9028 93.0146 87.5494 83.6446 93.7376 80.6736C97.4047 78.8454 101.759 81.1307 102.905 83.8732C103.593 85.4729 101.988 88.2154 99.9258 89.5866C94.4252 93.2432 87.5494 96.8997 87.5494 96.8997Z" fill="url(#paint23_linear_125_1051)"/>
<path d="M99.9259 84.7873C100.843 84.3302 101.989 84.1017 102.905 84.1017C101.53 81.3592 97.4048 79.0739 93.5086 80.9022C87.3204 83.8731 80.6738 93.2431 80.6738 93.2431L87.0912 96.8997C88.4664 95.5285 94.4253 87.5297 99.9259 84.7873Z" fill="url(#paint24_linear_125_1051)"/>
<path d="M76.3196 97.1283L82.9662 93.2431C82.9662 93.2431 76.3196 83.8731 70.1314 80.9022C66.4644 79.0739 62.1097 81.3592 60.9638 84.1017C60.2762 85.7014 61.8805 88.4439 63.9433 89.8151C69.4439 93.4717 76.3196 97.1283 76.3196 97.1283Z" fill="url(#paint25_linear_125_1051)"/>
<path d="M63.9429 85.0158C63.0261 84.5587 61.8801 84.3302 60.9634 84.3302C62.3385 81.5878 66.464 79.3024 70.3603 81.1307C76.5484 84.1017 83.195 93.4717 83.195 93.4717L76.7776 97.1283C75.4025 95.757 69.4435 87.7582 63.9429 85.0158Z" fill="url(#paint26_linear_125_1051)"/>
<path d="M86.1748 95.5284C86.1748 95.5284 91.6754 94.3857 95.8008 95.7569C101.301 97.3567 104.969 102.613 102.218 104.67C99.4679 106.727 96.7176 108.784 93.7381 107.184C90.7586 105.584 80.2158 99.4135 80.2158 99.4135L86.1748 95.5284Z" fill="url(#paint27_linear_125_1051)"/>
<path d="M90.071 99.4135C85.7164 98.2708 80.445 99.185 80.445 99.185L80.2158 99.4135L86.1748 95.5284C86.1748 95.5284 91.6754 94.3857 95.8008 95.7569C101.301 97.3567 104.969 102.613 102.218 104.67C100.614 106.041 99.0095 107.184 97.176 107.641C98.322 105.127 94.8841 100.785 90.071 99.4135Z" fill="url(#paint28_linear_125_1051)"/>
<path d="M85.4865 95.757L83.653 94.1573C82.507 93.2431 81.1318 93.2431 79.9859 94.1573L78.1523 95.757L81.5902 98.271L85.4865 95.757Z" fill="url(#paint29_linear_125_1051)"/>
<path d="M77.465 95.5284C77.465 95.5284 71.9644 94.3857 67.839 95.7569C62.3384 97.3567 58.6713 102.613 61.4216 104.67C64.1719 106.727 66.9222 108.784 69.9017 107.184C72.8812 105.584 83.424 99.4135 83.424 99.4135L77.465 95.5284Z" fill="url(#paint30_linear_125_1051)"/>
<path d="M73.3398 99.4135C77.6944 98.2708 82.9658 99.185 82.9658 99.185L83.195 99.4135L77.236 95.5284C77.236 95.5284 71.7354 94.3857 67.61 95.7569C62.1094 97.3567 58.4423 102.613 61.1926 104.67C62.7969 106.041 64.4013 107.184 66.2348 107.641C65.0889 105.127 68.5267 100.785 73.3398 99.4135Z" fill="url(#paint31_linear_125_1051)"/>
<path opacity="0.2" d="M114.824 140.55L157.912 165.689L201 140.321L157.912 115.411L114.824 140.55Z" fill="black"/>
<path d="M156.995 140.55V163.861L195.27 141.921V118.153L156.995 140.55Z" fill="url(#paint32_linear_125_1051)"/>
<path d="M156.995 140.55V163.861L118.72 141.693V118.153L156.995 140.55Z" fill="url(#paint33_linear_125_1051)"/>
<path d="M118.72 118.153L156.995 140.55L195.27 118.153L156.766 95.9854L118.72 118.153Z" fill="url(#paint34_linear_125_1051)"/>
<path d="M173.039 131.18V154.491L180.144 150.605V127.066L173.039 131.18Z" fill="url(#paint35_linear_125_1051)"/>
<path d="M134.534 108.783L173.038 131.18L180.143 127.066L141.41 104.67L134.534 108.783Z" fill="url(#paint36_linear_125_1051)"/>
<path d="M140.952 131.408V154.719L134.305 150.834V127.295L140.952 131.408Z" fill="url(#paint37_linear_125_1051)"/>
<path d="M179.456 109.012L140.952 131.408L134.305 127.295L172.58 104.898L179.456 109.012Z" fill="url(#paint38_linear_125_1051)"/>
<path d="M162.497 118.839L156.309 115.182C156.309 115.182 162.497 106.269 168.456 103.527C171.894 101.927 176.019 103.984 177.165 106.498C177.853 108.098 176.248 110.611 174.186 111.754C168.914 115.182 162.497 118.839 162.497 118.839Z" fill="url(#paint39_linear_125_1051)"/>
<path d="M174.186 107.412C175.102 106.955 176.019 106.726 177.165 106.726C176.019 104.212 171.894 101.927 168.456 103.755C162.726 106.498 156.309 115.411 156.309 115.411L162.268 118.839C163.184 117.468 168.914 109.926 174.186 107.412Z" fill="url(#paint40_linear_125_1051)"/>
<path d="M151.724 119.068L157.912 115.411C157.912 115.411 151.724 106.498 145.765 103.756C142.327 102.156 138.202 104.213 137.056 106.727C136.368 108.326 137.972 110.84 140.035 111.983C145.306 115.411 151.724 119.068 151.724 119.068Z" fill="url(#paint41_linear_125_1051)"/>
<path d="M140.035 107.641C139.118 107.184 138.201 106.955 137.055 106.955C138.201 104.441 142.327 102.156 145.764 103.984C151.494 106.727 157.912 115.64 157.912 115.64L151.953 119.068C151.036 117.696 145.306 110.155 140.035 107.641Z" fill="url(#paint42_linear_125_1051)"/>
<path d="M160.891 117.468C160.891 117.468 165.933 116.554 170.059 117.696C175.33 119.068 178.768 124.095 176.018 126.152C173.496 128.209 170.746 130.037 167.996 128.438C165.246 126.838 155.161 121.124 155.161 121.124L160.891 117.468Z" fill="url(#paint43_linear_125_1051)"/>
<path d="M164.787 121.124C160.662 119.982 155.619 120.896 155.619 120.896L155.39 121.124L161.12 117.468C161.12 117.468 166.162 116.554 170.288 117.696C175.559 119.068 178.997 124.095 176.247 126.152C174.642 127.295 173.038 128.438 171.434 128.895C172.58 126.609 169.371 122.496 164.787 121.124Z" fill="url(#paint44_linear_125_1051)"/>
<path d="M160.433 117.696L158.829 116.325C157.912 115.411 156.307 115.411 155.391 116.325L153.557 117.925L156.766 120.21L160.433 117.696Z" fill="url(#paint45_linear_125_1051)"/>
<path d="M152.641 117.468C152.641 117.468 147.599 116.554 143.473 117.696C138.202 119.068 134.764 124.095 137.514 126.152C140.035 128.209 142.786 130.037 145.536 128.438C148.286 126.838 158.371 121.124 158.371 121.124L152.641 117.468Z" fill="url(#paint46_linear_125_1051)"/>
<path d="M148.974 121.124C153.099 119.982 158.141 120.896 158.141 120.896L158.371 121.124L152.641 117.468C152.641 117.468 147.599 116.554 143.473 117.696C138.202 119.068 134.764 124.095 137.514 126.152C139.119 127.295 140.723 128.438 142.327 128.895C141.181 126.609 144.39 122.496 148.974 121.124Z" fill="url(#paint47_linear_125_1051)"/>
<g opacity="0.8">
<path opacity="0.6" d="M20.3984 171.403L30.7121 177.116L35.5251 174.374L25.4407 168.432L20.3984 171.403Z" fill="white"/>
<path opacity="0.8" d="M28.1899 166.832L38.2744 172.774L43.775 169.574L33.6906 163.632L28.1899 166.832Z" fill="white"/>
<path opacity="0.3" d="M5.04248 180.087L15.3561 186.029L19.2524 183.744L8.93874 177.802L5.04248 180.087Z" fill="white"/>
<path opacity="0.15" d="M0 183.058L10.0844 189L12.1471 188.086L1.83351 182.144L0 183.058Z" fill="white"/>
<path opacity="0.5" d="M12.8345 175.745L23.1481 181.687L27.5028 179.173L17.1891 173.231L12.8345 175.745Z" fill="white"/>
<path opacity="0.8" d="M27.2739 157.005L55.0062 173.002L60.2775 154.034L27.2739 157.005Z" fill="white"/>
</g>
<defs>
<linearGradient id="paint0_linear_125_1051" x1="134.456" y1="82.9211" x2="275.952" y2="40.4309" gradientUnits="userSpaceOnUse">
<stop offset="0.0353535" stop-color="#9F19AB"/>
<stop offset="0.2438" stop-color="#AE25B1"/>
<stop offset="0.6455" stop-color="#D744BF"/>
<stop offset="1" stop-color="#FF63CE"/>
</linearGradient>
<linearGradient id="paint1_linear_125_1051" x1="3.62737" y1="100.102" x2="190.377" y2="58.1192" gradientUnits="userSpaceOnUse">
<stop offset="0.0353535" stop-color="#9F19AB"/>
<stop offset="0.2438" stop-color="#AE25B1"/>
<stop offset="0.6455" stop-color="#D744BF"/>
<stop offset="1" stop-color="#FF63CE"/>
</linearGradient>
<linearGradient id="paint2_linear_125_1051" x1="172.447" y1="-70.2871" x2="116.304" y2="37.0158" gradientUnits="userSpaceOnUse">
<stop offset="0.0353535" stop-color="#9F19AB"/>
<stop offset="0.2438" stop-color="#AE25B1"/>
<stop offset="0.6455" stop-color="#D744BF"/>
<stop offset="1" stop-color="#FF63CE"/>
</linearGradient>
<linearGradient id="paint3_linear_125_1051" x1="141.526" y1="80.7353" x2="198.393" y2="63.6587" gradientUnits="userSpaceOnUse">
<stop offset="0.0353535" stop-color="#138BBD"/>
<stop offset="0.2257" stop-color="#169AC7"/>
<stop offset="0.5946" stop-color="#1FC3DF"/>
<stop offset="1" stop-color="#2AF6FF"/>
</linearGradient>
<linearGradient id="paint4_linear_125_1051" x1="131.51" y1="7.98431" x2="118.94" y2="32.008" gradientUnits="userSpaceOnUse">
<stop offset="0.0353535" stop-color="#138BBD"/>
<stop offset="0.2257" stop-color="#169AC7"/>
<stop offset="0.5946" stop-color="#1FC3DF"/>
<stop offset="1" stop-color="#2AF6FF"/>
</linearGradient>
<linearGradient id="paint5_linear_125_1051" x1="134.669" y1="88.5809" x2="53.0214" y2="70.2259" gradientUnits="userSpaceOnUse">
<stop offset="0.0353535" stop-color="#138BBD"/>
<stop offset="0.2257" stop-color="#169AC7"/>
<stop offset="0.5946" stop-color="#1FC3DF"/>
<stop offset="1" stop-color="#2AF6FF"/>
</linearGradient>
<linearGradient id="paint6_linear_125_1051" x1="109.045" y1="8.63423" x2="121.397" y2="32.2433" gradientUnits="userSpaceOnUse">
<stop offset="0.0353535" stop-color="#138BBD"/>
<stop offset="0.2257" stop-color="#169AC7"/>
<stop offset="0.5946" stop-color="#1FC3DF"/>
<stop offset="1" stop-color="#2AF6FF"/>
</linearGradient>
<linearGradient id="paint7_linear_125_1051" x1="130.617" y1="17.1467" x2="143.243" y2="31.7789" gradientUnits="userSpaceOnUse">
<stop offset="0.0353535" stop-color="#138BBD"/>
<stop offset="0.2257" stop-color="#169AC7"/>
<stop offset="0.5946" stop-color="#1FC3DF"/>
<stop offset="1" stop-color="#2AF6FF"/>
</linearGradient>
<linearGradient id="paint8_linear_125_1051" x1="125.897" y1="29.1501" x2="143.473" y2="5.21109" gradientUnits="userSpaceOnUse">
<stop offset="0.0353535" stop-color="#1BB0D4"/>
<stop offset="0.203" stop-color="#1EBFDD"/>
<stop offset="0.5265" stop-color="#27E8F6"/>
<stop offset="0.6313" stop-color="#2AF6FF"/>
<stop offset="0.8737" stop-color="#1BB0D4"/>
</linearGradient>
<linearGradient id="paint9_linear_125_1051" x1="109.835" y1="17.4927" x2="97.2092" y2="32.1251" gradientUnits="userSpaceOnUse">
<stop offset="0.0353535" stop-color="#138BBD"/>
<stop offset="0.2257" stop-color="#169AC7"/>
<stop offset="0.5946" stop-color="#1FC3DF"/>
<stop offset="1" stop-color="#2AF6FF"/>
</linearGradient>
<linearGradient id="paint10_linear_125_1051" x1="114.555" y1="29.4961" x2="96.9785" y2="5.55705" gradientUnits="userSpaceOnUse">
<stop offset="0.0353535" stop-color="#1BB0D4"/>
<stop offset="0.203" stop-color="#1EBFDD"/>
<stop offset="0.5265" stop-color="#27E8F6"/>
<stop offset="0.6313" stop-color="#2AF6FF"/>
<stop offset="0.8737" stop-color="#1BB0D4"/>
</linearGradient>
<linearGradient id="paint11_linear_125_1051" x1="133.486" y1="28.7626" x2="130.314" y2="44.8599" gradientUnits="userSpaceOnUse">
<stop offset="0.0353535" stop-color="#138BBD"/>
<stop offset="0.2257" stop-color="#169AC7"/>
<stop offset="0.5946" stop-color="#1FC3DF"/>
<stop offset="1" stop-color="#2AF6FF"/>
</linearGradient>
<linearGradient id="paint12_linear_125_1051" x1="127.463" y1="27.5633" x2="138.536" y2="43.9135" gradientUnits="userSpaceOnUse">
<stop offset="0.0353535" stop-color="#1BB0D4"/>
<stop offset="0.203" stop-color="#1EBFDD"/>
<stop offset="0.5265" stop-color="#27E8F6"/>
<stop offset="0.6313" stop-color="#2AF6FF"/>
<stop offset="0.8737" stop-color="#1BB0D4"/>
</linearGradient>
<linearGradient id="paint13_linear_125_1051" x1="120.29" y1="34.9289" x2="120.29" y2="26.1974" gradientUnits="userSpaceOnUse">
<stop offset="0.0353535" stop-color="#138BBD"/>
<stop offset="0.2257" stop-color="#169AC7"/>
<stop offset="0.5946" stop-color="#1FC3DF"/>
<stop offset="1" stop-color="#2AF6FF"/>
</linearGradient>
<linearGradient id="paint14_linear_125_1051" x1="106.411" y1="28.7626" x2="109.583" y2="44.8596" gradientUnits="userSpaceOnUse">
<stop offset="0.0353535" stop-color="#138BBD"/>
<stop offset="0.2257" stop-color="#169AC7"/>
<stop offset="0.5946" stop-color="#1FC3DF"/>
<stop offset="1" stop-color="#2AF6FF"/>
</linearGradient>
<linearGradient id="paint15_linear_125_1051" x1="112.433" y1="27.5633" x2="101.361" y2="43.9135" gradientUnits="userSpaceOnUse">
<stop offset="0.0353535" stop-color="#1BB0D4"/>
<stop offset="0.203" stop-color="#1EBFDD"/>
<stop offset="0.5265" stop-color="#27E8F6"/>
<stop offset="0.6313" stop-color="#2AF6FF"/>
<stop offset="0.8737" stop-color="#1BB0D4"/>
</linearGradient>
<linearGradient id="paint16_linear_125_1051" x1="94.237" y1="129.302" x2="197.833" y2="98.1925" gradientUnits="userSpaceOnUse">
<stop offset="0.0353535" stop-color="#6B24D6"/>
<stop offset="0.2945" stop-color="#7733DC"/>
<stop offset="0.7943" stop-color="#975CED"/>
<stop offset="1" stop-color="#A56EF4"/>
</linearGradient>
<linearGradient id="paint17_linear_125_1051" x1="-5.29015" y1="141.872" x2="131.373" y2="111.148" gradientUnits="userSpaceOnUse">
<stop offset="0.0353535" stop-color="#6B24D6"/>
<stop offset="0.2945" stop-color="#7733DC"/>
<stop offset="0.7943" stop-color="#975CED"/>
<stop offset="1" stop-color="#A56EF4"/>
</linearGradient>
<linearGradient id="paint18_linear_125_1051" x1="124.099" y1="15.9166" x2="78.7757" y2="102.542" gradientUnits="userSpaceOnUse">
<stop offset="0.0353535" stop-color="#6B24D6"/>
<stop offset="0.2945" stop-color="#7733DC"/>
<stop offset="0.7943" stop-color="#975CED"/>
<stop offset="1" stop-color="#A56EF4"/>
</linearGradient>
<linearGradient id="paint19_linear_125_1051" x1="99.945" y1="127.537" x2="135.219" y2="116.944" gradientUnits="userSpaceOnUse">
<stop offset="0.0353535" stop-color="#FFA98C"/>
<stop offset="0.3169" stop-color="#FFB892"/>
<stop offset="0.8601" stop-color="#FEE1A3"/>
<stop offset="1" stop-color="#FEECA8"/>
</linearGradient>
<linearGradient id="paint20_linear_125_1051" x1="91.0506" y1="79.105" x2="80.9032" y2="98.4992" gradientUnits="userSpaceOnUse">
<stop offset="0.0353535" stop-color="#FFA98C"/>
<stop offset="0.3169" stop-color="#FFB892"/>
<stop offset="0.8601" stop-color="#FEE1A3"/>
<stop offset="1" stop-color="#FEECA8"/>
</linearGradient>
<linearGradient id="paint21_linear_125_1051" x1="86.7025" y1="132.57" x2="34.8881" y2="120.922" gradientUnits="userSpaceOnUse">
<stop offset="0.0353535" stop-color="#FFA98C"/>
<stop offset="0.3169" stop-color="#FFB892"/>
<stop offset="0.8601" stop-color="#FEE1A3"/>
<stop offset="1" stop-color="#FEECA8"/>
</linearGradient>
<linearGradient id="paint22_linear_125_1051" x1="72.9141" y1="79.6299" x2="82.8863" y2="98.6894" gradientUnits="userSpaceOnUse">
<stop offset="0.0353535" stop-color="#FFA98C"/>
<stop offset="0.3169" stop-color="#FFB892"/>
<stop offset="0.8601" stop-color="#FEE1A3"/>
<stop offset="1" stop-color="#FEECA8"/>
</linearGradient>
<linearGradient id="paint23_linear_125_1051" x1="90.3284" y1="86.502" x2="100.522" y2="98.3147" gradientUnits="userSpaceOnUse">
<stop offset="0.0353535" stop-color="#FFA98C"/>
<stop offset="0.3169" stop-color="#FFB892"/>
<stop offset="0.8601" stop-color="#FEE1A3"/>
<stop offset="1" stop-color="#FEECA8"/>
</linearGradient>
<linearGradient id="paint24_linear_125_1051" x1="86.5189" y1="96.1922" x2="100.708" y2="76.866" gradientUnits="userSpaceOnUse">
<stop offset="0.0353535" stop-color="#F7AA90"/>
<stop offset="0.2316" stop-color="#F9B996"/>
<stop offset="0.6103" stop-color="#FFE2A6"/>
<stop offset="0.6313" stop-color="#FFE4A7"/>
<stop offset="0.8737" stop-color="#F7AA90"/>
</linearGradient>
<linearGradient id="paint25_linear_125_1051" x1="73.5531" y1="86.7813" x2="63.3602" y2="98.5942" gradientUnits="userSpaceOnUse">
<stop offset="0.0353535" stop-color="#FFA98C"/>
<stop offset="0.3169" stop-color="#FFB892"/>
<stop offset="0.8601" stop-color="#FEE1A3"/>
<stop offset="1" stop-color="#FEECA8"/>
</linearGradient>
<linearGradient id="paint26_linear_125_1051" x1="77.3621" y1="96.4714" x2="63.1734" y2="77.1455" gradientUnits="userSpaceOnUse">
<stop offset="0.0353535" stop-color="#F7AA90"/>
<stop offset="0.2316" stop-color="#F9B996"/>
<stop offset="0.6103" stop-color="#FFE2A6"/>
<stop offset="0.6313" stop-color="#FFE4A7"/>
<stop offset="0.8737" stop-color="#F7AA90"/>
</linearGradient>
<linearGradient id="paint27_linear_125_1051" x1="92.646" y1="95.8794" x2="90.0841" y2="108.875" gradientUnits="userSpaceOnUse">
<stop offset="0.0353535" stop-color="#FFA98C"/>
<stop offset="0.3169" stop-color="#FFB892"/>
<stop offset="0.8601" stop-color="#FEE1A3"/>
<stop offset="1" stop-color="#FEECA8"/>
</linearGradient>
<linearGradient id="paint28_linear_125_1051" x1="87.7835" y1="94.9113" x2="96.7224" y2="108.111" gradientUnits="userSpaceOnUse">
<stop offset="0.0353535" stop-color="#F7AA90"/>
<stop offset="0.2316" stop-color="#F9B996"/>
<stop offset="0.6103" stop-color="#FFE2A6"/>
<stop offset="0.6313" stop-color="#FFE4A7"/>
<stop offset="0.8737" stop-color="#F7AA90"/>
</linearGradient>
<linearGradient id="paint29_linear_125_1051" x1="81.9922" y1="100.858" x2="81.9922" y2="93.8088" gradientUnits="userSpaceOnUse">
<stop offset="0.0353535" stop-color="#FFA98C"/>
<stop offset="0.3169" stop-color="#FFB892"/>
<stop offset="0.8601" stop-color="#FEE1A3"/>
<stop offset="1" stop-color="#FEECA8"/>
</linearGradient>
<linearGradient id="paint30_linear_125_1051" x1="70.7873" y1="95.8794" x2="73.3488" y2="108.875" gradientUnits="userSpaceOnUse">
<stop offset="0.0353535" stop-color="#FFA98C"/>
<stop offset="0.3169" stop-color="#FFB892"/>
<stop offset="0.8601" stop-color="#FEE1A3"/>
<stop offset="1" stop-color="#FEECA8"/>
</linearGradient>
<linearGradient id="paint31_linear_125_1051" x1="75.65" y1="94.9113" x2="66.7116" y2="108.111" gradientUnits="userSpaceOnUse">
<stop offset="0.0353535" stop-color="#F7AA90"/>
<stop offset="0.2316" stop-color="#F9B996"/>
<stop offset="0.6103" stop-color="#FFE2A6"/>
<stop offset="0.6313" stop-color="#FFE4A7"/>
<stop offset="0.8737" stop-color="#F7AA90"/>
</linearGradient>
<linearGradient id="paint32_linear_125_1051" x1="169.162" y1="143.104" x2="260.511" y2="115.672" gradientUnits="userSpaceOnUse">
<stop offset="0.0353535" stop-color="#138BBD"/>
<stop offset="0.2257" stop-color="#169AC7"/>
<stop offset="0.5946" stop-color="#1FC3DF"/>
<stop offset="1" stop-color="#2AF6FF"/>
</linearGradient>
<linearGradient id="paint33_linear_125_1051" x1="78.8983" y1="154.181" x2="199.363" y2="127.1" gradientUnits="userSpaceOnUse">
<stop offset="0.0353535" stop-color="#138BBD"/>
<stop offset="0.2257" stop-color="#169AC7"/>
<stop offset="0.5946" stop-color="#1FC3DF"/>
<stop offset="1" stop-color="#2AF6FF"/>
</linearGradient>
<linearGradient id="paint34_linear_125_1051" x1="196.862" y1="42.3103" x2="154.076" y2="124.086" gradientUnits="userSpaceOnUse">
<stop offset="0.0353535" stop-color="#138BBD"/>
<stop offset="0.2257" stop-color="#169AC7"/>
<stop offset="0.5946" stop-color="#1FC3DF"/>
<stop offset="1" stop-color="#2AF6FF"/>
</linearGradient>
<linearGradient id="paint35_linear_125_1051" x1="174.551" y1="141.437" x2="201.404" y2="133.373" gradientUnits="userSpaceOnUse">
<stop offset="0.0353535" stop-color="#9F19AB"/>
<stop offset="0.2438" stop-color="#AE25B1"/>
<stop offset="0.6455" stop-color="#D744BF"/>
<stop offset="1" stop-color="#FF63CE"/>
</linearGradient>
<linearGradient id="paint36_linear_125_1051" x1="165.663" y1="101.961" x2="156.084" y2="120.269" gradientUnits="userSpaceOnUse">
<stop offset="0.0353535" stop-color="#9F19AB"/>
<stop offset="0.2438" stop-color="#AE25B1"/>
<stop offset="0.6455" stop-color="#D744BF"/>
<stop offset="1" stop-color="#FF63CE"/>
</linearGradient>
<linearGradient id="paint37_linear_125_1051" x1="157.377" y1="145.401" x2="117.01" y2="136.326" gradientUnits="userSpaceOnUse">
<stop offset="0.0353535" stop-color="#9F19AB"/>
<stop offset="0.2438" stop-color="#AE25B1"/>
<stop offset="0.6455" stop-color="#D744BF"/>
<stop offset="1" stop-color="#FF63CE"/>
</linearGradient>
<linearGradient id="paint38_linear_125_1051" x1="148.543" y1="102.456" x2="157.957" y2="120.449" gradientUnits="userSpaceOnUse">
<stop offset="0.0353535" stop-color="#9F19AB"/>
<stop offset="0.2438" stop-color="#AE25B1"/>
<stop offset="0.6455" stop-color="#D744BF"/>
<stop offset="1" stop-color="#FF63CE"/>
</linearGradient>
<linearGradient id="paint39_linear_125_1051" x1="164.983" y1="108.943" x2="174.606" y2="120.094" gradientUnits="userSpaceOnUse">
<stop offset="0.0353535" stop-color="#9F19AB"/>
<stop offset="0.2438" stop-color="#AE25B1"/>
<stop offset="0.6455" stop-color="#D744BF"/>
<stop offset="1" stop-color="#FF63CE"/>
</linearGradient>
<linearGradient id="paint40_linear_125_1051" x1="161.387" y1="118.091" x2="174.781" y2="99.8469" gradientUnits="userSpaceOnUse">
<stop offset="0.0353535" stop-color="#9F19AB"/>
<stop offset="0.1641" stop-color="#AE25B1"/>
<stop offset="0.4123" stop-color="#D744BF"/>
<stop offset="0.6313" stop-color="#FF63CE"/>
<stop offset="0.8737" stop-color="#DC48C1"/>
</linearGradient>
<linearGradient id="paint41_linear_125_1051" x1="149.146" y1="109.207" x2="139.523" y2="120.358" gradientUnits="userSpaceOnUse">
<stop offset="0.0353535" stop-color="#9F19AB"/>
<stop offset="0.2438" stop-color="#AE25B1"/>
<stop offset="0.6455" stop-color="#D744BF"/>
<stop offset="1" stop-color="#FF63CE"/>
</linearGradient>
<linearGradient id="paint42_linear_125_1051" x1="152.742" y1="118.355" x2="139.348" y2="100.111" gradientUnits="userSpaceOnUse">
<stop offset="0.0353535" stop-color="#9F19AB"/>
<stop offset="0.1641" stop-color="#AE25B1"/>
<stop offset="0.4123" stop-color="#D744BF"/>
<stop offset="0.6313" stop-color="#FF63CE"/>
<stop offset="0.8737" stop-color="#DC48C1"/>
</linearGradient>
<linearGradient id="paint43_linear_125_1051" x1="167.169" y1="117.796" x2="164.75" y2="130.063" gradientUnits="userSpaceOnUse">
<stop offset="0.0353535" stop-color="#9F19AB"/>
<stop offset="0.2438" stop-color="#AE25B1"/>
<stop offset="0.6455" stop-color="#D744BF"/>
<stop offset="1" stop-color="#FF63CE"/>
</linearGradient>
<linearGradient id="paint44_linear_125_1051" x1="162.579" y1="116.882" x2="171.017" y2="129.342" gradientUnits="userSpaceOnUse">
<stop offset="0.0353535" stop-color="#9F19AB"/>
<stop offset="0.1641" stop-color="#AE25B1"/>
<stop offset="0.4123" stop-color="#D744BF"/>
<stop offset="0.6313" stop-color="#FF63CE"/>
<stop offset="0.8737" stop-color="#DC48C1"/>
</linearGradient>
<linearGradient id="paint45_linear_125_1051" x1="157.113" y1="122.495" x2="157.113" y2="115.841" gradientUnits="userSpaceOnUse">
<stop offset="0.0353535" stop-color="#9F19AB"/>
<stop offset="0.2438" stop-color="#AE25B1"/>
<stop offset="0.6455" stop-color="#D744BF"/>
<stop offset="1" stop-color="#FF63CE"/>
</linearGradient>
<linearGradient id="paint46_linear_125_1051" x1="146.536" y1="117.796" x2="148.954" y2="130.063" gradientUnits="userSpaceOnUse">
<stop offset="0.0353535" stop-color="#9F19AB"/>
<stop offset="0.2438" stop-color="#AE25B1"/>
<stop offset="0.6455" stop-color="#D744BF"/>
<stop offset="1" stop-color="#FF63CE"/>
</linearGradient>
<linearGradient id="paint47_linear_125_1051" x1="151.126" y1="116.882" x2="142.688" y2="129.342" gradientUnits="userSpaceOnUse">
<stop offset="0.0353535" stop-color="#9F19AB"/>
<stop offset="0.1641" stop-color="#AE25B1"/>
<stop offset="0.4123" stop-color="#D744BF"/>
<stop offset="0.6313" stop-color="#FF63CE"/>
<stop offset="0.8737" stop-color="#DC48C1"/>
</linearGradient>
</defs>
</svg>
