<svg width="201" height="189" viewBox="0 0 201 189" fill="none" xmlns="http://www.w3.org/2000/svg">
<path d="M128.874 8.74229L116.814 4.99559L112.321 0L106.409 101.577L129.583 80.9702L128.874 8.74229Z" fill="url(#paint0_linear_1761_250)"/>
<path d="M38.0708 136.338L106.411 101.577L112.323 0L43.9826 34.761L38.0708 136.338Z" fill="url(#paint1_linear_1761_250)"/>
<path d="M63.6096 121.767L63.3732 149.243L38.0708 136.338L63.6096 121.767Z" fill="url(#paint2_linear_1761_250)"/>
<path d="M60.772 43.2949L55.0967 37.2585L43.9826 34.7607L38.0708 136.338L63.3732 121.975L60.772 43.2949Z" fill="url(#paint3_linear_1761_250)"/>
<path d="M63.3722 149.243L131.476 114.482L129.111 8.74243L60.771 43.2953L63.3722 149.243Z" fill="url(#paint4_linear_1761_250)"/>
<path d="M63.1365 132.591L130.767 98.2466L131.003 101.577L62.6636 136.338L63.1365 132.591Z" fill="#F1F2F2"/>
<path d="M103.573 34.7611C103.573 36.2181 104.756 36.6344 105.938 36.01C107.357 35.3855 108.303 33.7203 108.303 32.2633C108.303 30.8062 107.12 30.39 105.938 31.0144C104.756 31.6389 103.573 33.3041 103.573 34.7611Z" fill="#C7BCD6"/>
<path d="M78.9805 47.2501C78.9805 48.7072 80.1628 49.1235 81.3452 48.499C82.764 47.8746 83.7099 46.2094 83.7099 44.7523C83.7099 43.2953 82.5275 42.879 81.3452 43.5034C79.9264 44.1279 78.9805 45.7931 78.9805 47.2501Z" fill="#C7BCD6"/>
<path d="M104.991 35.1773C106.41 34.5528 107.356 32.8877 107.356 31.4306C107.356 31.2225 107.356 31.0143 107.356 30.8062C108.065 30.8062 108.538 31.4306 108.538 32.2632C108.538 33.7202 107.356 35.3854 106.173 36.0099C104.991 36.6343 104.045 36.218 103.809 35.3854C104.045 35.3854 104.518 35.3854 104.991 35.1773Z" fill="#C7BCD6"/>
<path d="M80.1628 47.4581C81.5816 46.8336 82.5275 45.1684 82.5275 43.7114C82.5275 43.5032 82.5275 43.2951 82.5275 43.0869C83.2369 43.0869 83.7099 43.7114 83.7099 44.544C83.7099 46.001 82.5275 47.6662 81.3452 48.2907C80.1628 48.9151 79.2169 48.4988 78.9805 47.6662C79.4534 47.8744 79.6899 47.8744 80.1628 47.4581Z" fill="#C7BCD6"/>
<path d="M90.5669 72.2281C92.6952 72.2281 94.5869 71.8118 96.4787 70.771C103.1 67.0243 106.883 60.7798 106.883 53.7028V36.6345C106.883 36.01 106.41 35.5938 105.701 35.5938C104.992 35.5938 104.519 36.01 104.519 36.6345V53.7028C104.519 59.9472 100.972 65.5673 95.0599 68.8977C92.4587 70.3547 89.3846 70.5629 86.5469 69.1058C83.9457 67.8569 82.2905 65.3591 82.2905 62.6532V48.499C82.2905 47.8746 81.8175 47.4583 81.1081 47.4583C80.3987 47.4583 79.9258 47.8746 79.9258 48.499V62.6532C79.9258 66.1917 82.054 69.314 85.6011 70.9792C87.2563 71.8118 88.9117 72.2281 90.5669 72.2281Z" fill="#C7BCD6"/>
<path d="M91.0401 68.8975C93.1683 68.8975 95.0601 68.4812 96.9519 67.4405C103.573 63.6938 107.357 57.4493 107.357 50.3722V33.3039C107.357 32.6795 106.884 32.2632 106.174 32.2632C105.465 32.2632 104.992 32.6795 104.992 33.3039V50.3722C104.992 56.6167 101.445 62.2367 95.533 65.5671C92.9318 67.0242 89.8577 67.2323 87.0201 65.7753C84.4189 64.5264 82.7636 62.0286 82.7636 59.3226V45.1685C82.7636 44.544 82.2907 44.1277 81.5813 44.1277C80.8719 44.1277 80.3989 44.544 80.3989 45.1685V59.3226C80.3989 62.8612 82.5271 65.9834 86.0742 67.6486C87.7295 68.6894 89.3848 68.8975 91.0401 68.8975Z" fill="#C7BCD6"/>
<path d="M93.4053 21.4396C93.4053 22.8966 94.5876 23.3129 95.77 22.6885C97.1888 22.064 98.1347 20.3988 98.1347 18.9418C98.1347 17.4847 96.9523 17.0684 95.77 17.6929C94.5876 18.3173 93.4053 19.9825 93.4053 21.4396Z" fill="#C7BCD6"/>
<path d="M68.5757 33.7201C68.5757 35.1771 69.758 35.5934 70.9404 34.969C72.1227 34.3445 73.3051 32.6793 73.3051 31.2223C73.3051 29.7652 72.1227 29.3489 70.9404 29.9734C69.758 30.5978 68.5757 32.263 68.5757 33.7201Z" fill="#C7BCD6"/>
<path d="M94.8249 21.6475C96.2438 21.0231 97.1896 19.3579 97.1896 17.9008C97.1896 17.6927 97.1896 17.4845 97.1896 17.2764C97.899 17.2764 98.372 17.9008 98.372 18.7334C98.372 20.1905 97.1896 21.8557 96.0073 22.4801C94.8249 23.1046 93.879 22.6883 93.6426 21.8557C93.879 22.0638 94.352 22.0638 94.8249 21.6475Z" fill="#C7BCD6"/>
<path d="M69.9934 34.1368C71.4122 33.5123 72.3581 31.8471 72.3581 30.3901C72.3581 30.1819 72.3581 29.9738 72.3581 29.7656C73.0675 29.7656 73.5404 30.3901 73.5404 31.2227C73.5404 32.6797 72.3581 34.3449 71.1757 34.9694C69.9934 35.5938 69.0475 35.1775 68.811 34.3449C69.0475 34.3449 69.5204 34.3449 69.9934 34.1368Z" fill="#C7BCD6"/>
<path d="M96.9506 23.1044V19.9822C96.9506 19.3577 96.4777 18.9414 95.7683 18.9414C95.0589 18.9414 94.5859 19.3577 94.5859 19.9822V24.3533L96.9506 23.1044Z" fill="#C7BCD6"/>
<path d="M72.5952 35.1772V32.0549C72.5952 31.4305 72.1222 31.0142 71.4128 31.0142C70.7034 31.0142 70.2305 31.4305 70.2305 32.0549V36.426L72.5952 35.1772Z" fill="#C7BCD6"/>
<path d="M121.074 61.8205L131.715 58.6983L135.735 54.3271L140.937 115.315L120.364 96.9978L121.074 61.8205Z" fill="url(#paint5_linear_1761_250)"/>
<path d="M201 145.913L140.936 115.315L135.734 54.3271L195.797 84.9251L201 145.913Z" fill="url(#paint6_linear_1761_250)"/>
<path d="M178.535 133.008L179.008 157.361L200.999 145.913L178.535 133.008Z" fill="url(#paint7_linear_1761_250)"/>
<path d="M181.136 92.4182L186.102 87.0063L195.797 84.9248L200.999 145.913L178.771 133.424L181.136 92.4182Z" fill="url(#paint8_linear_1761_250)"/>
<path d="M179.008 157.361L118.708 126.763L121.073 61.8203L181.136 92.4183L179.008 157.361Z" fill="url(#paint9_linear_1761_250)"/>
<path d="M179.009 142.582L119.419 112.193L119.182 115.315L179.482 145.913L179.009 142.582Z" fill="#F1F2F2"/>
<path d="M143.3 84.9249C143.3 86.1738 142.355 86.5901 141.172 85.9656C139.99 85.3412 139.044 83.8842 139.044 82.6353C139.044 81.3864 139.99 80.9701 141.172 81.5945C142.355 82.219 143.3 83.676 143.3 84.9249Z" fill="#C7BCD6"/>
<path d="M165.056 95.7486C165.056 96.9975 164.11 97.4138 162.928 96.7894C161.746 96.1649 160.8 94.7079 160.8 93.459C160.8 92.2101 161.746 91.7938 162.928 92.4182C164.11 93.0427 165.056 94.4997 165.056 95.7486Z" fill="#C7BCD6"/>
<path d="M142.119 85.1331C140.937 84.5086 139.991 83.0516 139.991 81.8027C139.991 81.5945 139.991 81.3864 139.991 81.1782C139.282 81.1782 138.809 81.8027 138.809 82.4271C138.809 83.676 139.754 85.1331 140.937 85.7575C141.883 86.1738 142.829 85.9657 143.065 85.3412C142.829 85.5494 142.592 85.3412 142.119 85.1331Z" fill="#C7BCD6"/>
<path d="M163.875 96.1648C162.693 95.5404 161.747 94.0833 161.747 92.8344C161.747 92.6263 161.747 92.4181 161.747 92.21C161.037 92.21 160.564 92.8344 160.564 93.4589C160.564 94.7078 161.51 96.1648 162.693 96.7892C163.639 97.2055 164.584 96.9974 164.821 96.373C164.821 96.373 164.348 96.373 163.875 96.1648Z" fill="#C7BCD6"/>
<path d="M154.889 117.813C152.997 117.813 151.341 117.396 149.686 116.356C144.011 113.025 140.464 107.405 140.464 101.369V86.1739C140.464 85.7576 140.937 85.3413 141.41 85.3413C141.883 85.3413 142.356 85.7576 142.356 86.1739V101.369C142.356 106.781 145.43 111.776 150.632 114.69C152.997 115.939 155.598 116.147 157.963 114.899C160.327 113.858 161.746 111.568 161.746 109.279V96.7895C161.746 96.3732 162.219 95.957 162.692 95.957C163.165 95.957 163.638 96.3732 163.638 96.7895V109.279C163.638 112.401 161.746 115.107 158.672 116.564C157.963 117.604 156.307 117.813 154.889 117.813Z" fill="#C7BCD6"/>
<path d="M154.415 115.107C152.524 115.107 150.868 114.69 149.213 113.65C143.538 110.319 139.991 104.699 139.991 98.6628V83.4679C139.991 83.0516 140.464 82.6353 140.937 82.6353C141.41 82.6353 141.883 83.0516 141.883 83.4679V98.6628C141.883 104.075 144.957 109.07 150.159 111.984C152.524 113.233 155.125 113.441 157.49 112.192C159.854 111.152 161.273 108.862 161.273 106.572V94.0835C161.273 93.6672 161.746 93.2509 162.219 93.2509C162.692 93.2509 163.165 93.6672 163.165 94.0835V106.572C163.165 109.695 161.273 112.401 158.199 113.858C157.49 114.69 155.834 115.107 154.415 115.107Z" fill="#C7BCD6"/>
<path d="M152.287 73.0604C152.287 74.3093 151.341 74.7256 150.159 74.1012C148.977 73.4767 148.031 72.0196 148.031 70.7708C148.031 69.5219 148.977 69.1056 150.159 69.73C151.341 70.3545 152.287 71.8115 152.287 73.0604Z" fill="#C7BCD6"/>
<path d="M174.279 83.8841C174.279 85.133 173.334 85.5493 172.151 84.9249C170.969 84.3004 170.023 82.8434 170.023 81.5945C170.023 80.3456 170.969 79.9293 172.151 80.5537C173.334 81.1782 174.279 82.8434 174.279 83.8841Z" fill="#C7BCD6"/>
<path d="M151.105 73.4771C149.923 72.8526 148.977 71.3956 148.977 70.1467C148.977 69.9385 148.977 69.7304 148.977 69.5222C148.267 69.5222 147.794 70.1467 147.794 70.7711C147.794 72.02 148.74 73.4771 149.923 74.1015C150.869 74.5178 151.814 74.3097 152.051 73.6852C152.051 73.6852 151.578 73.6852 151.105 73.4771Z" fill="#C7BCD6"/>
<path d="M173.096 84.3005C171.913 83.6761 170.968 82.219 170.968 80.9701C170.968 80.762 170.968 80.5539 170.968 80.3457C170.258 80.3457 169.785 80.9701 169.785 81.5946C169.785 82.8435 170.731 84.3005 171.913 84.925C172.859 85.3413 173.805 85.1331 174.042 84.5087C173.805 84.5087 173.332 84.5087 173.096 84.3005Z" fill="#C7BCD6"/>
<path d="M149.211 74.5173V71.8113C149.211 71.395 149.684 70.9788 150.157 70.9788C150.63 70.9788 151.103 71.395 151.103 71.8113V75.558L149.211 74.5173Z" fill="#C7BCD6"/>
<path d="M170.729 85.341V82.6351C170.729 82.2188 171.202 81.8025 171.675 81.8025C172.148 81.8025 172.621 82.2188 172.621 82.6351V86.3818L170.729 85.341Z" fill="#C7BCD6"/>
<path d="M106.411 171.724L69.2847 152.99L114.214 130.926L151.34 149.66L106.411 171.724Z" fill="#E6E7E8"/>
<path d="M106.174 171.515L69.0483 152.574L85.3648 144.248C90.5671 141.542 95.7695 138.628 100.735 135.714C102.391 134.673 103.81 133.632 104.992 132.383C106.411 130.926 108.066 129.677 109.721 128.636C109.958 128.428 110.431 128.22 110.667 128.22L113.978 126.555L151.104 145.497L147.084 147.37C147.084 147.37 146.847 147.37 146.847 147.578C145.665 148.203 144.482 149.035 143.3 150.076L139.989 152.99C139.044 153.823 138.098 154.447 136.915 155.071C131.713 158.194 126.511 161.108 121.308 163.814L106.174 171.515Z" fill="white"/>
<g opacity="0.8">
<g opacity="0.8">
<path opacity="0.8" d="M102.156 138.42L101.683 138.212L100.738 138.836L100.265 138.628L101.211 138.004L100.738 137.796L100.974 137.587L102.156 138.212V138.42Z" fill="#6F428A"/>
<path opacity="0.8" d="M101.92 139.461L101.683 139.253V139.044V138.836C101.683 138.836 101.683 138.628 101.92 138.628C101.92 138.628 102.156 138.628 102.156 138.42C102.392 138.42 102.393 138.42 102.629 138.42C102.865 138.42 102.865 138.42 103.102 138.42C103.338 138.42 103.338 138.42 103.575 138.628L103.811 138.836V139.044V139.253C103.811 139.253 103.811 139.461 103.575 139.461C103.575 139.461 103.338 139.461 103.338 139.669C103.102 139.669 103.102 139.669 102.865 139.669C102.629 139.669 102.629 139.669 102.392 139.669C102.156 139.461 102.156 139.461 101.92 139.461ZM102.392 138.836C102.156 138.836 102.156 138.836 102.392 138.836C102.156 139.044 102.156 139.044 102.392 138.836C102.156 139.044 102.156 139.044 102.156 139.044C102.156 139.044 102.156 139.044 102.392 139.044H102.629H102.865C102.865 139.044 102.865 139.044 103.102 139.044C103.102 139.044 103.102 139.044 103.338 139.044H103.102H102.865C102.629 138.836 102.392 138.836 102.392 138.836Z" fill="#6F428A"/>
<path opacity="0.8" d="M104.995 139.877L104.522 139.668L103.576 140.293L103.103 140.085L104.049 139.46L103.576 139.252L103.812 139.044L104.995 139.668V139.877Z" fill="#6F428A"/>
<path opacity="0.8" d="M105.703 139.877L106.176 140.085L105.23 141.126L104.757 140.917L104.993 140.709L104.52 140.501L104.284 140.709L103.811 140.501L105.703 139.877ZM105.23 140.501L105.466 140.085L104.993 140.293L105.23 140.501Z" fill="#6F428A"/>
<path opacity="0.8" d="M105.467 141.126L106.886 140.293L107.359 140.501L106.413 141.126L107.123 141.542L106.886 141.75L105.467 141.126Z" fill="#6F428A"/>
<path opacity="0.8" d="M106.649 134.673C106.649 134.673 106.886 134.673 107.122 134.465C107.359 134.465 107.359 134.465 107.595 134.465C107.832 134.465 107.832 134.465 108.068 134.465C108.305 134.465 108.305 134.465 108.541 134.673C108.778 134.673 108.778 134.881 108.778 134.881V135.089H108.541C108.541 135.089 108.541 135.089 108.541 134.881C108.541 134.881 108.541 134.881 108.541 134.673H108.305H108.068H107.832C107.122 134.673 107.122 134.673 106.649 134.673C106.886 134.881 106.649 134.881 106.649 134.881V135.089V135.297C106.649 135.297 106.649 135.506 106.886 135.506C106.886 135.506 106.886 135.506 107.122 135.506H107.359H107.595H107.832V135.714H107.595H107.359H107.122H106.886L106.649 135.506V135.297V135.089C106.649 134.881 106.649 134.673 106.649 134.673Z" fill="#6F428A"/>
<path opacity="0.8" d="M109.723 135.506L109.013 136.755L108.777 136.547L109.013 136.13L108.304 135.714L107.594 135.922L107.358 135.714L109.723 135.506ZM109.25 136.13L109.723 135.506L108.54 135.714L109.25 136.13Z" fill="#6F428A"/>
<path opacity="0.8" d="M109.25 136.754L110.906 135.922L111.615 136.338C111.615 136.338 111.852 136.338 111.852 136.546C111.852 136.546 111.852 136.546 111.852 136.754C111.852 136.754 111.852 136.754 111.852 136.963C111.852 136.963 111.852 136.963 111.615 137.171H111.379H111.142H110.906H110.669L110.433 137.795L110.196 137.587L110.433 137.171L109.96 136.963L109.25 136.754ZM110.196 136.546L110.669 136.754C110.669 136.754 110.669 136.754 110.906 136.754C110.906 136.754 110.906 136.754 111.142 136.754C111.142 136.754 111.142 136.754 111.379 136.754C111.379 136.754 111.379 136.754 111.615 136.754L111.142 136.546H110.196Z" fill="#6F428A"/>
<path opacity="0.8" d="M110.904 137.587L112.56 136.754L113.033 136.963C113.269 136.963 113.269 137.171 113.269 137.171V137.379V137.587L113.033 137.795C112.796 137.795 112.796 138.003 112.56 138.003C112.323 138.003 112.323 138.003 112.087 138.003C111.85 138.003 111.85 138.003 111.614 138.003C111.377 138.003 111.377 138.003 111.141 137.795L110.904 137.587ZM112.796 137.795C113.033 137.795 113.033 137.795 112.796 137.795C113.033 137.587 113.033 137.587 113.033 137.379V137.171C113.033 137.171 113.033 136.963 112.796 136.963L112.323 136.754L110.904 137.379L111.377 137.587C111.377 137.587 111.614 137.587 111.614 137.795H111.85H112.087C112.56 137.795 112.796 137.795 112.796 137.795Z" fill="#6F428A"/>
<path opacity="0.8" d="M113.033 138.836L114.689 138.003L115.398 138.42C115.398 138.42 115.634 138.42 115.634 138.628C115.634 138.628 115.634 138.628 115.634 138.836C115.634 138.836 115.634 138.836 115.634 139.044C115.634 139.044 115.634 139.044 115.398 139.252H115.161H114.925H114.689H114.452L114.216 139.877L113.979 139.669L114.216 139.252L113.743 139.044L113.033 138.836ZM114.216 138.42L114.689 138.628C114.689 138.628 114.688 138.628 114.925 138.628C114.925 138.628 114.925 138.628 115.161 138.628C115.161 138.628 115.161 138.628 115.398 138.628C115.398 138.628 115.398 138.628 115.634 138.628L115.161 138.42H114.216Z" fill="#6F428A"/>
<path opacity="0.8" d="M116.108 140.085L114.689 139.669L116.345 138.836L117.527 139.461H117.291L116.345 139.044L115.872 139.253L116.581 139.669H116.345L115.635 139.253L115.162 139.461L116.108 140.085Z" fill="#6F428A"/>
<path opacity="0.8" d="M116.818 139.877C116.818 139.877 117.054 139.877 117.291 139.668C117.527 139.668 117.527 139.668 117.764 139.668C118 139.668 118 139.668 118.237 139.668C118.473 139.668 118.473 139.668 118.71 139.877C118.946 139.877 118.946 140.085 118.946 140.085V140.293H118.71C118.71 140.293 118.71 140.293 118.71 140.085C118.71 139.877 118.71 140.085 118.71 140.085H118.473H118.237H118C117.291 139.877 117.054 139.877 116.818 139.877C117.054 140.085 116.818 140.085 116.818 140.085V140.293V140.501C116.818 140.501 116.818 140.501 117.054 140.709C117.054 140.709 117.054 140.709 117.291 140.709H117.527H117.764H118V140.917H117.764H117.527H117.291H117.054L116.818 140.709V140.501V140.293C116.582 139.877 116.818 139.877 116.818 139.877Z" fill="#6F428A"/>
<path opacity="0.8" d="M119.181 141.542L117.762 141.126L119.418 140.293L120.6 140.918H120.363L119.418 140.501L118.945 140.71L119.654 141.126H119.418L118.708 140.71L118.235 140.918L119.181 141.542Z" fill="#6F428A"/>
<path opacity="0.8" d="M119.183 141.958L120.838 141.126L121.075 141.334L119.183 141.958Z" fill="#6F428A"/>
<path opacity="0.8" d="M119.891 142.167L121.546 141.334L122.256 141.751C122.256 141.751 122.492 141.751 122.492 141.959C122.492 141.959 122.492 141.959 122.492 142.167C122.492 142.167 122.492 142.167 122.492 142.375C122.492 142.375 122.492 142.375 122.256 142.583H122.019H121.783H121.546H121.31L120.837 142.375L119.891 142.167ZM120.837 141.959L121.31 142.167C121.31 142.167 121.31 142.167 121.546 142.167C121.546 142.167 121.546 142.167 121.783 142.167C121.783 142.167 121.783 142.167 122.019 142.167C122.019 142.167 122.019 142.167 122.256 142.167L121.783 141.959H120.837Z" fill="#6F428A"/>
<path opacity="0.8" d="M123.911 142.791L123.438 142.583L122.019 143.415L121.783 143.207L123.201 142.375L122.729 142.167H122.965L123.911 142.791Z" fill="#6F428A"/>
</g>
<g opacity="0.8">
<path opacity="0.8" d="M131.717 145.08C131.717 145.08 131.48 145.08 131.48 145.289H131.244H131.007H130.771C130.771 145.289 130.534 145.289 130.534 145.08C130.534 145.08 130.534 145.08 130.534 144.872V144.664C130.534 144.664 130.771 144.664 130.771 144.456C130.771 144.456 131.007 144.456 131.007 144.248H131.244H131.48H131.717C131.717 144.248 131.953 144.248 131.953 144.456C131.953 144.456 131.953 144.456 131.953 144.664C131.953 144.872 131.953 144.872 131.717 145.08ZM131.48 145.08C131.48 144.872 131.48 144.872 131.48 145.08C131.717 144.872 131.717 144.872 131.717 144.872C131.717 144.872 131.717 144.872 131.48 144.872H131.244H131.007H130.771C130.771 144.872 130.534 144.872 130.534 145.08C130.534 145.08 130.534 145.08 130.534 145.289C130.534 145.289 130.534 145.289 130.771 145.289H131.007C131.007 145.08 131.244 145.08 131.48 145.08C131.244 145.08 131.48 145.08 131.48 145.08Z" fill="#6F428A"/>
<path opacity="0.8" d="M132.189 145.913L131.243 145.705H131.48L131.716 145.913L132.426 145.497C132.426 145.497 132.425 145.497 132.189 145.497C132.189 145.497 132.189 145.497 131.953 145.497H132.189C132.189 145.497 132.189 145.497 132.426 145.497C132.426 145.497 132.425 145.497 132.662 145.497C132.662 145.497 132.662 145.497 132.898 145.497H133.135L132.189 145.913Z" fill="#6F428A"/>
<path opacity="0.8" d="M134.317 146.537C134.317 146.537 134.081 146.537 134.081 146.745H133.844H133.608H133.371C133.371 146.745 133.135 146.745 133.135 146.537C133.135 146.537 133.135 146.537 133.135 146.329V146.121C133.135 146.121 133.371 146.121 133.371 145.913C133.371 145.913 133.608 145.913 133.608 145.705H133.844H134.081H134.317C134.317 145.705 134.554 145.705 134.554 145.913C134.554 145.913 134.554 145.913 134.554 146.121C134.554 146.121 134.554 146.329 134.317 146.537C134.317 146.329 134.317 146.329 134.317 146.537ZM134.081 146.329C134.317 146.121 134.317 146.121 134.317 146.121C134.317 146.121 134.317 146.121 134.081 146.121H133.844H133.608H133.371C133.371 146.121 133.135 146.121 133.135 146.329C133.135 146.329 133.135 146.329 133.135 146.537C133.135 146.537 133.135 146.537 133.371 146.537H133.608C133.608 146.537 133.844 146.537 134.081 146.329C133.844 146.329 134.081 146.329 134.081 146.329Z" fill="#6F428A"/>
<path opacity="0.8" d="M134.791 147.162L133.845 146.954H134.082L134.318 147.162L135.028 146.746C135.028 146.746 135.028 146.746 134.791 146.746C134.791 146.746 134.791 146.746 134.555 146.746H134.791C134.791 146.746 134.791 146.746 135.028 146.746C135.028 146.746 135.028 146.746 135.264 146.746C135.264 146.746 135.264 146.746 135.501 146.746H135.737L134.791 147.162Z" fill="#6F428A"/>
<path opacity="0.8" d="M135.263 147.578C135.499 147.578 135.499 147.37 135.736 147.37H135.972H136.209H136.445H136.682C136.682 147.37 136.682 147.37 136.918 147.37C136.918 147.37 136.918 147.37 137.155 147.37C137.155 147.37 137.154 147.37 136.918 147.37C136.918 147.37 136.918 147.37 136.682 147.37C136.682 147.37 136.682 147.37 136.445 147.37V147.162C136.445 147.162 136.445 147.162 136.682 147.162H136.918H137.155C137.155 147.162 137.154 147.162 137.391 147.162C137.391 147.162 137.391 147.162 137.155 147.162H136.918H136.682C136.682 147.162 136.682 147.162 136.445 147.162C136.445 147.162 136.445 147.162 136.209 147.162H135.972H135.736C135.736 147.162 135.736 147.162 135.499 147.162L136.209 147.578H135.972H135.263Z" fill="#6F428A"/>
<path opacity="0.8" d="M138.101 148.41C138.101 148.41 137.865 148.41 137.865 148.619H137.628H137.392H137.155C137.155 148.619 136.919 148.619 136.919 148.41C136.919 148.41 136.919 148.41 136.919 148.202V147.994C136.919 147.994 137.155 147.994 137.155 147.786C137.155 147.786 137.392 147.786 137.392 147.578H137.628H137.865H138.101C138.101 147.578 138.338 147.578 138.338 147.786C138.338 147.786 138.338 147.786 138.338 147.994C138.338 147.994 138.338 148.202 138.101 148.41C138.101 148.202 138.101 148.202 138.101 148.41ZM137.865 148.202C138.101 147.994 138.101 147.994 138.101 147.994C138.101 147.994 138.101 147.994 137.865 147.994H137.628H137.392H137.155C137.155 147.994 136.919 147.994 136.919 148.202C136.919 148.202 136.919 148.202 136.919 148.41C136.919 148.41 136.919 148.41 137.155 148.41H137.392C137.392 148.41 137.628 148.41 137.865 148.202C137.628 148.41 137.865 148.202 137.865 148.202Z" fill="#6F428A"/>
<path opacity="0.8" d="M138.573 149.035L137.627 148.827H137.863L138.1 149.035L138.809 148.619C138.809 148.619 138.809 148.619 138.573 148.619C138.573 148.619 138.573 148.619 138.336 148.619H138.573C138.573 148.619 138.573 148.619 138.809 148.619C138.809 148.619 138.809 148.619 139.046 148.619C139.046 148.619 139.046 148.619 139.282 148.619H139.519L138.573 149.035Z" fill="#6F428A"/>
<path opacity="0.8" d="M139.283 148.827H139.52H139.756H139.993H140.229C140.229 148.827 140.466 148.827 140.466 149.035C140.466 149.035 140.466 149.035 140.466 149.243V149.451L140.229 149.66C139.993 149.66 139.993 149.868 139.756 149.868C139.52 149.868 139.52 149.868 139.283 149.868C139.047 149.868 139.047 149.868 139.047 149.868H138.81L138.574 149.66V149.451H138.81C138.81 149.451 138.81 149.451 138.81 149.66C138.81 149.66 138.81 149.66 139.047 149.868C139.047 149.868 139.283 149.868 139.52 149.868C139.756 149.868 139.756 149.868 139.993 149.66H139.756H139.52C139.52 149.66 139.283 149.66 139.283 149.451C139.283 149.451 139.283 149.451 139.283 149.243C139.047 149.035 139.047 149.035 139.283 148.827C139.047 149.035 139.047 148.827 139.283 148.827ZM139.993 149.035C139.993 149.035 139.993 148.827 139.993 149.035C139.756 149.035 139.756 149.035 139.756 149.035H139.52C139.52 149.035 139.52 149.035 139.283 149.035C139.283 149.035 139.283 149.035 139.52 149.035H139.756H139.993C139.993 149.035 139.993 149.035 140.229 149.035C140.229 149.243 140.229 149.243 139.993 149.035C140.229 149.035 140.229 149.035 139.993 149.035C140.229 149.035 140.229 149.035 139.993 149.035Z" fill="#6F428A"/>
<path opacity="0.8" d="M128.643 145.705L128.17 145.497L126.751 146.121H126.515L127.933 145.497L127.461 145.289H127.697L128.643 145.705Z" fill="#6F428A"/>
<path opacity="0.8" d="M127.697 146.329L129.116 145.497H129.352L127.697 146.329Z" fill="#6F428A"/>
<path opacity="0.8" d="M129.352 147.37L130.534 146.746L129.115 146.954L129.588 146.329L128.406 146.954H128.169L129.588 146.121H129.825L129.352 146.954L130.771 146.746H131.007L129.352 147.37Z" fill="#6F428A"/>
<path opacity="0.8" d="M131.243 147.995L130.061 147.578L131.48 146.746L132.426 147.162H132.189L131.48 146.746L131.007 146.954L131.716 147.37H131.48H130.77L130.297 147.578L131.243 147.995Z" fill="#6F428A"/>
<path opacity="0.8" d="M131.243 148.202H131.716H131.243ZM131.953 147.786H132.426H131.953Z" fill="#6F428A"/>
<path opacity="0.8" d="M133.136 149.035L132.19 148.827H132.426L132.663 149.035L133.372 148.619C133.372 148.619 133.372 148.619 133.136 148.619C133.136 148.619 133.136 148.619 132.899 148.619H133.136C133.136 148.619 133.136 148.619 133.372 148.619C133.372 148.619 133.372 148.619 133.609 148.619C133.609 148.619 133.609 148.619 133.845 148.619H134.082L133.136 149.035Z" fill="#6F428A"/>
<path opacity="0.8" d="M134.554 149.451C134.554 149.451 134.318 149.451 134.554 149.451C134.318 149.451 134.081 149.451 134.081 149.451H133.845H133.609C133.609 149.451 133.372 149.451 133.372 149.243C133.372 149.243 133.372 149.243 133.372 149.035C133.372 149.035 133.372 149.035 133.372 148.827C133.372 148.827 133.372 148.827 133.609 148.619C133.609 148.619 133.608 148.619 133.845 148.619C133.845 148.619 133.845 148.619 134.081 148.619C134.081 148.619 134.081 148.619 134.318 148.619C134.318 148.619 134.318 148.619 134.554 148.619H134.791H135.027H135.264H135.5C135.5 148.619 135.5 148.619 135.737 148.619C135.737 148.619 135.737 148.619 135.737 148.827C135.737 148.827 135.737 148.827 135.737 149.035C135.737 149.035 135.737 149.035 135.5 149.243H135.264H135.027C134.554 149.243 134.554 149.243 134.554 149.451C134.554 149.243 134.554 149.451 134.554 149.451ZM134.318 149.451C134.318 149.243 134.318 149.243 134.318 149.451C134.554 149.243 134.554 149.243 134.318 149.451C134.318 149.243 134.318 149.243 134.318 149.243C134.318 149.243 134.318 149.243 134.081 149.243C134.081 149.243 134.081 149.243 133.845 149.243C133.845 149.243 133.845 149.243 133.609 149.243C133.609 149.243 133.609 149.243 133.372 149.243C133.372 149.243 133.372 149.243 133.609 149.243C133.609 149.243 133.608 149.243 133.845 149.243C134.081 149.451 134.081 149.451 134.318 149.451ZM134.318 148.619C134.318 148.827 134.318 148.827 134.318 148.619C134.318 148.827 134.318 148.827 134.318 148.619C134.318 148.827 134.318 148.827 134.318 148.619C134.318 148.827 134.318 148.827 134.318 148.827C134.318 148.827 134.318 148.827 134.554 148.827C134.554 148.827 134.554 148.827 134.791 148.827C134.791 148.827 134.791 148.827 135.027 148.827C135.027 148.827 135.027 148.827 134.791 148.827C134.791 148.827 134.791 148.827 134.554 148.827C134.554 148.619 134.554 148.619 134.318 148.619C134.554 148.619 134.318 148.619 134.318 148.619Z" fill="#6F428A"/>
<path opacity="0.8" d="M134.317 149.868H134.79H134.317ZM135.263 149.452H135.736H135.263Z" fill="#6F428A"/>
<path opacity="0.8" d="M135.737 150.076C135.974 150.076 135.974 150.284 135.737 150.076C135.737 150.284 135.737 150.284 135.737 150.493H135.501H135.264H135.028H134.791L134.555 150.284V150.076H134.791C134.791 150.076 134.791 150.076 134.791 150.284C134.791 150.284 134.791 150.284 135.028 150.493H135.264H135.501C135.737 150.284 135.737 150.284 135.737 150.076C135.501 150.076 135.501 150.076 135.501 150.076H135.737C135.737 149.868 135.974 150.076 135.737 150.076C135.974 150.076 135.973 150.076 136.21 149.868C136.21 149.868 136.21 149.868 136.21 149.66C136.21 149.66 136.21 149.66 135.974 149.452H135.737H135.501V149.244C135.501 149.244 135.501 149.244 135.737 149.244H135.974H136.21C136.21 149.244 136.21 149.244 136.446 149.244C136.446 149.244 136.446 149.244 136.683 149.452C136.683 149.452 136.683 149.452 136.683 149.66C136.683 149.66 136.683 149.66 136.683 149.868C136.683 149.868 136.683 149.868 136.446 149.868C136.446 149.868 136.446 149.868 136.21 149.868C136.21 150.076 135.974 150.076 135.737 150.076C135.974 150.076 135.974 150.076 135.737 150.076Z" fill="#6F428A"/>
<path opacity="0.8" d="M137.627 150.909C137.627 150.909 137.391 150.909 137.391 151.117H137.154H136.918H136.681C136.681 151.117 136.445 151.117 136.445 150.909C136.445 150.909 136.445 150.909 136.445 150.701V150.492C136.445 150.492 136.681 150.492 136.681 150.284C136.681 150.284 136.918 150.284 136.918 150.076H137.154H137.391H137.627C137.627 150.076 137.864 150.076 137.864 150.284C137.864 150.284 137.864 150.284 137.864 150.492C137.864 150.492 137.864 150.701 137.627 150.909C137.627 150.701 137.627 150.701 137.627 150.909ZM137.391 150.701C137.627 150.492 137.627 150.492 137.627 150.492C137.627 150.492 137.627 150.492 137.391 150.492H137.154H136.918H136.681C136.681 150.492 136.445 150.492 136.445 150.701C136.445 150.701 136.445 150.701 136.445 150.909C136.445 150.909 136.445 150.909 136.681 150.909H136.918C136.918 150.909 137.154 150.909 137.391 150.701C137.154 150.701 137.154 150.701 137.391 150.701Z" fill="#6F428A"/>
<path opacity="0.8" d="M125.804 150.7C125.568 150.492 125.568 150.492 125.804 150.7C125.568 150.492 125.568 150.492 125.568 150.492H125.332C125.568 150.7 125.568 150.7 125.804 150.7C125.568 150.7 125.568 150.908 125.804 150.7C125.568 150.908 125.568 150.908 125.568 150.908C125.568 150.908 125.568 150.908 125.332 151.117H125.095H124.859H124.622H124.386L124.149 151.325H123.913L124.149 151.117L123.913 150.908C123.913 150.908 123.913 150.7 123.676 150.7H124.149H124.386C124.386 150.7 124.386 150.7 124.386 150.492C124.386 150.492 124.386 150.492 124.622 150.492H124.859H125.095H125.332H125.568L125.804 150.284H126.041L125.804 150.492V150.7ZM124.859 150.908C124.859 150.908 124.859 150.7 124.859 150.908V150.908ZM125.332 150.492C125.332 150.284 125.332 150.284 125.332 150.492V150.492Z" fill="#6F428A"/>
<path opacity="0.8" d="M125.804 151.117H126.041H126.277H126.514H126.75C126.75 151.117 126.987 151.117 126.987 151.325V151.533C126.987 151.533 126.987 151.741 126.75 151.741L126.514 151.95C126.277 151.95 126.277 152.158 126.041 152.158C125.804 152.158 125.804 152.158 125.568 152.158C125.331 152.158 125.331 152.158 125.331 152.158H125.095C124.858 152.158 124.858 151.95 124.858 151.741H125.331C125.331 151.741 125.331 151.95 125.568 151.95H125.804H126.041H125.804C125.804 151.95 125.568 151.95 125.568 151.741C125.568 151.741 125.568 151.741 125.568 151.533C125.568 151.325 125.568 151.117 125.804 151.117C125.568 151.117 125.804 151.117 125.804 151.117ZM126.514 151.117C126.277 151.117 126.277 151.117 126.514 151.117C126.277 151.117 126.277 151.117 126.277 151.117C126.277 151.117 126.277 151.117 126.514 151.117C126.277 151.533 126.514 151.325 126.514 151.117C126.514 151.325 126.514 151.325 126.514 151.117C126.514 151.325 126.514 151.325 126.514 151.117C126.514 151.325 126.514 151.325 126.514 151.117C126.514 151.325 126.514 151.325 126.514 151.117Z" fill="#6F428A"/>
<path opacity="0.8" d="M127.462 151.949C127.698 151.949 127.698 151.949 127.462 151.949C127.698 152.157 127.698 152.158 127.698 152.158C127.698 152.158 127.698 152.157 127.698 152.366C127.698 152.366 127.698 152.366 127.462 152.574H127.225H126.989H126.752H126.516L126.279 152.366V152.158H126.752C126.752 152.158 126.752 152.157 126.752 152.366C126.752 152.366 126.752 152.366 126.989 152.366C126.989 152.366 126.989 152.366 127.225 152.366L126.989 152.158L128.171 151.741L128.88 152.158L128.408 152.366L127.462 151.949Z" fill="#6F428A"/>
<path opacity="0.8" d="M127.461 152.574L127.934 152.365L128.171 152.574L127.698 152.782L127.461 152.574Z" fill="#6F428A"/>
<path opacity="0.8" d="M129.826 153.198C129.826 153.198 129.589 153.198 129.589 153.406H129.353H129.116H128.88C128.88 153.406 128.644 153.406 128.644 153.198C128.644 153.198 128.644 153.198 128.644 152.99V152.782C128.644 152.782 128.88 152.782 128.88 152.574C128.88 152.574 129.116 152.574 129.116 152.365H129.353H129.589H129.826C129.826 152.365 130.062 152.365 130.062 152.574C130.062 152.574 130.062 152.574 130.062 152.782C130.062 152.782 130.062 152.99 129.826 153.198C129.826 152.99 129.826 152.99 129.826 153.198ZM129.353 152.99C129.353 152.782 129.589 152.782 129.353 152.99C129.589 152.782 129.589 152.782 129.353 152.782C129.353 152.782 129.353 152.782 129.116 152.782H128.88C128.88 152.782 128.644 152.782 128.644 152.99C128.644 152.99 128.644 152.99 128.88 152.99C129.117 152.99 129.353 152.99 129.353 152.99Z" fill="#6F428A"/>
<path opacity="0.8" d="M131.008 153.822C131.008 153.822 130.772 153.822 130.772 154.031H130.535H130.299H130.062C130.062 154.031 129.826 154.031 129.826 153.822C129.826 153.822 129.826 153.822 129.826 153.614V153.406C129.826 153.406 130.062 153.406 130.062 153.198C130.062 153.198 130.299 153.198 130.299 152.99H130.535H130.772H131.008C131.008 152.99 131.245 152.99 131.245 153.198C131.245 153.198 131.245 153.198 131.245 153.406C131.245 153.614 131.244 153.614 131.008 153.822C131.244 153.614 131.244 153.822 131.008 153.822ZM130.772 153.614C130.772 153.614 130.772 153.406 130.772 153.614C131.008 153.406 131.008 153.406 131.008 153.406C131.008 153.406 131.008 153.406 130.772 153.406H130.535C130.535 153.406 130.299 153.406 130.299 153.614C130.299 153.614 130.299 153.614 130.535 153.614C130.535 153.614 130.535 153.614 130.772 153.614Z" fill="#6F428A"/>
</g>
<g opacity="0.8">
<path opacity="0.8" d="M103.91 135.278L103.792 135.458L137.99 152.839L138.109 152.658L103.91 135.278Z" fill="#6F428A"/>
</g>
<g opacity="0.8">
<path opacity="0.8" d="M95.4429 140.151L95.3247 140.331L129.524 157.712L129.642 157.532L95.4429 140.151Z" fill="#6F428A"/>
</g>
<g opacity="0.8">
<path opacity="0.8" d="M107.595 155.072L104.048 156.945L107.595 158.818L111.142 156.945L107.595 155.072ZM107.595 157.986L104.994 156.737L107.595 155.488L110.196 156.737L107.595 157.986ZM104.521 155.072L104.994 155.28L105.467 155.072L104.994 154.864L104.521 155.072ZM109.014 156.737L107.595 155.904L106.176 156.737L107.595 157.57L109.014 156.737ZM100.974 154.655L100.501 154.864L101.447 155.28L101.92 155.072L101.447 154.864L101.92 154.655L104.521 155.904L104.994 155.696L103.575 154.864L104.048 154.655L103.575 154.447L103.102 154.655L102.629 154.447L103.102 154.239L103.575 154.447L104.048 154.239L104.521 154.447L104.994 154.239L105.94 154.655L105.467 154.864L105.94 155.072L106.885 154.655L104.284 153.407L103.811 153.615L103.338 153.407L103.811 153.198L103.338 152.99L102.866 153.198L102.393 152.99L101.92 153.198L102.393 153.407L101.92 153.615L101.447 153.407L100.974 153.615L101.92 154.031L100.974 154.655ZM100.501 152.366L99.082 151.533L97.6631 152.366L99.082 153.198L100.501 152.366ZM102.629 152.366L99.082 150.492L95.5349 152.366L99.082 154.239L102.629 152.366ZM99.082 153.823L96.4808 152.574L99.082 151.325L101.683 152.574L99.082 153.823ZM100.974 154.239L100.501 154.031L99.5549 154.447L100.028 154.655L100.974 154.239ZM102.629 155.488L102.156 155.696L102.629 155.904L103.102 155.696L102.629 155.488ZM103.102 156.737L104.048 156.321L103.575 156.112L103.102 156.321L102.629 156.112L102.156 156.321L103.102 156.737ZM103.102 157.778L103.575 157.986L104.521 157.57L104.048 157.361L103.575 157.153L103.102 157.361L103.575 157.57L103.102 157.778ZM106.649 158.61L106.176 158.402L105.23 158.818L105.703 159.027L106.649 158.61ZM97.1902 154.655L96.7173 154.864L97.1902 155.072L97.6631 154.864L97.1902 154.655ZM105.23 158.818L104.757 158.61L105.703 158.194L105.23 157.986L103.811 158.818L104.757 159.235L105.23 158.818ZM103.575 158.61L103.102 158.402L102.629 158.61L103.102 158.818L103.575 158.61ZM104.521 159.651L104.994 159.859L105.467 159.651L104.994 159.443L104.521 159.651ZM95.5349 154.447L96.0078 154.655L96.4808 154.447L96.0078 154.239L96.4808 154.031L95.5349 153.615L96.0078 153.407L95.5349 153.198L95.0619 153.407L94.5891 153.198L94.1161 153.407L94.5891 153.615L94.1161 153.823L93.6431 153.615L92.2243 154.447L93.1702 154.864L93.6431 154.655L93.1702 154.447L93.6431 154.239L94.1161 154.447L94.5891 154.239L95.0619 154.447L94.1161 154.864L95.0619 155.28L94.5891 155.488L95.0619 155.696L95.5349 155.488L96.4808 155.904L96.9538 155.696L94.8255 154.655L95.5349 154.447ZM103.575 159.651L104.048 159.443L103.102 159.027L102.629 159.235L103.575 159.651ZM103.575 160.067L104.048 159.859L103.575 159.651L103.102 159.859L103.575 160.067ZM91.9879 154.655L91.5149 154.447L91.042 154.655L91.5149 154.864L91.9879 154.655ZM94.1161 155.696L94.5891 155.488L94.1161 155.28L93.1702 155.696L94.1161 156.112L94.5891 155.904L95.0619 156.112L95.5349 155.904L95.0619 155.696L94.5891 155.904L94.1161 155.696ZM103.102 160.275L102.629 160.067L103.102 159.859L102.156 159.443L101.683 159.651L101.21 159.443L101.683 159.235L102.156 159.443L102.629 159.235L102.156 159.027L102.629 158.818L102.156 158.61L102.629 158.402L101.21 157.57L101.683 157.361L102.629 157.778L103.102 157.57L101.683 156.737L100.737 157.153L100.264 156.945L100.737 156.737L100.264 156.529L99.3185 156.945L99.7914 157.153L99.3185 157.361L99.7914 157.57L100.264 157.361L100.737 157.57L100.028 157.778L101.447 158.61L100.501 159.027L100.028 158.818L99.5549 159.027L99.082 159.235L98.609 159.443L99.082 159.651L99.5549 159.443L100.028 159.235L100.501 159.027L100.974 159.235L99.082 160.275L97.6631 159.443L99.5549 158.402L99.082 158.194L99.5549 157.986L99.082 157.778L98.609 157.986L98.1361 157.778L98.609 157.57L98.1361 157.361L97.6631 157.57L97.1902 157.361L97.6631 157.153L97.1902 156.945L98.1361 156.529L98.609 156.737L98.1361 156.945L98.609 157.153L99.082 156.945L98.609 156.737L99.082 156.529L99.5549 156.321L100.028 156.529L100.501 156.321L100.974 156.529L101.447 156.321L100.501 155.904L100.028 155.696L99.5549 155.488L100.028 155.28L97.4267 154.031L96.9538 154.239L98.3725 155.072L96.9538 155.904L97.4267 156.112L96.4808 156.529L96.0078 156.321L94.1161 157.361L94.5891 157.57L95.5349 157.153L96.0078 157.361L95.5349 157.57L96.0078 157.778L95.5349 157.986L96.4808 158.402L96.9538 158.194L97.4267 158.402L98.3725 157.986L98.8455 158.194L97.8996 158.61L97.4267 158.402L96.4808 158.818L96.9538 159.027L96.4808 159.235L97.8996 160.067L97.4267 160.275L96.4808 159.859L96.0078 160.067L95.5349 159.859L95.0619 160.067L96.0078 160.484L96.4808 160.275L96.9538 160.484L96.4808 160.692L96.0078 160.484L95.5349 160.692L98.1361 161.941L98.609 161.732L98.1361 161.524L98.609 161.316L99.082 161.524L98.609 161.732L99.082 161.941L100.028 161.524L99.5549 161.316L100.028 161.108L100.501 161.316L100.974 161.108L100.028 160.692L99.5549 160.9L99.082 160.692L98.609 160.9L98.1361 160.692L98.609 160.484L99.082 160.692L100.028 160.275L100.974 160.692L101.447 160.484L102.393 160.9L102.866 160.692L102.393 160.484L103.102 160.275ZM96.4808 157.57L96.0078 157.361L96.4808 157.153L96.9538 157.361L96.4808 157.57ZM97.6631 157.986L97.1902 157.778L97.6631 157.57L98.1361 157.778L97.6631 157.986ZM98.1361 161.316L97.6631 161.524L97.1902 161.316L97.6631 161.108L98.1361 161.316ZM102.156 160.275L101.21 159.859L101.683 159.651L102.629 160.067L102.156 160.275ZM87.022 156.737L90.569 158.61L94.1161 156.737L90.569 154.864L87.022 156.737ZM90.569 155.488L93.1702 156.737L90.569 157.986L87.9678 156.737L90.569 155.488ZM89.1502 156.737L90.569 157.57L91.9879 156.737L90.569 155.904L89.1502 156.737ZM91.042 158.818L93.6431 160.067L94.1161 159.859L92.6972 159.027L93.6431 158.61L93.1702 158.402L94.1161 157.986L93.6431 157.778L91.042 158.818ZM95.5349 159.027L96.0078 158.818L94.5891 157.986L95.0619 157.778L94.5891 157.57L94.1161 157.778L94.5891 157.986L94.1161 158.194L94.5891 158.402L94.1161 158.61L95.0619 159.027L94.5891 159.235L95.5349 159.651L96.4808 159.235L95.5349 159.027ZM100.737 162.149L101.21 161.941L100.737 161.732L100.028 161.941L100.737 162.149ZM94.1161 160.275L94.5891 160.484L95.0619 160.275L94.5891 160.067L94.1161 160.275Z" fill="#6F428A"/>
</g>
<g opacity="0.8">
<path opacity="0.8" d="M99.7896 146.746L99.0802 146.329L97.1884 147.37L96.479 146.954L98.3707 145.913L97.6614 145.497L98.3707 145.289L100.499 146.329L99.7896 146.746Z" fill="#6F428A"/>
<path opacity="0.8" d="M102.863 147.786L100.262 149.035L99.5527 148.619L100.499 148.203L99.5527 147.786L98.6068 148.203L97.8975 147.786L100.499 146.538L101.208 146.954L100.262 147.37L101.208 147.786L102.154 147.37L102.863 147.786Z" fill="#6F428A"/>
<path opacity="0.8" d="M104.047 148.203L104.756 148.619L103.101 150.284L102.391 149.868L102.628 149.452L101.918 149.035L101.209 149.243L100.5 148.827L104.047 148.203ZM102.864 149.243L103.337 148.827L102.391 149.035L102.864 149.243Z" fill="#6F428A"/>
<path opacity="0.8" d="M104.991 150.076L103.809 150.701L103.099 150.284L105.7 149.035L106.173 149.244L105.937 150.492L107.119 149.868L107.829 150.284L105.227 151.533L104.754 151.325L104.991 150.076Z" fill="#6F428A"/>
<path opacity="0.8" d="M105.938 151.741L108.539 150.492L109.248 150.908L108.302 151.325H109.958L110.667 151.741H108.539L108.066 152.99L107.356 152.574L107.593 151.741H107.12L106.41 152.157L105.938 151.741Z" fill="#6F428A"/>
<path opacity="0.8" d="M111.849 152.366L111.14 153.198L112.795 152.782L113.504 153.198L110.903 153.615L109.957 154.031L109.484 153.615L110.43 153.198L111.14 151.949L111.849 152.366Z" fill="#6F428A"/>
<path opacity="0.8" d="M112.322 155.072C112.085 155.072 112.085 154.864 111.849 154.655C111.849 154.447 111.612 154.447 111.849 154.239C111.849 154.031 111.849 154.031 112.085 153.823C112.085 153.615 112.322 153.615 112.558 153.615C112.795 153.615 113.031 153.406 113.031 153.406C113.268 153.406 113.504 153.406 113.74 153.406C113.977 153.406 114.213 153.406 114.45 153.406C114.686 153.406 114.923 153.615 115.159 153.615C115.396 153.615 115.396 153.823 115.632 154.031C115.632 154.239 115.869 154.239 115.632 154.447C115.632 154.655 115.632 154.655 115.396 154.864C115.396 155.072 115.159 155.072 114.923 155.072C114.686 155.072 114.45 155.28 114.45 155.28C114.213 155.28 113.977 155.28 113.74 155.28C113.504 155.28 113.268 155.28 113.031 155.28C112.558 155.28 112.322 155.072 112.322 155.072ZM113.031 154.031C112.795 154.031 112.795 154.239 113.031 154.031C112.795 154.239 112.795 154.239 112.795 154.239V154.447C112.795 154.447 112.795 154.655 113.031 154.655H113.268H113.504H113.74C113.74 154.655 113.977 154.655 113.977 154.447C113.977 154.447 114.213 154.447 114.213 154.239V154.031V153.823C114.213 153.823 114.213 153.615 113.977 153.615H113.74H113.504H113.268C113.031 154.031 113.031 154.031 113.031 154.031Z" fill="#6F428A"/>
<path opacity="0.8" d="M115.395 156.112H115.632H115.868H116.105C116.105 156.112 116.341 156.112 116.341 155.904L117.524 155.28L118.233 155.696L117.051 156.321C116.814 156.321 116.578 156.529 116.578 156.529C116.341 156.529 116.105 156.529 115.868 156.529C115.632 156.529 115.395 156.529 115.159 156.529C114.922 156.529 114.686 156.321 114.45 156.321C114.213 156.321 114.213 156.112 113.977 155.904C113.977 155.696 113.977 155.696 113.977 155.488C113.977 155.488 113.977 155.28 114.213 155.28C114.213 155.28 114.45 155.072 114.686 155.072L115.868 154.447L116.578 154.864L115.395 155.488C115.395 155.488 115.159 155.488 115.159 155.696C115.159 155.696 115.159 155.696 114.922 155.904C115.395 155.904 115.395 155.904 115.395 156.112C115.395 155.904 115.395 156.112 115.395 156.112Z" fill="#6F428A"/>
<path opacity="0.8" d="M116.58 157.153L117.289 156.737L117.998 157.153L117.289 157.569L116.58 157.153ZM117.525 156.737L118.944 155.904L119.654 156.321L118.235 157.153L117.525 156.737Z" fill="#6F428A"/>
</g>
</g>
<g opacity="0.8">
<path opacity="0.8" d="M114.449 130.926C114.212 130.926 114.212 130.718 113.976 130.718C113.976 130.51 113.976 130.51 113.976 130.302C113.976 130.094 113.976 130.094 114.212 129.886L114.449 129.677C114.685 129.677 114.685 129.469 114.921 129.469C115.158 129.469 115.394 129.469 115.631 129.469C115.867 129.469 116.104 129.469 116.34 129.469C116.577 129.469 116.813 129.677 116.813 129.677C117.05 129.677 117.05 129.886 117.286 129.886C117.286 130.094 117.286 130.094 117.286 130.302C117.286 130.51 117.286 130.51 117.05 130.718L116.813 130.926C116.577 130.926 116.577 131.134 116.34 131.134C116.104 131.134 115.867 131.134 115.631 131.134C115.394 131.134 115.158 131.134 114.921 131.134C114.685 131.134 114.685 130.926 114.449 130.926ZM115.158 130.094C114.921 130.094 114.921 130.094 115.158 130.094C114.921 130.302 114.921 130.302 114.921 130.302C114.921 130.302 114.921 130.302 114.921 130.51C114.921 130.51 114.921 130.51 115.158 130.718H115.394H115.631H115.867H116.104C116.104 130.718 116.34 130.718 116.34 130.51C116.34 130.51 116.34 130.51 116.34 130.302C116.34 130.302 116.34 130.302 116.34 130.094C116.34 130.094 116.34 130.094 116.104 129.886H115.867H115.631H115.394C115.158 129.886 115.158 129.886 115.158 130.094Z" fill="#6F428A"/>
<path opacity="0.8" d="M117.758 131.343L116.576 131.967L115.866 131.551L118.231 130.302L118.704 130.51L118.467 131.551L119.65 130.926L120.359 131.343L117.994 132.592L117.521 132.383L117.758 131.343Z" fill="#6F428A"/>
<path opacity="0.8" d="M118.469 132.8L120.834 131.551L121.543 131.967L119.888 132.8L120.834 133.424L120.361 133.632L118.469 132.8Z" fill="#6F428A"/>
<path opacity="0.8" d="M120.36 133.84L122.725 132.592L123.434 133.008L121.07 134.257L120.36 133.84Z" fill="#6F428A"/>
<path opacity="0.8" d="M123.199 134.049L122.017 134.673L121.308 134.257L123.672 133.008L124.145 133.216L123.909 134.257L125.091 133.632L125.801 134.049L123.436 135.297L122.963 135.089L123.199 134.049Z" fill="#6F428A"/>
<path opacity="0.8" d="M126.035 136.13L125.562 136.338L123.907 135.506L126.272 134.257L127.927 135.089L127.454 135.298L126.508 134.881L126.272 135.089L127.218 135.506L126.745 135.714L125.799 135.298L125.326 135.506L126.035 136.13Z" fill="#6F428A"/>
<path opacity="0.8" d="M129.582 136.963C129.582 136.963 129.346 136.754 129.582 136.963C129.346 136.754 129.346 136.754 129.346 136.754C129.346 136.754 129.346 136.754 129.109 136.546C129.109 136.546 129.109 136.546 128.873 136.546C128.873 136.546 128.873 136.546 128.636 136.546C128.636 136.546 128.636 136.546 128.873 136.754L129.109 136.963V137.171V137.379L128.873 137.587C128.636 137.587 128.636 137.795 128.4 137.795C128.163 137.795 128.163 137.795 127.927 137.795C127.69 137.795 127.69 137.795 127.454 137.795C127.217 137.795 127.217 137.795 126.981 137.587C126.981 137.587 126.744 137.587 126.744 137.379L126.508 137.171L126.271 136.963V136.754L127.217 136.546V136.754C127.217 136.754 127.217 136.963 127.454 136.963L127.69 137.171H127.927C127.927 137.171 127.927 137.171 127.927 136.963C127.927 136.963 127.927 136.963 127.69 136.754L127.454 136.546V136.338C127.454 136.338 127.454 136.338 127.454 136.13C127.454 136.13 127.454 136.13 127.69 135.922C127.927 135.922 127.927 135.714 128.163 135.714C128.4 135.714 128.4 135.714 128.636 135.714C128.873 135.714 128.873 135.714 129.109 135.714C129.346 135.714 129.346 135.714 129.582 135.922C129.582 135.922 129.819 135.922 129.819 136.13C129.819 136.13 130.055 136.13 130.055 136.338C130.055 136.338 130.055 136.338 130.291 136.546C130.291 136.546 130.291 136.546 130.291 136.754L129.582 136.963Z" fill="#6F428A"/>
<path opacity="0.8" d="M132.893 138.003L130.529 139.252L129.819 138.836L130.765 138.42L130.056 138.003L129.11 138.42L128.4 138.003L130.765 136.754L131.474 137.171L130.529 137.587L131.238 138.003L132.184 137.587L132.893 138.003Z" fill="#6F428A"/>
<path opacity="0.8" d="M131.946 139.877C131.71 139.877 131.71 139.669 131.473 139.669C131.473 139.46 131.473 139.46 131.473 139.252C131.473 139.044 131.473 139.044 131.71 138.836L131.946 138.628C132.183 138.628 132.183 138.42 132.419 138.42C132.656 138.42 132.892 138.42 133.128 138.42C133.365 138.42 133.601 138.42 133.838 138.42C134.074 138.42 134.311 138.628 134.311 138.628C134.547 138.628 134.547 138.836 134.784 138.836C134.784 139.044 134.784 139.044 134.784 139.252C134.784 139.46 134.784 139.46 134.547 139.669L134.311 139.877C134.074 139.877 134.074 140.085 133.838 140.085C133.601 140.085 133.365 140.085 133.128 140.085C132.892 140.085 132.656 140.085 132.419 140.085C132.419 140.085 132.183 139.877 131.946 139.877ZM132.655 139.044C132.419 139.252 132.419 139.252 132.419 139.252C132.419 139.252 132.419 139.252 132.419 139.46C132.419 139.46 132.419 139.46 132.655 139.669H132.892H133.128H133.365H133.601C133.601 139.669 133.838 139.669 133.838 139.46C133.838 139.46 133.838 139.46 133.838 139.252C133.838 139.252 133.838 139.252 133.838 139.044C133.838 139.044 133.838 139.044 133.601 138.836H133.365H133.128H132.892C132.892 138.836 132.892 139.044 132.655 139.044Z" fill="#6F428A"/>
<path opacity="0.8" d="M133.602 140.501L135.967 139.252L136.913 139.668L137.149 139.877V140.085V140.293L136.913 140.501C136.913 140.501 136.676 140.501 136.44 140.709C136.203 140.709 136.203 140.709 135.967 140.709C135.73 140.709 135.73 140.709 135.494 140.709C135.257 140.709 135.257 140.709 135.021 140.501L134.548 140.293L133.838 140.709L133.602 140.501ZM135.494 140.293L135.73 140.501C135.73 140.501 135.73 140.501 135.967 140.501H136.203C136.203 140.501 136.44 140.501 136.44 140.293L136.203 140.085L135.494 140.293Z" fill="#6F428A"/>
<path opacity="0.8" d="M135.494 141.542L137.858 140.293L138.804 140.709L139.041 140.917V141.126V141.334L138.804 141.542C138.804 141.542 138.568 141.542 138.331 141.75C138.095 141.75 138.095 141.75 137.858 141.75C137.622 141.75 137.622 141.75 137.385 141.75C137.149 141.75 137.149 141.75 136.912 141.542L136.44 141.334L135.73 141.75L135.494 141.542ZM137.385 141.334L137.622 141.542C137.622 141.542 137.622 141.542 137.858 141.542H138.095C138.095 141.542 138.331 141.542 138.331 141.334L138.095 141.126L137.385 141.334Z" fill="#6F428A"/>
<path opacity="0.8" d="M137.623 142.583L139.987 141.334L140.697 141.75L138.332 142.999L137.623 142.583Z" fill="#6F428A"/>
<path opacity="0.8" d="M140.46 142.999L139.278 143.623L138.568 143.207L140.933 141.958L141.406 142.166L141.17 143.207L142.352 142.582L143.061 142.999L140.697 144.248L140.224 144.04L140.46 142.999Z" fill="#6F428A"/>
<path opacity="0.8" d="M142.826 145.081C142.589 145.081 142.353 145.081 142.116 144.872C141.88 144.872 141.88 144.664 141.88 144.664L141.644 144.456C141.644 144.248 141.644 144.248 141.88 144.04C141.88 143.832 142.116 143.832 142.353 143.832C142.589 143.832 142.589 143.624 142.826 143.624C143.062 143.624 143.299 143.624 143.535 143.624C143.772 143.624 144.008 143.624 144.245 143.624C144.481 143.624 144.718 143.832 144.718 143.832L144.954 144.04L145.191 144.248V144.456V144.664H144.245V144.456C144.245 144.456 144.245 144.248 144.008 144.248H143.772H143.535H143.299C143.299 144.248 143.062 144.248 143.062 144.456C143.062 144.456 142.826 144.456 142.826 144.664C142.826 144.664 142.826 144.664 142.826 144.872C142.826 144.872 142.826 144.872 142.826 145.081C142.826 145.081 142.826 145.081 143.062 145.289C143.299 145.289 143.535 145.497 143.772 145.497L143.299 145.289L143.772 145.081L144.718 145.497L143.535 146.121L142.826 145.081Z" fill="#6F428A"/>
</g>
<g opacity="0.8">
<path opacity="0.6" d="M21.0439 172.764L31.6851 178.176L36.651 175.47L26.2463 170.267L21.0439 172.764Z" fill="white"/>
<path opacity="0.8" d="M28.8501 168.809L39.4913 174.221L45.1665 171.307L34.5254 165.895L28.8501 168.809Z" fill="white"/>
<path opacity="0.3" d="M5.20264 180.882L15.8438 186.086L19.8638 184.212L9.22266 178.8L5.20264 180.882Z" fill="white"/>
<path opacity="0.15" d="M0 183.588L10.4047 189L12.5329 187.959L1.89173 182.755L0 183.588Z" fill="white"/>
<path opacity="0.5" d="M13.2427 176.719L23.6474 182.131L28.3768 179.841L17.7357 174.429L13.2427 176.719Z" fill="white"/>
<path opacity="0.8" d="M28.1406 159.859L56.7536 174.429L62.1923 156.945L28.1406 159.859Z" fill="white"/>
</g>
<defs>
<linearGradient id="paint0_linear_1761_250" x1="140.769" y1="36.6604" x2="60.5825" y2="83.2618" gradientUnits="userSpaceOnUse">
<stop offset="0.0353535" stop-color="#138BBD"/>
<stop offset="0.2257" stop-color="#169AC7"/>
<stop offset="0.5946" stop-color="#1FC3DF"/>
<stop offset="1" stop-color="#2AF6FF"/>
</linearGradient>
<linearGradient id="paint1_linear_1761_250" x1="84.4107" y1="80.2633" x2="19.2448" y2="-30.3422" gradientUnits="userSpaceOnUse">
<stop offset="0.0353535" stop-color="#138BBD"/>
<stop offset="0.2257" stop-color="#169AC7"/>
<stop offset="0.5946" stop-color="#1FC3DF"/>
<stop offset="1" stop-color="#2AF6FF"/>
</linearGradient>
<linearGradient id="paint2_linear_1761_250" x1="78.7438" y1="120.606" x2="52.8536" y2="146.987" gradientUnits="userSpaceOnUse">
<stop offset="0.0353535" stop-color="#138BBD"/>
<stop offset="0.2257" stop-color="#169AC7"/>
<stop offset="0.5946" stop-color="#1FC3DF"/>
<stop offset="1" stop-color="#2AF6FF"/>
</linearGradient>
<linearGradient id="paint3_linear_1761_250" x1="72.5572" y1="71.3597" x2="-7.62989" y2="117.961" gradientUnits="userSpaceOnUse">
<stop offset="0.0353535" stop-color="#138BBD"/>
<stop offset="0.2257" stop-color="#169AC7"/>
<stop offset="0.5946" stop-color="#1FC3DF"/>
<stop offset="1" stop-color="#2AF6FF"/>
</linearGradient>
<linearGradient id="paint4_linear_1761_250" x1="-33.1418" y1="31.4491" x2="146.354" y2="116.54" gradientUnits="userSpaceOnUse">
<stop offset="0.0353535" stop-color="#138BBD"/>
<stop offset="0.2257" stop-color="#169AC7"/>
<stop offset="0.5946" stop-color="#1FC3DF"/>
<stop offset="1" stop-color="#2AF6FF"/>
</linearGradient>
<linearGradient id="paint5_linear_1761_250" x1="116.407" y1="74.9136" x2="169.752" y2="105.915" gradientUnits="userSpaceOnUse">
<stop offset="0.0353535" stop-color="#9F19AB"/>
<stop offset="0.2438" stop-color="#AE25B1"/>
<stop offset="0.6455" stop-color="#D744BF"/>
<stop offset="1" stop-color="#FF63CE"/>
</linearGradient>
<linearGradient id="paint6_linear_1761_250" x1="162.813" y1="107.412" x2="202.323" y2="40.3491" gradientUnits="userSpaceOnUse">
<stop offset="0.0353535" stop-color="#9F19AB"/>
<stop offset="0.2438" stop-color="#AE25B1"/>
<stop offset="0.6455" stop-color="#D744BF"/>
<stop offset="1" stop-color="#FF63CE"/>
</linearGradient>
<linearGradient id="paint7_linear_1761_250" x1="165.279" y1="132.049" x2="188.102" y2="155.304" gradientUnits="userSpaceOnUse">
<stop offset="0.0353535" stop-color="#9F19AB"/>
<stop offset="0.2438" stop-color="#AE25B1"/>
<stop offset="0.6455" stop-color="#D744BF"/>
<stop offset="1" stop-color="#FF63CE"/>
</linearGradient>
<linearGradient id="paint8_linear_1761_250" x1="176.536" y1="105.501" x2="229.882" y2="136.503" gradientUnits="userSpaceOnUse">
<stop offset="0.0353535" stop-color="#9F19AB"/>
<stop offset="0.2438" stop-color="#AE25B1"/>
<stop offset="0.6455" stop-color="#D744BF"/>
<stop offset="1" stop-color="#FF63CE"/>
</linearGradient>
<linearGradient id="paint9_linear_1761_250" x1="247.203" y1="73.842" x2="112.172" y2="137.854" gradientUnits="userSpaceOnUse">
<stop offset="0.0353535" stop-color="#9F19AB"/>
<stop offset="0.2438" stop-color="#AE25B1"/>
<stop offset="0.6455" stop-color="#D744BF"/>
<stop offset="1" stop-color="#FF63CE"/>
</linearGradient>
</defs>
</svg>
