<svg width="711" height="635" fill="none" xmlns="http://www.w3.org/2000/svg"><g clip-path="url(#a)"><path d="M566.67 549.025c8.335 4.717 8.335 12.478 0 17.195-8.336 4.717-21.92 4.717-30.256 0-8.335-4.717-8.335-12.478 0-17.195 8.336-4.717 21.92-4.717 30.256 0ZM253.466 442.05l-115.001 65.585c-3.705 2.13-9.725 2.13-13.584 0-3.705-2.13-3.705-5.63 0-7.761l115.001-65.584c3.704-2.131 9.725-2.131 13.584 0 3.859 2.13 3.859 5.63 0 7.76Zm88.913-50.672-60.819 34.694c-3.705 2.131-9.725 2.131-13.584 0-3.705-2.13-3.705-5.63 0-7.76l60.819-34.695c3.705-2.13 9.725-2.13 13.584 0 3.859 2.131 3.859 5.631 0 7.761Zm-54.799-3.196-115.001 65.585c-3.705 2.13-9.725 2.13-13.584 0-3.705-2.13-3.705-5.63 0-7.76l115.001-65.585c3.705-2.131 9.725-2.131 13.584 0 3.859 2.13 3.859 5.63 0 7.76Zm147.263-83.845-115.001 65.585c-3.705 2.131-9.725 2.131-13.584 0-3.705-2.13-3.705-5.63 0-7.76l115.001-65.585c3.705-2.131 9.725-2.131 13.584 0 3.705 2.282 3.705 5.63 0 7.76Zm66.068 31.195L385.91 401.117c-3.705 2.13-9.725 2.13-13.584 0-3.705-2.131-3.705-5.631 0-7.761l115.001-65.585c3.705-2.13 9.725-2.13 13.584 0 3.705 2.131 3.705 5.631 0 7.761Zm-217.19 123.713-33.651 19.173c-3.705 2.131-9.725 2.131-13.584 0-3.705-2.13-3.705-5.63 0-7.76l33.651-19.173c3.705-2.131 9.725-2.131 13.584 0 3.705 2.13 3.705 5.63 0 7.76Zm288.815-164.494-33.651 19.173c-3.705 2.13-9.725 2.13-13.584 0-3.705-2.13-3.705-5.63 0-7.761l33.651-19.173c3.705-2.13 9.725-2.13 13.584 0 3.705 2.131 3.705 5.63 0 7.761Zm-261.955 45.955-115.156 65.585c-3.705 2.13-9.725 2.13-13.584 0-3.705-2.131-3.705-5.631 0-7.761l115.001-65.585c3.705-2.13 9.725-2.13 13.584 0 3.859 2.283 3.859 5.63.155 7.761Zm71.624-40.781-33.651 19.173c-3.705 2.13-9.725 2.13-13.584 0-3.705-2.131-3.705-5.63 0-7.761l33.651-19.173c3.705-2.13 9.725-2.13 13.584 0 3.705 2.282 3.705 5.63 0 7.761Zm56.497 267.969-115.001 65.584c-3.705 2.131-9.725 2.131-13.584 0-3.705-2.13-3.705-5.63 0-7.76l115.001-65.585c3.705-2.13 9.725-2.13 13.584 0 3.705 2.13 3.705 5.63 0 7.761Zm88.913-50.673-60.819 34.695c-3.705 2.13-9.725 2.13-13.584 0-3.705-2.13-3.705-5.63 0-7.761l60.819-34.694c3.705-2.131 9.725-2.131 13.584 0 3.705 2.13 3.705 5.63 0 7.76Zm-54.799-3.195-115.001 65.585c-3.705 2.13-9.725 2.13-13.584 0-3.705-2.131-3.705-5.631 0-7.761l115.001-65.585c3.705-2.13 9.725-2.13 13.584 0 3.705 2.131 3.705 5.631 0 7.761Zm147.109-83.693-115.001 65.585c-3.705 2.13-9.725 2.13-13.584 0-3.705-2.131-3.705-5.63 0-7.761l115.001-65.584c3.705-2.131 9.725-2.131 13.584 0 3.859 2.13 3.859 5.63 0 7.76Zm66.222 31.043L571.146 526.96c-3.704 2.131-9.725 2.131-13.584 0-3.704-2.13-3.704-5.63 0-7.76l115.001-65.585c3.705-2.13 9.725-2.13 13.584 0 3.705 2.13 3.705 5.63 0 7.761Zm-217.19 123.713-33.651 19.173c-3.705 2.13-9.725 2.13-13.584 0-3.705-2.13-3.705-5.63 0-7.761l33.651-19.173c3.705-2.13 9.725-2.13 13.584 0 3.705 2.13 3.705 5.63 0 7.761Zm26.86-118.388-115.001 65.585c-3.705 2.131-9.725 2.131-13.584 0-3.705-2.13-3.705-5.63 0-7.76l115.001-65.585c3.704-2.131 9.725-2.131 13.584 0 3.705 2.13 3.705 5.63 0 7.76Zm71.625-40.933-33.652 19.173c-3.704 2.131-9.725 2.131-13.584 0-3.704-2.13-3.704-5.63 0-7.76l33.652-19.174c3.704-2.13 9.725-2.13 13.584 0 3.704 2.283 3.704 5.631 0 7.761Zm-207.62 55.542-115.001 65.584c-3.705 2.131-9.725 2.131-13.584 0-3.705-2.13-3.705-5.63 0-7.76l115.001-65.585c3.705-2.13 9.725-2.13 13.584 0 3.705 2.13 3.705 5.63 0 7.761Zm88.914-50.52-60.82 34.694c-3.704 2.13-9.725 2.13-13.584 0-3.704-2.13-3.704-5.63 0-7.761l60.82-34.694c3.704-2.13 9.725-2.13 13.584 0 3.704 2.13 3.704 5.63 0 7.761Zm-54.8-3.196-115.155 65.433c-3.705 2.13-9.725 2.13-13.584 0-3.705-2.131-3.705-5.631 0-7.761l115.001-65.585c3.705-2.13 9.725-2.13 13.584 0 3.859 2.283 3.859 5.783.154 7.913Zm147.109-83.845-115.001 65.585c-3.705 2.13-9.725 2.13-13.584 0-3.705-2.131-3.705-5.63 0-7.761l115.001-65.584c3.705-2.131 9.725-2.131 13.584 0 3.705 2.13 3.705 5.63 0 7.76Zm66.068 31.195-115.001 65.584c-3.705 2.131-9.725 2.131-13.584 0-3.705-2.13-3.705-5.63 0-7.76l115.001-65.585c3.705-2.13 9.725-2.13 13.584 0 3.705 2.13 3.705 5.63 0 7.761Zm-217.19 123.561-33.651 19.173c-3.705 2.13-9.725 2.13-13.584 0-3.705-2.13-3.705-5.63 0-7.761l33.651-19.173c3.705-2.13 9.725-2.13 13.584 0s3.859 5.63 0 7.761ZM678.738 334.01l-33.651 19.174c-3.705 2.13-9.725 2.13-13.584 0-3.705-2.131-3.705-5.631 0-7.761l33.651-19.173c3.705-2.131 9.725-2.131 13.584 0 3.705 2.282 3.705 5.63 0 7.76Z" fill="#0F4444"/><path d="m416.783 380.117-115.001 65.585c-3.705 2.13-9.725 2.13-13.585 0-3.704-2.13-3.704-5.63 0-7.76l115.002-65.585c3.704-2.131 9.724-2.131 13.584 0 3.704 2.13 3.704 5.63 0 7.76Zm71.624-40.781-33.651 19.173c-3.705 2.131-9.725 2.131-13.584 0-3.705-2.13-3.705-5.63 0-7.76l33.651-19.173c3.705-2.131 9.725-2.131 13.584 0 3.705 2.13 3.705 5.63 0 7.76ZM143.25 403.551 34.423 465.484c-3.55 1.978-9.262 1.978-12.812 0-3.55-1.978-3.55-5.326 0-7.304l108.827-61.933c3.55-1.978 9.261-1.978 12.812 0 3.55 1.979 3.55 5.326 0 7.304Zm83.974-47.933L169.8 388.335c-3.55 1.978-9.262 1.978-12.812 0-3.55-1.979-3.55-5.326 0-7.305l57.578-32.716c3.55-1.978 9.262-1.978 12.812 0 3.396 1.978 3.396 5.326-.154 7.304Zm-51.712-3.043L66.685 414.508c-3.55 1.978-9.261 1.978-12.812 0-3.55-1.979-3.55-5.326 0-7.305L162.7 345.271c3.55-1.978 9.262-1.978 12.812 0 3.55 2.13 3.55 5.326 0 7.304Zm139.082-79.28-108.827 61.933c-3.55 1.978-9.262 1.978-12.812 0-3.551-1.979-3.551-5.326 0-7.304l108.826-61.933c3.551-1.978 9.262-1.978 12.813 0 3.55 2.13 3.55 5.326 0 7.304Zm62.517 29.521-108.826 61.932c-3.551 1.979-9.262 1.979-12.813 0-3.55-1.978-3.55-5.325 0-7.304l108.827-61.932c3.55-1.979 9.262-1.979 12.812 0 3.55 1.978 3.55 5.326 0 7.304ZM171.807 419.833l-31.799 18.109c-3.55 1.978-9.262 1.978-12.812 0-3.55-1.979-3.55-5.326 0-7.305l31.799-18.108c3.55-1.978 9.262-1.978 12.812 0 3.551 1.979 3.551 5.174 0 7.304Zm273.07-155.668-31.799 18.108c-3.55 1.978-9.262 1.978-12.812 0-3.551-1.978-3.551-5.326 0-7.304l31.799-18.108c3.55-1.978 9.262-1.978 12.812 0 3.55 2.13 3.55 5.326 0 7.304Zm-247.754 43.52L88.296 369.77c-3.55 1.978-9.262 1.978-12.812 0-3.55-1.978-3.55-5.326 0-7.304l108.827-61.933c3.55-1.978 9.261-1.978 12.812 0 3.55 1.978 3.55 5.174 0 7.152Zm67.766-38.499-31.799 18.109c-3.551 1.978-9.262 1.978-12.812 0-3.551-1.979-3.551-5.326 0-7.305l31.798-18.108c3.551-1.978 9.262-1.978 12.813 0 3.55 1.979 3.55 5.326 0 7.304Z" fill="#0F4444"/><path d="M646.785 500.026 508.32 578.85c-17.134 9.739-45.074 9.739-62.208 0L114.693 390.313c-17.135-9.739-17.135-25.565 0-35.456l138.464-78.823c17.134-9.739 45.074-9.739 62.209 0l331.419 188.689c17.134 9.739 17.134 25.565 0 35.303Z" fill="#000" fill-opacity=".4"/><path d="M102.189 320.163c2.007 2.587 4.631 4.413 7.409 6.087l333.118 189.602c3.859 2.282 8.027 3.804 12.503 4.717 4.322.913 8.953 1.37 13.43 1.37 9.107 0 18.523-1.826 26.087-6.087l158.532-90.236c4.477-2.587 9.262-7 10.497-11.869.154-.761.308-1.674.308-2.587v23.282c0 6.391-5.094 11.565-10.805 14.76l-158.532 90.236c-3.859 2.13-8.027 3.804-12.503 4.717-12.812 2.739-28.249 1.674-39.517-4.717L109.598 349.836a32.655 32.655 0 0 1-4.167-2.739c-3.551-2.891-6.638-7.609-6.638-12.174v-23.586c0 3.044 1.389 6.239 3.396 8.826Z" fill="#A9A8C6"/><path d="M587.2 470.201c1.081-.608 1.853-.608 2.625-.304.771.304 1.235 1.217 1.235 2.587v1.674c0 2.434-1.698 5.478-3.86 6.695l-26.859 15.217c-1.08.609-2.007.609-2.778.304-.772-.456-1.235-1.217-1.235-2.434v-1.674c0-2.435 1.698-5.478 3.859-6.696l27.013-15.369Zm-59.43 33.477c3.705-3.804 7.255-2.282 7.255 1.674-.154 5.783-6.02 11.413-9.107 9.587-.463-.304-.772-.609-1.081-1.217-.463-.913-.617-1.979-.463-3.044.155-1.217.618-2.434 1.081-3.652.309-.456.617-.913.772-1.369a9.807 9.807 0 0 1 1.543-1.979Z" fill="#1C1A2A"/><path d="M108.672 318.641c2.779 3.196 4.94 4.109 14.51 9.587.155.152 324.628 184.885 326.326 185.646 5.557 2.587 12.349 3.956 19.295 3.956v3.956c-4.631 0-9.107-.456-13.429-1.369-4.477-.913-8.645-2.435-12.504-4.717L109.598 326.098c-2.778-1.522-5.402-3.5-7.409-6.087-2.007-2.587-3.242-5.63-3.396-8.826 0-.913 0-1.978.309-2.891 1.235-5.022 6.02-9.435 10.496-11.869l158.532-90.236c7.564-4.261 16.826-6.087 26.088-6.087v3.956c-3.396 0-6.792.305-10.188 1.065-6.792 1.37-10.188 3.5-15.282 6.544-5.249 3.043 11.731-6.848-59.43 33.781-11.578 6.543-23.155 13.391-34.732 19.934-11.578 6.543-23.309 13.087-34.887 19.782-4.785 2.739-9.57 5.63-14.51 8.369-5.711 3.196-10.96 5.935-13.584 8.065-6.329 4.565-7.872 11.109-2.933 17.043Zm79.806 64.976 2.779-1.521-29.329-16.587-2.624 1.522 29.174 16.586Z" fill="#E1DFEA"/><path d="M191.257 385.748v-3.652l-2.778 1.521v3.652l2.778-1.521Zm-2.779 1.521v-3.652l-29.174-16.586v3.652l29.174 16.586Z" fill="#7C7CA0"/><path d="M510.636 519.048c.617-.305 1.08-1.066 1.08-1.674 0-.609-.463-.913-1.08-.609-.618.304-1.081 1.065-1.081 1.674 0 .761.463.913 1.081.609Zm133.987-70.759c.927-.456 1.544-1.674 1.544-2.587v-7.456c0-.913-.772-1.37-1.544-.913-.926.456-1.543 1.674-1.543 2.587v7.456c-.155 1.065.617 1.37 1.543.913Zm-6.483 3.652c.927-.456 1.544-1.674 1.544-2.587v-7.456c0-.913-.772-1.37-1.544-.913-.926.456-1.543 1.674-1.543 2.587v7.456c0 1.065.771 1.37 1.543.913Zm-6.329 3.652c.926-.456 1.544-1.674 1.544-2.587v-7.456c0-.913-.772-1.37-1.544-.913-.926.456-1.543 1.674-1.543 2.587v7.456c0 .913.771 1.37 1.543.913Zm-6.329 3.652c.926-.456 1.544-1.674 1.544-2.587v-7.456c0-.913-.772-1.369-1.544-.913-.926.457-1.544 1.674-1.544 2.587v7.456c0 .913.618 1.37 1.544.913Zm-6.329 3.5c.926-.456 1.544-1.674 1.544-2.587v-7.456c0-.913-.772-1.37-1.544-.913-.926.456-1.543 1.674-1.543 2.587v7.456c-.155 1.065.617 1.522 1.543.913Zm-6.483 3.652c.926-.456 1.544-1.674 1.544-2.587v-7.456c0-.913-.772-1.37-1.544-.913-.926.456-1.544 1.674-1.544 2.587v7.456c0 1.065.772 1.522 1.544.913Z" fill="#1C1A2A"/><path d="M653.114 425.464 494.582 515.7c-7.564 4.26-16.826 6.239-26.088 6.086v-3.956c6.175 0 12.195-1.065 17.443-3.195 3.088-1.218 5.403-2.739 8.027-4.261 5.249-3.044-11.731 6.847 59.43-33.782 11.578-6.543 23.155-13.39 34.732-19.934 11.578-6.543 23.309-13.086 34.887-19.782 4.785-2.739 9.57-5.63 14.51-8.369 9.57-5.326 14.047-7.456 17.134-11.565 3.859-5.478 2.933-12.782-6.638-18.412-.308-.152-333.425-189.907-334.969-190.668-5.248-2.586-12.041-3.956-19.296-3.956v-3.956c4.631 0 9.108.456 13.43 1.369 4.477.913 8.644 2.435 12.504 4.717L652.65 395.639c2.779 1.521 5.403 3.5 7.41 6.086 2.007 2.587 3.396 5.935 3.396 9.131 0 .913-.154 1.673-.309 2.586-.772 5.174-5.557 9.587-10.033 12.022Z" fill="#E1DFEA"/><path d="M319.379 211.515c-3.859-2.131-6.02-3.5-6.175-3.5-5.248-2.587-12.04-3.957-19.295-3.957-3.396 0-6.792.305-10.188 1.065-6.792 1.37-10.188 3.5-15.282 6.544-4.785 2.891 9.57-5.478-45.846 26.021l-13.584 7.76c-11.577 6.543-23.155 13.391-34.732 19.934-3.242 1.826-6.329 3.652-9.571 5.326a2129.587 2129.587 0 0 0-25.315 14.304c-4.786 2.739-9.571 5.63-14.51 8.369-5.712 3.196-10.96 5.935-13.585 8.065-6.02 4.717-7.563 11.413-2.624 17.195 2.779 3.196 4.94 4.109 14.511 9.587l140.934 80.193c87.833 50.063 184.465 104.996 185.391 105.453 5.557 2.587 12.349 3.956 19.141 3.956 6.174 0 12.195-1.065 17.443-3.195 3.087-1.218 5.403-2.739 8.027-4.261 5.248-3.043-11.732 6.848 59.43-33.782 11.577-6.543 23.155-13.39 34.732-19.934 11.577-6.543 23.309-13.086 34.886-19.782 4.785-2.739 9.571-5.63 14.51-8.369 9.571-5.326 14.047-7.456 17.135-11.565 3.704-5.326 3.087-12.173-5.557-17.651-.309-.305-.772-.457-1.081-.609-.309-.152-283.258-161.299-328.795-187.167Z" fill="#E1DFEA"/><path d="M649.255 399.291c8.644 5.478 9.261 12.325 5.557 17.651-2.933 4.261-7.41 6.239-17.135 11.565-4.785 2.739-9.725 5.478-14.51 8.369-11.577 6.696-23.154 13.087-34.886 19.782-11.577 6.544-23.155 13.391-34.732 19.934-71.316 40.63-54.336 30.739-59.43 33.782-2.779 1.674-4.94 3.043-8.027 4.261-11.114 4.565-26.396 4.26-36.739-.761-1.543-.761-283.566-161.451-326.325-185.646-9.57-5.478-11.731-6.391-14.51-9.587-4.94-5.934-3.396-12.477 2.624-17.195 3.242-2.587 152.512-87.04 157.143-89.779 5.094-3.044 8.49-5.022 15.282-6.544 10.496-2.282 21.765-.76 29.483 2.892.309.152-8.644-5.022 336.205 191.276Z" fill="url(#b)"/><path d="M215.8 250.013c1.39-.761 3.705-.761 5.249 0l1.852 1.065-35.349 20.087c-1.389.76-3.705.76-5.248 0l-1.853-1.066 35.349-20.086Z" fill="#090000"/><path d="m220.895 246.361 2.47 1.37c1.389.761 1.389 2.13 0 2.891l-.464.304-1.852-1.065c-1.389-.761-3.705-.761-5.248 0l-35.35 20.086-.463-.304c-.772-.457-1.08-.913-1.08-1.522 0-.608.308-1.065 1.08-1.521l35.813-20.391c1.389-.609 3.704-.609 5.094.152Z" fill="#1A2738"/><path d="m251.768 287.751-72.243 41.086c-2.315 1.369-6.174 1.369-8.49 0-2.315-1.37-2.315-3.5 0-4.87l72.243-41.085c2.315-1.37 6.174-1.37 8.49 0 2.47 1.369 2.47 3.652 0 4.869Zm-4.786 22.217-50.477 28.76c-2.315 1.369-6.174 1.369-8.49 0-2.315-1.37-2.315-3.5 0-4.87l50.477-28.76c2.316-1.369 6.175-1.369 8.49 0 2.316 1.37 2.316 3.5 0 4.87Zm16.98 9.586-50.477 28.76c-2.315 1.37-6.174 1.37-8.49 0-2.315-1.369-2.315-3.5 0-4.869l50.477-28.76c2.316-1.37 6.175-1.37 8.49 0 2.316 1.369 2.316 3.5 0 4.869ZM362.909 356.836l-72.242 41.085c-2.315 1.37-6.175 1.37-8.49 0-2.315-1.369-2.315-3.5 0-4.869l72.242-41.086c2.316-1.369 6.175-1.369 8.49 0 2.316 1.37 2.316 3.652 0 4.87Zm-4.939 22.216-50.477 28.76c-2.316 1.37-6.175 1.37-8.49 0-2.316-1.369-2.316-3.5 0-4.869l50.477-28.76c2.315-1.37 6.174-1.37 8.49 0 2.315 1.369 2.315 3.5 0 4.869Zm16.98 9.587-50.477 28.76c-2.316 1.369-6.175 1.369-8.49 0-2.316-1.37-2.316-3.5 0-4.87l50.477-28.76c2.315-1.369 6.174-1.369 8.49 0 2.315 1.37 2.315 3.5 0 4.87ZM510.79 337.054l-72.242 41.085c-2.316 1.37-6.175 1.37-8.49 0-2.316-1.369-2.316-3.5 0-4.869l72.242-41.086c2.316-1.369 6.175-1.369 8.49 0 2.316 1.37 2.316 3.5 0 4.87Zm-4.939 22.064-50.477 28.76c-2.316 1.37-6.175 1.37-8.49 0-2.316-1.37-2.316-3.5 0-4.869l50.477-28.76c2.315-1.37 6.174-1.37 8.49 0 2.315 1.369 2.315 3.652 0 4.869Zm16.98 9.739-50.477 28.76c-2.316 1.369-6.175 1.369-8.49 0-2.316-1.37-2.316-3.5 0-4.87l50.477-28.759c2.315-1.37 6.174-1.37 8.49 0 2.315 1.369 2.315 3.499 0 4.869ZM495.199 428.507l-72.242 41.086c-2.315 1.369-6.174 1.369-8.49 0-2.315-1.37-2.315-3.5 0-4.87l72.242-41.085c2.316-1.37 6.175-1.37 8.49 0 2.316 1.369 2.316 3.652 0 4.869Zm-4.785 22.217-50.477 28.607c-2.315 1.37-6.174 1.37-8.49 0-2.315-1.369-2.315-3.499 0-4.869l50.477-28.76c2.316-1.369 6.175-1.369 8.49 0 2.316 1.522 2.316 3.652 0 5.022Zm16.98 9.586-50.477 28.76c-2.315 1.37-6.175 1.37-8.49 0-2.315-1.369-2.315-3.5 0-4.869l50.477-28.76c2.315-1.37 6.175-1.37 8.49 0 2.315 1.369 2.315 3.5 0 4.869Z" opacity=".27" fill="#fff"/><path opacity=".27" d="m392.702 267.513-72.242 41.085c-2.316 1.37-6.175 1.37-8.49 0-2.316-1.369-2.316-3.5 0-4.869l72.242-41.086c2.315-1.369 6.174-1.369 8.49 0 2.315 1.37 2.315 3.5 0 4.87Zm-4.786 22.064-50.477 28.76c-2.315 1.369-6.174 1.369-8.49 0-2.315-1.37-2.315-3.5 0-4.869l50.477-28.76c2.316-1.37 6.175-1.37 8.49 0 2.316 1.369 2.316 3.5 0 4.869Zm16.98 9.739-50.477 28.76c-2.315 1.369-6.174 1.369-8.49 0-2.315-1.37-2.315-3.5 0-4.87l50.477-28.759c2.316-1.37 6.175-1.37 8.49 0 2.316 1.369 2.316 3.499 0 4.869Z" fill="#717F90"/><path d="M177.518 103.323v39.563c0 13.848-9.879 30.739-21.919 37.586-1.698.913-3.396 1.978-5.094 2.891l-12.195 29.065-12.195-15.065c-1.698.913-3.396 1.978-5.094 2.891-.463.304-.926.609-1.543.761-5.557 2.739-10.497 2.891-14.047.761-.155 0-.155-.152-.309-.152-3.859-2.283-6.175-7.152-6.175-13.848v-39.564c0-13.847 9.88-30.738 22.074-37.585 11.578-6.544 23.155-13.239 34.732-19.782 6.02-3.348 11.423-3.805 15.282-1.674 0 0 .155.152.309.152 3.705 2.13 6.174 7 6.174 14Z" fill="#1F825E"/><path d="M87.524 191.58c-4.013-2.282-6.483-7.152-6.483-13.999v-39.564c0-13.847 9.88-30.738 21.92-37.586 11.577-6.543 23.154-13.238 34.732-19.782 6.02-3.5 11.577-3.804 15.59-1.521l17.598 10.043c-4.014-2.13-9.416-1.674-15.282 1.674-11.578 6.543-23.155 13.238-34.732 19.782-12.195 6.847-22.074 23.586-22.074 37.433v39.564c0 6.695 2.315 11.565 6.174 13.847-5.865-3.347-11.577-6.695-17.443-9.891Z" fill="#36CF98"/><path d="m125.961 197.211 12.195 15.064-17.752-10.195-.926-1.217c.463-.305.926-.457 1.543-.761 1.544-.913 3.242-1.826 4.94-2.891Z" fill="#1F825E"/><path d="M150.556 130.788c-4.631-4.109-13.738-.913-20.376 7.304-6.637 8.065-8.181 18.108-3.396 22.216 4.014 3.5 11.423 1.522 17.598-4.26l8.49 7.456c.926.913 2.933.152 4.322-1.674 1.389-1.826 1.852-3.804.772-4.717l-8.49-7.456c4.476-7.457 5.248-15.369 1.08-18.869Zm-5.402 20.39c-4.94 6.239-11.886 8.674-15.437 5.478-3.55-3.043-2.315-10.651 2.624-16.89 4.94-6.239 11.886-8.674 15.437-5.478 3.55 3.195 2.315 10.651-2.624 16.89Z" fill="#FBFAFC"/><path d="m99.719 252.904 1.852 2.739c.155.153.463.305.772.153l4.322-1.826c.927-.305 1.235.456.618 1.521l-3.087 4.717c-.309.457-.309.761-.309 1.066l.772 3.804c.154.761-.772 1.978-1.544 1.978l-3.86.152c-.308 0-.617.305-1.08.609l-3.859 4.108c-.772.913-1.698.761-1.543-.304l.771-4.565c0-.304 0-.609-.308-.761l-3.088-1.217c-.617-.304-.308-1.522.618-2.13l4.322-3.044c.309-.304.618-.609.772-1.065l1.852-4.869c.463-1.066 1.698-1.674 2.007-1.066Zm21.919-12.477 1.853 2.739c.154.152.463.304.772.152l4.322-1.826c.926-.305 1.235.456.617 1.521l-3.087 4.718c-.309.456-.309.76-.309 1.065l.772 3.804c.154.761-.772 1.978-1.544 1.978l-3.859.152c-.308 0-.617.305-1.08.609l-3.859 4.109c-.772.913-1.698.76-1.544-.305l.772-4.565c0-.304 0-.608-.309-.761l-3.087-1.217c-.618-.304-.309-1.522.617-2.13l4.322-3.044c.309-.304.618-.608.772-1.065l1.853-4.869c.463-.913 1.543-1.522 2.006-1.065Zm21.766-12.326 1.852 2.739c.155.152.463.304.772.152l4.322-1.826c.927-.304 1.235.457.618 1.522l-3.087 4.717c-.309.456-.309.761-.309 1.065l.772 3.804c.154.761-.772 1.979-1.544 1.979l-3.859.152c-.309 0-.618.304-1.081.608l-3.859 4.109c-.772.913-1.698.761-1.543-.304l.771-4.565c0-.457 0-.609-.308-.761l-3.088-1.218c-.617-.304-.308-1.521.618-2.13l4.322-3.043c.309-.305.618-.609.772-1.066l1.852-4.869c.463-1.065 1.544-1.674 2.007-1.065Zm21.765-12.478 1.853 2.739c.154.152.463.304.771.152l4.323-1.826c.926-.304 1.234.457.617 1.522l-3.087 4.717c-.309.457-.309.761-.309 1.065l.772 3.805c.154.76-.772 1.978-1.544 1.978l-3.859.152c-.309 0-.617.304-1.08.609l-3.86 4.108c-.771.913-1.698.761-1.543-.304l.772-4.565c0-.305 0-.609-.309-.761l-3.087-1.217c-.618-.305-.309-1.522.617-2.131l4.322-3.043c.309-.305.618-.609.772-1.065l1.852-4.87c.463-.913 1.544-1.521 2.007-1.065Zm21.766-12.326 1.852 2.739c.155.153.463.305.772.153l4.322-1.826c.926-.305 1.235.456.618 1.521l-3.088 4.717c-.308.457-.308.761-.308 1.066l.771 3.804c.155.761-.771 1.978-1.543 1.978l-3.859.152c-.309 0-.618.305-1.081.609l-3.859 4.108c-.772.914-1.698.761-1.544-.304l.772-4.565c0-.304 0-.609-.309-.761l-3.087-1.217c-.617-.304-.309-1.522.618-2.13l4.322-3.044c.309-.304.617-.609.772-1.065l1.852-4.869c.463-1.066 1.544-1.674 2.007-1.066ZM420.024 36.216v32.716c0 11.413 8.182 25.413 18.215 31.043 1.39.761 2.779 1.674 4.323 2.435l10.033 24.042 10.034-12.478c1.389.761 2.778 1.674 4.322 2.435.463.304.772.457 1.235.609 4.476 2.282 8.644 2.282 11.577.608.155 0 .155-.152.309-.152 3.087-1.978 5.094-5.934 5.094-11.412V73.345c0-11.412-8.181-25.412-18.215-31.042-9.571-5.478-19.141-10.956-28.712-16.282-4.939-2.74-9.416-3.196-12.657-1.37 0 0-.155 0-.155.152-3.241 1.674-5.403 5.63-5.403 11.413Z" fill="#36CF98"/><path d="M494.582 109.105c3.242-1.826 5.403-5.935 5.403-11.565V64.824c0-11.413-8.181-25.412-18.215-31.042-9.571-5.479-19.141-10.957-28.712-16.283-5.094-2.89-9.57-3.195-12.812-1.217-4.94 2.74-9.725 5.478-14.51 8.37 3.241-1.827 7.718-1.37 12.658 1.369 9.57 5.478 19.141 10.956 28.711 16.282 10.034 5.782 18.215 19.63 18.215 31.042v32.717c0 5.63-2.006 9.586-5.094 11.412 4.631-2.891 9.571-5.63 14.356-8.369Zm-31.799 4.717L452.75 126.3l14.818-8.369.772-1.065c-.463-.153-.772-.457-1.235-.609-1.543-.761-2.933-1.522-4.322-2.435Z" fill="#1F825E"/><path d="M450.28 58.28c-.309-.151-.618-.304-.772-.151l-.772.304-4.631-2.587c-1.852-1.065-3.242-.609-3.55 1.065l-.463 2.587 2.47 1.37.308-2.283c.155-.456.618-.609 1.235-.304l5.094 2.89c.309.153.618.305.772.153l.772-.456 3.859 2.13.772 1.37c.154.304.463.608.772.76l5.094 2.891c.617.305 1.08 1.066 1.234 1.674l.309 2.74 2.47 1.369-.463-3.044c-.309-1.826-1.852-4.108-3.55-5.021l-4.631-2.587-.772-1.37a1.85 1.85 0 0 0-.772-.76l-4.785-2.74Zm-12.041 2.587c-.617-.304-1.235-.152-1.235.457v2.435c0 .608.463 1.521 1.235 1.826l.155.152 1.852 12.021c.154 1.218 1.235 2.587 2.316 3.348l19.912 11.26c1.235.61 2.162.457 2.316-.608l1.852-9.891.155.152c.617.304 1.235.152 1.235-.457v-2.434c0-.609-.464-1.522-1.235-1.826l-28.558-16.435Zm20.376 17.5c.618.304 1.235 1.217 1.235 1.826v5.934c0 .61-.463.913-1.235.457-.617-.304-1.235-1.217-1.235-1.826v-5.935c0-.608.618-.913 1.235-.456Zm-6.02-3.5c.618.304 1.235 1.217 1.235 1.826v5.935c0 .608-.463.913-1.235.456-.617-.304-1.235-1.217-1.235-1.826v-5.934c0-.61.618-.761 1.235-.457Zm-6.02-3.348c.617.305 1.235 1.218 1.235 1.826v5.935c0 .609-.463.913-1.235.456-.618-.304-1.235-1.217-1.235-1.826v-5.934c.154-.609.617-.761 1.235-.457Z" fill="#FBFAFC"/><path d="m521.596 399.291-76.256 43.368c-7.564 4.26-19.759 4.26-27.323 0l-140.162-79.737c-7.564-4.26-7.564-11.26 0-15.521l76.256-43.368c7.564-4.261 19.758-4.261 27.322 0l140.163 79.736c7.563 4.261 7.563 11.261 0 15.522Zm22.691 41.39c-1.852-3.196-6.792-5.326-10.497-6.087-4.785-.913-9.57-.152-12.966 1.826-2.624 1.521-4.014 3.195-4.014 5.174v2.282c0 2.587 2.624 4.717 4.94 5.935 3.242 1.826 8.027 3.043 12.812 2.282 3.55-.456 8.181-2.282 9.725-5.478.309-.609.463-1.217.463-1.826v-2.282c.154-.305 0-1.066-.463-1.826Zm-10.805-8.674 19.449 11.108 2.316-1.369v-2.283l-4.785-2.739 11.268 1.37 2.933-1.674v-2.283l-14.665-1.674c.155-4.565.155-3.195.155-6.086l-3.087 1.826v6.391l-11.115-6.239-2.315 1.369v2.283h-.154Zm40.443 24.043c-14.047 9.13-35.658 10.651-52.175 6.391-8.027-2.131-16.98-6.087-22.074-12.478-5.557-7-5.248-14.761 0-21.304 12.812-15.978 50.014-19.934 72.242-7.456 3.396 1.978 6.638 4.261 8.953 7.304 7.718 9.891 3.705 20.543-6.946 27.543Z" fill="#000" fill-opacity=".2"/><path d="M485.783 436.724c2.47 3.044 5.557 5.478 8.953 7.304 15.282 8.674 37.819 9.587 54.645 3.804 6.483-2.282 13.275-5.934 17.443-11.108 2.47-3.043 4.014-6.543 4.014-10.652v11.413c0 9.282-8.49 16.13-16.98 19.934-16.209 7.304-39.209 7.304-55.417 0-8.49-3.804-16.98-10.652-16.98-19.934v-11.413c.154 3.957 1.852 7.609 4.322 10.652Z" fill="#B4AAD1"/><path d="M550.77 420.899v2.282l-2.933 1.674v-2.283l2.933-1.673Z" fill="#18A48F"/><path d="M547.838 422.573v2.282l-11.269-1.37-.617-.456v-1.826l11.886 1.37Zm-6.484 3.652v2.282l-2.315 1.37v-2.283l2.315-1.369Z" fill="#18A48F"/><path d="M539.039 427.594v2.283l-19.45-11.109v-2.282l19.45 11.108Z" fill="#18A48F"/><path d="m541.354 426.225-2.315 1.369-19.45-11.108 2.315-1.37 11.114 6.239v-6.391l3.088-1.826-.155 6.087c1.235.152-4.167-.457 14.819 1.674l-2.933 1.674-11.886-1.522v1.826c0 .304.309.456 5.403 3.348Z" fill="#1EEBCD"/><path d="M530.394 427.442c-1.852-3.196-6.792-5.326-10.497-6.087-4.785-.913-9.57-.152-12.966 1.826-2.624 1.522-4.014 3.196-4.014 5.174v2.282c0 2.587 2.624 4.718 4.94 5.935 3.242 1.826 8.027 3.043 12.812 2.282 3.551-.456 8.181-2.282 9.725-5.478.309-.608.463-1.217.463-1.826v-2.282c.155-.304 0-1.065-.463-1.826Zm-10.805-8.674 19.449 11.109 2.316-1.37v-2.282l-4.785-2.74 11.268 1.37 2.933-1.674v-2.282l-14.664-1.674c.154-4.565.154-3.196.154-6.087l-3.087 1.826v6.391l-11.115-6.239-2.315 1.37v2.282h-.154Zm40.289 24.043c-14.048 9.13-35.658 10.652-52.175 6.391-8.027-2.13-16.98-6.087-22.074-12.478-5.558-7-5.249-14.76 0-21.303 12.812-15.978 50.013-19.935 72.242-7.457 3.396 1.978 6.638 4.261 8.953 7.304 7.873 9.891 3.859 20.391-6.946 27.543Z" fill="#ECE7F2"/><path d="M527.616 430.029c.154-2.131-2.161-3.652-3.859-4.718-5.249-3.043-10.96-2.739-14.511-.76-1.852 1.065-2.778 2.282-2.778 3.804-.154 1.978 2.624 3.652 4.322 4.717 4.94 2.739 10.497 2.587 14.202.457 1.234-.761 2.469-1.826 2.624-3.5Zm3.396-.457c0 2.131-2.007 4.109-4.014 5.174-5.557 3.196-13.584 2.891-19.141-.304-2.315-1.37-4.94-3.348-4.94-5.935 0-1.978 1.39-3.652 4.014-5.174 5.403-3.043 13.121-3.043 19.295.457 2.316 1.217 4.786 3.348 4.786 5.782Z" fill="#1EEBCD"/><path d="M523.602 427.594c2.007 1.217 3.242 2.283 3.705 3.5-1.235 3.348-9.416 6.239-16.672 1.978-2.161-1.217-3.55-2.435-4.013-3.652 1.235-3.348 9.262-6.391 16.98-1.826Z" fill="#ECE7F2"/><path d="M527.616 429.724c0 .457 0 .913-.155 1.37-.463-1.217-1.698-2.283-3.704-3.5-7.719-4.413-15.746-1.522-17.135 1.978-.154-.304-.309-.761-.309-1.065 0-1.522.927-2.739 2.779-3.804 3.55-1.978 9.262-2.283 14.51.761 2.624 1.217 3.859 2.739 4.014 4.26Z" fill="#18A48F"/><path d="M508.012 434.594c5.402 3.043 13.429 3.5 19.141.304 2.006-1.065 4.013-3.043 4.013-5.174v2.283c0 .609-.154 1.217-.463 1.826-1.544 3.196-6.175 4.869-9.725 5.478-4.785.609-9.57-.456-12.812-2.282-2.316-1.37-4.94-3.348-4.94-5.935v-2.283c-.308 2.435 2.47 4.413 4.786 5.783Z" fill="#18A48F"/><path d="m376.957 272.23 43.994-26.325-4.94-2.131-44.611 25.412 5.557 3.044Zm-24.698-14.913 44.148-26.325-5.094-2.13-44.611 25.412 5.557 3.043Z" fill="#E1DFEA"/><path d="m313.05 209.993 3.551 25.869 22.228-11.109-25.779-14.76Zm-9.879-88.41v72.432c2.007 1.065 44.302 25.108 44.302 25.108l16.517-8.826 1.235-72.128V86.28l-62.054 35.303Z" fill="#1F825E"/><path d="M300.238 23.282c6.638 4.717 12.503 13.39 14.51 22.064 2.779 11.413 5.712 22.826 8.49 34.086l6.947-3.956a371840.25 371840.25 0 0 1-7.873-31.956c-2.47-10.195-9.262-20.543-17.443-26.477-4.477-3.196-8.799-6.391-13.275-9.587-11.578-8.521-31.182-10.043-43.222-3.043-9.88 5.63-19.913 11.26-29.792 17.043-9.88 5.63-19.913 11.26-29.793 17.043-6.174 3.347-10.496 9.282-10.033 16.13.308 6.239 4.476 11.717 9.57 15.369 4.477 3.195 8.799 6.39 13.276 9.586 6.483 4.718 12.349 13.391 14.51 22.065 3.55 14.456 7.1 28.912 10.805 43.368h.309c.926 0 2.315.304 3.242.456 1.234.305 2.315.609 2.932.457.927-.305 1.235-1.826 1.081-2.891-.154-.761-.309-1.522-.617-2.283-3.396-13.695-6.792-27.238-10.188-40.933-2.47-10.196-9.262-20.543-17.444-26.478-4.476-3.195-8.798-6.39-13.275-9.586-3.859-2.74-7.255-7-6.174-11.565.617-3.044 3.241-5.63 6.02-7.152 9.879-5.63 19.913-11.26 29.792-17.043 9.879-5.63 19.913-11.26 29.792-17.043 9.108-5.326 25.316-4.26 34.732 2.587 4.322 3.348 8.799 6.543 13.121 9.739Zm-46.464 116.105c-1.543.913-3.087 1.826-4.63 2.586.926 7.609 1.852 15.217 2.624 22.674 1.698 1.065 3.55 1.978 5.248 3.043a8050.238 8050.238 0 0 1-3.242-28.303Zm9.108 75.475c-1.852-1.065-3.705-2.13-5.403-3.043 1.081 4.413 3.551 8.673 6.638 11.869-.463-3.043-.926-5.935-1.235-8.826Zm13.275-53.867c-5.248 2.891-10.342 5.934-15.591 8.825 2.933 1.674 6.021 3.348 8.954 5.174a352.63 352.63 0 0 0 6.637-3.804v-10.195Zm-15.436 38.498c-.772-5.934-1.698-12.021-2.47-17.956-1.389.761-2.933 1.674-4.322 2.435.617 5.63 1.389 11.108 2.006 16.739 1.853 1.065 3.551 1.978 5.403 3.043-.154-1.522-.309-2.891-.617-4.261Z" fill="#E1DFEA"/><path d="M270.909 237.84c.154.913.463 1.978 1.08 2.587.927.913 2.47.76 3.859.152 6.947-3.804 5.094-2.739 8.49-4.717-4.939-2.74-9.879-5.631-14.818-8.37.463 3.348.926 6.848 1.389 10.348Zm38.128 6.543v.609l4.168 2.282c.308 1.826.463 3.5.771 5.326a2031.654 2031.654 0 0 0-24.698-13.999l-5.557 3.195c-1.235.913-6.329 3.5-7.873 3.804-.308 0-.617.152-.926.152-4.785.609-8.335-2.434-8.953-7.456-.617-5.021-1.389-9.891-2.007-14.912-.463-2.892-.771-5.783-1.234-8.674 1.852 1.065 3.55 1.978 5.402 3.043.155 1.066.309 2.131.463 3.348.618.457 1.081.913 1.698 1.218a1179.412 1179.412 0 0 0 18.833 10.651c.926-.608 1.852-1.065 2.933-1.674 1.698.913 3.241 1.826 4.939 2.74-.926.608-1.852 1.065-2.933 1.673 5.094 3.044 10.034 5.783 14.974 8.674Zm-46.001-34.999c.927.304 2.316-.304 3.088-.913.463-.304.771-.609.771-1.065 0-.152 0-.457-.154-.609-1.08-8.369-2.315-16.738-3.396-25.108-1.852-1.065-3.55-1.978-5.403-3.043.155.913.309 1.826.309 2.891.772 5.935 1.698 12.022 2.47 17.956.154 1.37.309 2.891.617 4.261.155 1.369.463 2.891.618 4.261v.152c.154.456.463 1.065 1.08 1.217Z" fill="#E1DFEA"/><path d="M276.157 188.994v23.281c8.953 5.174 17.906 10.196 27.014 15.369v-23.281c-8.953-5.174-17.906-10.348-27.014-15.369Zm0-17.652v7.456c8.953 5.174 17.906 10.196 27.014 15.369v-72.584l-27.014-15.369v65.128Z" fill="#36CF98"/><path d="m276.157 106.214 27.014 15.369 62.054-35.303-26.859-15.37-8.027 4.566-7.101 3.956-47.081 26.782Z" fill="#36CF98"/><path d="m279.245 106.214 59.121-33.477 23.772 13.543-58.967 33.477-23.926-13.543Z" fill="#36CF98"/><path d="M284.338 362.77c2.007-1.065 4.014-2.282 5.866-3.348.926-.456 1.698-1.369 2.161-2.282 1.544-2.587 1.39-6.239.618-9.13-2.161-1.218-4.322-2.435-6.638-3.804l.154 5.782c2.007 6.391.772 10.956-2.161 12.782Z" fill="#1A293B"/><path d="M264.734 342.684c0 6.848 4.631 15.217 10.651 19.021 3.551 2.283 6.792 2.435 8.954 1.065 2.932-1.826 4.167-6.391 2.315-12.63l.154 4.717-.926.609-20.376-11.565-.154-5.173c-.463 1.217-.618 2.586-.618 3.956Z" fill="#3F4F5D"/><path d="M287.889 337.967c.772-.913 2.161-1.826 3.241-1.826.309 0 .618.152.927.304-6.792-3.804-13.584-7.761-20.376-11.565-.618-.304-1.544-.304-2.161 0-.155 0-.309.152-.464.152-2.006 1.066-4.013 4.109-4.013 6.696v.456l.154 6.391.155 5.174 20.376 11.565-.155-12.021c0-1.826 1.081-3.957 2.316-5.326Z" fill="#1F825E"/><path d="M291.285 336.141c-1.235 0-2.47.913-3.242 1.826-1.234 1.369-2.315 3.5-2.315 5.478l.154 12.021.927-.609-.155-4.717-.154-5.782v-2.283c.154-.608.154-.913.463-1.674.617-1.369 1.698-2.739 3.087-3.195.926-.305 1.389 0 1.544 0 .617.304 1.08.608 1.698.913 0-.609-.309-1.065-.618-1.522l-.463-.456c-.308.152-.617 0-.926 0Z" fill="#9B346C"/><path d="M303.171 204.363v23.281c2.007 1.066 3.859 2.283 5.866 3.348v-13.999c-.463-3.348-.926-6.544-1.39-9.891-1.389-1.066-2.932-1.979-4.476-2.739Zm5.866 12.477v14c.617.456 1.389.761 2.006 1.217-.617-5.021-1.235-10.195-2.006-15.217Zm34.886 76.998v5.326l20.376 11.565v-12.174c-1.853-1.217-3.087-3.348-2.933-6.239v-6.239c-3.55-1.978-7.101-4.108-10.806-6.087-.617-.304-1.543-.304-2.161 0-.154 0-.308.153-.463.153-2.006.913-4.013 4.108-4.013 6.695v7Z" fill="#1F825E"/><path d="M321.849 268.73c1.235 1.217 3.396.456 4.94-.304 2.315-1.37 5.248-2.892 7.409-4.261-4.939-2.739-9.879-5.63-14.819-8.369.463 3.499.927 6.847 1.39 10.347 0 .913.308 1.978 1.08 2.587Zm22.692-4.261c5.557 3.196 11.268 6.391 16.825 9.587v5.63c-7.409-4.261-14.819-8.521-22.228-12.63-3.242 1.826-6.638 3.804-9.879 5.63-6.484 3.805-12.504.761-13.276-5.782-.617-4.717-1.235-9.435-1.852-14-.309-1.826-.463-3.5-.772-5.326-.154-1.369-.309-2.891-.617-4.26 1.852 1.065 3.55 1.978 5.402 3.043.155 1.37.309 2.891.618 4.261l25.316 14.456.463-.609Z" fill="#E1DFEA"/><path d="M368.776 314.837c.926-.456 1.543-1.217 2.006-2.13 1.698-2.587 1.39-6.544.772-9.435-2.161-1.217-4.322-2.434-6.329-3.652v5.935c1.853 6.239.618 10.956-2.47 12.63 2.007-1.065 4.014-2.283 6.021-3.348Z" fill="#1A293B"/><path d="m365.225 299.012-.926-.457v12.174l.926-.457v-11.26Z" fill="#9B346C"/><path d="m365.225 310.272-.926.456-20.376-11.564v-5.326c-.463 1.217-.772 2.739-.772 4.108 0 6.848 4.631 15.217 10.651 19.021 3.551 2.283 6.638 2.435 8.799 1.218 3.087-1.674 4.322-6.391 2.47-12.63v4.717h.154Z" fill="#3F4F5D"/><path d="m370.937 291.707-4.631-2.739v3.5c0 .305 0 .609.154 1.065.772-.913 1.698-1.673 2.779-1.978.463-.152 1.08-.152 1.698.152Z" fill="#1F825E"/><path d="M370.474 292.62c-.463-.304-.926-.304-1.39-.152-.926.305-1.852.913-2.315 1.674l.154.152c.155.152.309.305.772.305 1.081.152 2.47-.609 3.551-1.066.154-.152.308-.152.463-.304-.618-.152-.927-.304-1.235-.609Zm-.155 99.062c0-2.587 2.007-5.782 4.013-6.695.155 0 .309-.152.464-.152-27.168-15.522-54.336-30.891-81.35-46.412-.618-.304-1.081-.608-1.698-.913-.309-.152-.618-.304-1.544 0-1.389.457-2.47 1.978-3.087 3.196-.309.608-.309.913-.463 1.674v2.282a352.63 352.63 0 0 1 6.637 3.804c25.779 14.609 51.558 29.369 77.337 43.977l-.309-.761Z" fill="#E1DFEA"/><path d="M361.212 292.316v-21.608c1.698.913 3.242 1.826 4.94 2.739v3.196c5.711 3.195 11.422 6.543 17.134 9.739.926-.609 1.852-1.066 2.933-1.674 1.852.913 3.859 1.674 6.02 2.13-1.389.761-2.624 1.522-4.013 2.283 7.255 4.108 14.664 8.369 21.919 12.477 1.544.913 3.705 1.522 4.94.305.617-.609.926-1.674 1.08-2.587.309-2.891.772-5.63 1.235-8.522.463-3.804 1.081-7.608 1.544-11.412 1.852-1.065 3.55-1.978 5.403-3.044-.618 4.718-1.235 9.435-1.853 14-.463 3.195-.926 6.391-1.235 9.587-.926 6.695-6.946 9.434-13.275 5.782-8.181-4.565-16.208-9.282-24.389-13.847-2.316 1.369-4.631 2.586-6.947 3.956-.926.609-2.006 1.065-2.933 1.674-3.241 1.826-6.02 2.13-8.181 1.217l-.926-.456c-2.161-.761-3.396-3.044-3.396-5.935Zm10.651.761 6.483-3.652c-4.013-2.283-8.181-4.565-12.194-7v10.043c0 .305 0 .609.154 1.065 0 .305.154.457.309.609l.154.152c.154.152.309.305.772.305 1.08.152 2.47-.609 3.55-1.066.155-.152.309-.152.463-.304 0 0 .155-.152.309-.152Z" fill="#E1DFEA"/><path d="M366.614 294.142c.618-.761 1.39-1.522 2.316-1.674.463-.152 1.08-.152 1.389.152.309.153.772.457 1.081.609.154-.152.308-.152.463-.304-.155-.609-.463-1.065-.926-1.37-.464-.304-1.081-.304-1.699-.152-1.08.304-2.161 1.217-2.778 1.978-.154.457 0 .609.154.761Z" fill="#9B346C"/><path d="M374.487 111.235c-.926 7.761-6.329 59.803-7.255 67.563l4.477 2.739c.617-5.934 6.792-61.78 7.409-67.715-1.544-.913-3.087-1.826-4.631-2.587Z" fill="#E1DFEA"/><path d="M389.769 423.029c2.007-1.217 4.013-2.283 6.02-3.5 2.47-1.369 3.396-4.413 3.396-7.304 0-2.283-.463-4.413-1.235-6.543a20.176 20.176 0 0 1-6.329-1.522l.155 4.717c.772 2.131 1.389 4.718 1.389 7 0 3.652-1.389 5.935-3.396 7.152Z" fill="#1A293B"/><path d="M370.473 400.356c-1.389 7.456 4.323 18.26 11.732 22.217 1.389.76 2.779 1.217 4.322 1.217 1.081 0 2.161-.304 3.088-.761 2.006-1.065 3.396-3.5 3.396-7.304 0-2.283-.618-4.869-1.39-7l.155 5.935-.927.608-20.376-11.564v-3.348Z" fill="#3F4F5D"/><path d="M391.622 404.16c2.161.913 4.322 1.522 6.328 1.522 7.873.456 13.893-5.63 13.739-15.369v-.609c0-9.587-5.712-20.695-13.121-27.086-34.886-30.586-69.927-61.172-104.813-91.606-6.175-5.325-10.188-14.151-10.188-20.542v-8.674c-1.235.913-6.329 3.5-7.873 3.804-.308 0-.617.152-.926.152v4.718c0 8.978 5.094 20.086 13.121 27.086 34.886 30.586 69.927 61.172 104.813 91.605 6.02 5.174 10.188 14 10.188 20.543v.609c0 2.587-.617 5.934-3.242 6.543-.463.152-1.08.152-1.698.152-.617 0-1.389-.304-1.852-.456-2.47 1.065-4.013 2.891-4.476 5.021-.155.305-.155.761-.155 1.065l.155 1.522Z" fill="#E1DFEA"/><path d="M398.105 397.008a1.851 1.851 0 0 0-.772-.761c-.154 0-.154-.152-.309-.152-.617-.152-1.389 0-2.007.152-1.08.457-1.852 1.37-2.624 2.283-.926 1.369-1.698 3.043-1.698 4.717l.155 12.021.926-.608-.155-5.935-.154-4.717v-1.37c0-.304 0-.76.154-1.065.464-2.13 2.007-3.956 4.477-5.021.772.304 1.389.456 2.007.456Z" fill="#9B346C"/><path d="M397.024 396.095c.155 0 .309.152.309.152-6.792-3.804-13.584-7.76-20.376-11.565-.617-.304-1.544-.304-2.161 0-.154 0-.309.153-.463.153-2.007 1.065-4.014 4.108-4.014 6.695v.457l.155 8.217v3.347l20.376 11.565-.155-12.021c0-1.674.772-3.348 1.698-4.717.618-.913 1.544-1.826 2.625-2.283.617 0 1.389-.304 2.006 0Z" fill="#1F825E"/><path d="M420.487 174.994c-.154-.304-.308-.609-.308-.913.154-.761.154-1.522.308-2.283-2.161-1.217-46.155-24.347-48.316-25.564v6.696l39.209 21.608c2.47 0 7.718 1.065 10.188 1.369v-.304c-.309-.152-.772-.305-1.081-.609Zm1.236.761c3.859.456 7.563 1.369 10.959 2.891-2.469-1.369-5.094-2.891-7.563-4.261v.153s0 .152-.155.152c-.154.152-.308.152-.463.304-.772.304-1.852.609-2.624.609l-.154.152Z" fill="#E1DFEA"/><path d="M425.118 174.385c1.235-10.804 2.47-21.455 3.705-32.259-1.544-.913-3.087-1.826-4.631-2.587-1.235 10.804-2.47 21.455-3.705 32.259-.154.761-.154 1.522-.308 2.283 0 .304 0 .609.308.913.309.304.772.609 1.235.609.927 0 2.007-.305 2.625-.609.154 0 .308-.152.463-.304.154 0 .154-.153.154-.153l.154-.152Zm20.222 76.846v3.043c1.389-.761 2.933-1.674 4.322-2.435.154-1.065.309-2.282.463-3.347-1.543.913-3.087 1.826-4.785 2.739Zm3.705 95.561c0-2.586 2.006-5.63 4.013-6.695.154 0 .309-.152.463-.152-25.624-14.608-51.403-29.217-77.027-43.825-.927.609-2.007 1.065-2.933 1.674-3.242 1.826-6.021 2.131-8.182 1.217v.609c2.161 1.218 4.323 2.435 6.329 3.652 25.779 14.761 51.558 29.369 77.491 44.129v-.609h-.154Zm12.503-111.996c-.772 2.892-2.933 6.848-6.02 9.891-.154 1.37-.309 2.739-.617 4.261 2.161-1.217 4.476-2.587 6.637-3.804 2.007-2.587 3.859-5.935 4.631-9.13 1.698-6.544 3.242-12.935 4.94-19.478-2.007 1.065-4.014 2.283-5.866 3.348a298.984 298.984 0 0 1-3.705 14.912Z" fill="#E1DFEA"/><path d="M474.361 374.792c2.469-1.37 3.396-4.413 3.396-7.305 0-1.673-.309-3.195-.772-4.869-.155-.609-.309-1.217-.618-1.826-2.006-.152-4.013-.609-6.174-1.522v4.87c.772 2.13 1.389 4.565 1.389 6.847 0 3.805-1.389 6.087-3.396 7.304 2.161-1.065 4.168-2.282 6.175-3.499Z" fill="#1A293B"/><path d="M449.045 355.618c-1.389 7.457 4.322 18.413 11.886 22.217 1.389.609 2.779 1.217 4.322 1.217 1.081 0 2.161-.304 3.087-.761 2.007-1.065 3.397-3.499 3.397-7.304 0-2.282-.464-4.717-1.39-6.847v5.934l-.926.457-20.376-11.565v-3.348Z" fill="#3F4F5D"/><path d="M423.575 282.121c13.584 11.869 34.423 30.281 48.007 42.303 6.02 5.173 10.188 13.999 10.188 20.542v.609c0 2.587-.618 5.935-3.242 6.543-.463.153-1.08.153-1.698.153-.617 0-1.389-.305-2.007-.457-1.543.609-2.778 1.674-3.55 3.043-.463.913-.926 1.979-.926 3.044v1.521c2.161.913 4.168 1.522 6.175 1.522h.617c7.718.152 13.43-5.782 13.43-15.369v-.609c0-9.738-5.866-20.694-13.121-27.086-10.497-9.282-21.148-18.412-31.645-27.694-2.47 1.065-5.557.761-8.644-1.065-1.081-.609-9.571-13.391-10.651-14l-2.161 1.37c-1.081.608.308 5.325-.772 5.63Zm48.779-78.367c.772-.152 1.544-.304 2.007-.609.154 0 .308-.152.463-.304v-.152c2.47-10.043 5.094-20.087 7.564-29.978a64.837 64.837 0 0 0-4.477-2.434c-2.47 10.043-5.094 19.934-7.564 29.977l-.463 1.826c-.154.609.154 1.522 1.081 1.674h1.389Z" fill="#E1DFEA"/><path d="M474.361 203.145c-.463.152-1.235.457-2.007.609-.463 0-.926.152-1.235 0-1.081-.152-1.389-1.065-1.081-1.674l.464-1.826c-10.188-5.782-20.531-11.717-30.719-17.499 3.859 3.043-63.906-38.499-64.061-34.695 0 1.065-1.08 5.63-1.08 6.696 7.255 4.108 85.517 49.911 92.772 54.019 2.933-1.673 6.02-3.347 8.953-5.173-.463-.305-.926-.457-1.389-.761v.152c-.309 0-.463.152-.617.152Z" fill="#E1DFEA"/><path d="M473.743 351.51c-1.08.456-1.852 1.217-2.624 2.282-.926 1.37-1.698 3.044-1.698 4.565v12.326l.926-.457v-12.325c0-1.065.463-2.131.926-3.044.772-1.369 2.007-2.282 3.551-3.043.617.152 1.235.304 2.006.457a1.843 1.843 0 0 0-.771-.761c-.155 0-.155-.152-.309-.152-.772-.305-1.389-.153-2.007.152Z" fill="#9B346C"/><path d="M476.059 351.51c-6.792-3.804-13.584-7.761-20.376-11.565-.618-.304-1.544-.304-2.162 0-.154 0-.308.152-.463.152-2.006.913-4.013 4.109-4.013 6.696v12.325l20.376 11.565v-12.326c0-1.674.772-3.195 1.698-4.565.617-.913 1.544-1.826 2.624-2.282.618-.305 1.389-.457 2.007-.152 0 0 .154 0 .309.152Z" fill="#1F825E"/><path d="M476.213 213.645c1.852 1.065 3.55 1.978 5.248 3.043.309-2.13.618-4.413.926-6.543a127.463 127.463 0 0 0-6.174 3.5Z" fill="#E1DFEA"/><path d="M476.367 360.944c.155.609.463 1.217.618 1.826v-1.826h-.618Z" fill="#9B346C"/><path d="M479.918 237.079c1.08.609 2.624 1.217 3.396.152.154-.152.308-.456.308-.761v-.152c.155-1.37.463-2.891.618-4.261.617-4.26 1.235-8.521 1.698-12.934.463-3.196.926-6.391 1.235-9.434.154-.914.308-1.827.308-2.74-1.852 1.066-3.55 1.979-5.402 3.044-.309 2.13-.618 4.413-.926 6.543-.772 6.239-1.698 12.326-2.47 18.565 0 .304 0 .456-.155.761 0 .304.155.456.463.608.463.305.772.457.927.609Z" fill="#E1DFEA"/><path d="M402.118 131.017c-3.859 2.283-7.872 4.413-11.731 6.696v-8.37c4.013.457 7.872 1.066 11.731 1.674Z" fill="#1F825E"/><path d="M390.232 146.691c.309-.153.618-.457.927-.457.154-.152.926 0 1.389.457.463.608.463 1.673.309 2.282-.772-.913-2.007-1.978-2.625-2.282Z" fill="#A23042"/><path d="M387.453 122.648c1.698 3.804 2.625 5.782 2.933 6.695v8.37c-1.235.761-2.469 1.369-3.704 2.13.617-12.021.617-12.934.771-17.195Z" fill="#36CF98"/><path d="M389.924 152.625c-.618.152-1.235-.152-1.544-.761.309 0 .463-.152.617-.304.463.304.618.609.927 1.065Z" fill="#A23042"/><path d="M388.38 151.864c-.154-.152-.309-.608-.309-1.065.155.152.618.457.926.761-.154.152-.308.152-.617.304Z" fill="#A23042"/><path d="M387.917 147.604c1.543-2.892 4.939-4.413 6.174-1.37.463 1.065.155 2.739-.309 3.956-.308-.456-.463-.76-.771-1.065.308-1.369 0-2.739-1.544-2.739h-.309c-.309 0-.617.152-.926.457-.463.304-1.081.913-1.544 1.826-.463.913-.617 1.521-.617 2.282 0 1.37.926 1.979 1.698 1.826l.617 1.218c-3.087 1.369-4.631-2.131-2.469-6.391Z" fill="#EF4F25"/><path d="M387.454 122.648c-.155 4.261-.309 5.326-.772 17.043a7528.553 7528.553 0 0 0-47.544 27.086c-.772-1.826-2.779-6.239-2.933-6.696-3.859-.608-7.873-1.065-11.732-1.673 20.994-11.87 41.987-23.891 62.981-35.76Z" fill="#1F825E"/><path d="M386.99 151.408c0 1.065.309 2.13 1.235 2.587-.463-.305-1.08-.457-1.543-.761-.155-.152-.463-.304-.618-.457-1.389-1.673-.617-4.26.463-6.086.618-.913 1.235-1.826 2.316-2.435.772-.457 1.698-.609 2.47-.152.463.152.926.456 1.389.761-1.081-.457-3.396.304-4.785 2.891-.618 1.065-1.081 2.435-.927 3.652Z" fill="#FA7800"/><path d="M360.594 163.429c.463 0 .926.152 1.235.457.463.608.463 1.521.309 2.282-.309-.304-.618-.761-.926-1.065-.772-.761-.309-.152-.618-1.217.155 0 .155-.305 0-.457Z" fill="#A23042"/><path d="M361.212 165.255c-.463-.304-1.081-1.065-1.544-1.369.309-.152.617-.457 1.081-.457.154.457.463 1.37.463 1.826Z" fill="#A23042"/><path d="M359.668 163.886c1.389.761 2.47 1.826 3.396 3.195l.154.152c3.859 5.174 5.712 16.435 10.188 19.174 1.081.608 2.007.608 3.088.456 1.234-.304 2.161-.761 3.087-1.217.154 0 1.852-1.065 2.624-1.826 10.806-8.369 12.504-28.151 6.02-33.021 0-1.369.772-3.043 1.853-3.956.308-.305.154-.152.308-.152 9.108 5.478 8.645 28.912-4.785 40.172-3.55 2.891-8.644 5.63-12.967 4.109-8.798-2.739-9.416-18.869-15.127-23.13 0-1.522.926-3.195 2.161-3.956Z" fill="#F7B23B"/><path d="M359.36 169.82c-.464.152-1.235-.152-1.544-.761.309 0 .463 0 .772-.304-.155 0 .772.913.772 1.065Zm-.927-1.065c-.309.152-.463.152-.772.304-.154-.304-.154-.608-.154-1.065.463.305.772.609.926.761Z" fill="#A23042"/><path d="M406.132 130.256c-41.987 23.891-53.41 30.434-68.075 38.803l4.014 84.911 68.074-38.803-4.013-84.911Zm-17.135 53.259c-2.315 2.739-4.168 4.261-6.946 5.935-.155 0-2.624 1.674-5.712 1.978-10.496 1.065-12.194-13.847-16.208-20.39-.617.304-1.543.608-2.315.304-.155 0-.155 0-.309-.152s-.772-.457-1.544-.761c-.926-.457-1.389-1.37-1.235-2.587.155-2.587 1.081-4.565 3.242-6.087.926-.608 1.852-.913 2.933-.456.463.304 1.081.456 1.544.761 1.698.608 1.543 3.347.771 5.173 2.933 3.805 4.786 11.261 7.41 16.13 1.698 2.891 3.55 4.261 6.638 3.196 2.624-.761 6.946-3.652 9.879-8.217 5.248-8.217 6.02-19.021 3.396-24.499-1.698.76-2.161.152-3.859-.609-.155-.152-.463-.304-.618-.457-1.389-1.673-.617-4.26.463-6.086.618-.913 1.235-1.826 2.316-2.435.772-.457 1.698-.609 2.47-.152.463.152.926.456 1.389.761a2.424 2.424 0 0 1 1.235 1.521c.463 1.065.154 2.739-.309 3.957 0 0 .155.152.155.304 5.094 7.761 2.932 23.738-4.786 32.868Z" fill="#1F825E"/><path d="M360.594 161.908c.927-.153 1.698 0 2.316.456 1.08 1.065.926 3.348.309 4.869-.155-.152 0-.152-.772-1.065.154-.761.154-1.826-.309-2.282-.309-.305-.772-.457-1.235-.457-.463 0-.926.305-1.389.609-1.698 1.522-2.007 3.956-1.544 4.869.309.609 1.081.913 1.544.761.154.152.309.457.772 1.217-2.625 1.37-4.477-.76-3.705-3.804.617-2.891 2.624-4.717 4.013-5.173Z" fill="#EF4F25"/><path d="M358.588 163.125c-1.235 1.217-1.853 2.435-2.162 4.108-.154.761-.308 1.522 0 2.283.155.609.618 1.369 1.235 1.674-.154-.152-.771-.457-1.543-.761-.927-.457-1.39-1.37-1.235-2.587.154-2.587 1.08-4.565 3.241-6.087.927-.608 1.853-.913 2.933-.456.463.304 1.081.456 1.544.761-.463-.305-1.235-.305-1.698-.152-1.081.304-1.698.76-2.315 1.217Z" fill="#FA7800"/><path d="m338.057 169.059 4.014 84.911-7.564-10.348v-82.627l3.55 8.064Z" fill="#36CF98"/><path d="m334.507 160.995-14.047-1.979 68.074-38.803 3.551 8.065 14.047 1.978c-41.987 23.891-53.41 30.434-68.075 38.803l-3.55-8.064Zm-10.034-2.587c3.86.608 7.873 1.065 11.732 1.673.154.305 2.161 4.87 2.933 6.696 11.114-6.391 56.034-31.803 62.98-35.76-3.859-.608-7.872-1.065-11.731-1.674-.309-.76-.926-2.13-2.933-6.695-20.994 11.869-41.987 23.89-62.981 35.76Z" fill="#36CF98"/><path d="M334.507 160.994v82.628l-18.061-4.261 4.014-80.345 14.047 1.978Z" fill="#1F825E"/><path d="m346.393 162.212-1.544.913c.463-1.522 1.081-2.283 1.544-.913Z" fill="#D64A78"/><path d="M343.614 207.862c0 .153 0 .305-.154.305a1.188 1.188 0 0 1-.772.304c-11.268-1.674-10.497-1.522-10.651-1.674-.154 0-.309-.152-.309-.304-.463-1.978-1.08-8.826-1.235-10.804-.617-9.282-.617-19.173 1.081-28.456.309-1.673 1.08-5.478 1.852-7.152.309-.608.772-1.065 1.39-.913 11.577 1.826 10.805 1.522 11.114 1.827.308.304.463.76.617 1.217h-.154c-.618-1.978-1.389.304-2.007 2.282-.772 3.044-1.389 7.152-1.698 10.348-1.698 15.825.772 33.477.926 33.02Z" fill="#FBC959"/><path d="M446.575 175.298v12.326l-6.484-6.239 6.484-6.087Z" fill="#8140FF"/><path d="M443.333 176.364c-.463.456-4.939 4.717-5.402 5.173v5.174H371.4v-5.174c-1.853-1.674-3.551-3.347-5.403-5.173h77.336Z" fill="#5F26CF"/><path d="M443.333 186.559h-5.402v-5.174c1.852 1.826 3.704 3.5 5.402 5.174Z" fill="#8140FF"/><path d="M426.97 197.819v-1.065c0-1.826.155-1.978-.154-2.435-.154-.304-.309-.456-.463-.608 2.161.913 2.161 3.043.617 4.108Z" fill="#E95950"/><path d="M420.487 195.841c0-2.282 2.933-4.565 6.175-3.5 1.852.609 2.933 1.978 2.933 3.5 0 1.674-1.389 2.891-2.624 3.5 0 0 .154-1.065.154-1.522.309-.304.617-.608.926-1.065.926-2.13-1.852-4.108-4.168-3.195-2.006.913-2.161 2.891-.771 4.108 0 .152 0 1.065-.155 1.522-1.389-.609-2.47-1.826-2.47-3.348Z" fill="#F5B538"/><path d="M423.111 192.493c-1.389.609-2.469 1.979-2.469 3.348v-.913c0-.761.308-1.826 1.543-2.891 1.698-1.217 4.322-1.37 6.02 0 .927.609 1.39 1.674 1.39 2.739v1.065c-.155-3.043-3.859-4.565-6.484-3.348Z" fill="#F8E150"/><path d="M363.064 187.624v74.411h83.511v-74.411h-83.511Zm66.531 8.217c0 1.674-1.389 2.891-2.624 3.5-.463 7.761-2.625 16.282-8.645 21.151-4.631 3.653-10.651 4.566-16.517 3.5-11.577-2.434-15.436-13.086-16.208-24.803-1.235-.457-2.624-1.826-2.624-3.5v-1.065c0-1.065.617-2.131 1.544-2.739 1.543-1.218 4.476-1.37 6.174 0 .926.608 1.389 1.826 1.389 2.739v1.065c0 1.522-1.08 2.739-2.469 3.348 0 1.065.308 4.413 1.08 7.608 1.235 5.63 4.322 11.261 10.034 12.934 3.55 1.218 8.798 1.218 12.658-.608 5.711-2.739 8.027-9.13 9.107-15.369 0-.152.463-3.196.463-4.413-1.389-.609-2.315-1.826-2.315-3.348v-1.065c0-.761.308-1.826 1.543-2.891 1.698-1.218 4.323-1.37 6.021 0 .926.608 1.389 1.674 1.389 2.739v1.217Z" fill="#0C4E5C"/><path d="M389.46 194.776c0-.609-.309-1.065-.617-1.37.772.305 1.698 1.37 1.698 2.283 0 .609-.309 1.369-.926 1.826-.155-.152-.155-2.587-.155-2.739Z" fill="#E95950"/><path d="M423.112 196.754c0-.152 0-.152 0 0 0-.152 0 0 0 0-.155.761-.155.152 0 0Zm-37.665-.152c0-1.826-.155-1.978.154-2.435.155-.304.309-.456.463-.608.772-.457 1.853-.457 2.779 0 .463.304.617.76.617 1.369 0 4.109.155 7.761 1.081 11.869 1.852 7.913 6.329 13.543 14.51 13.848 8.49.456 15.128-3.805 17.289-16.891 0-.152.463-2.587.463-4.261 0-.152.154-1.065.154-1.522a2.366 2.366 0 0 1-.926-1.826c0-1.521 2.007-3.043 4.168-2.282.154 0 .154 0 .309.152.154.152.308.304.463.609.154.456.154.608.154 2.434 0 3.957-.772 9.739-2.161 13.696-2.624 7.912-8.181 13.238-16.671 13.847-16.363 1.065-22.846-12.174-22.846-27.999Z" fill="#F7B23B"/><path d="M386.064 193.559c-.463.304-.617.76-.617 1.217v2.891c-1.39-1.065-1.39-3.195.617-4.108Z" fill="#E95950"/><path d="M382.977 195.689c0-1.674 1.235-3.043 2.933-3.5 3.396-1.065 6.02 1.37 6.02 3.5 0 1.522-1.08 2.739-2.47 3.348v-1.065c0-.761-.154-.305.309-.914.309-.456.617-1.065.617-1.521 0-.913-.926-1.978-1.698-2.283-2.161-1.065-5.093.913-4.167 3.044.154.456.463.76.926 1.065v1.522c-1.235-.305-2.47-1.522-2.47-3.196Z" fill="#F5B538"/><path d="M382.977 194.776c0-1.065.618-2.13 1.544-2.739a5.619 5.619 0 0 1 3.087-.913c2.779 0 4.477 1.978 4.477 3.804v1.065c0-1.369-1.081-2.739-2.47-3.347-2.625-1.218-6.484.304-6.638 3.347v-1.217Z" fill="#F8E150"/><path d="M371.554 181.385v5.174h-5.403c5.866-5.63 4.786-4.413 5.403-5.174Z" fill="#8140FF"/><path d="m369.547 181.385-6.483 6.239v-12.326l6.483 6.087Z" fill="#1F7082"/><path d="M366.151 186.559h77.182c-1.852-1.674-3.55-3.348-5.403-5.174.464-.456 4.94-4.717 5.403-5.174h-77.182c1.853 1.674 3.551 3.348 5.403 5.174-.772.761.617-.456-5.403 5.174Zm-3.087 1.065 6.483-6.087-6.483-6.086h83.511l-6.483 6.086 6.483 6.087h-83.511Z" fill="#339CB4"/><path d="M312.741 237.688c.927.304 2.316-.305 3.088-.913.308-.153.772-.609.772-.913 0-.305 0-.457-.155-.761-1.08-8.37-2.315-16.739-3.396-25.108-1.852-1.065-3.55-1.978-5.403-3.044.464 3.348.927 6.544 1.39 9.891.617 5.022 1.389 10.196 2.006 15.217.155 1.522.464 2.891.618 4.413.154.457.463 1.065 1.08 1.218Zm53.565 26.477v-23.891c-1.698-.913-3.242-1.826-4.94-2.739v26.934c0 .305 0 .457.155.761.463.913 1.389.913 2.315.609.772-.152 2.47-.913 2.47-1.674Zm111.759-94.04c1.544.76 2.933 1.673 4.477 2.434l20.839 11.869c.618.305 1.081.761 1.544 1.218.308.304.308.456.308.456v.153c-.154.304-.463.76-.771.913-.309.304-.618.456-1.081.76-9.107 5.174-18.06 10.348-27.168 15.369-2.933 1.674-6.02 3.348-8.953 5.174-7.255 4.109-14.51 8.217-21.765 12.478a5325.887 5325.887 0 0 1-39.981 22.673c-3.859 2.283-11.114 2.283-15.127 0-2.007-1.065-4.014-2.282-6.02-3.348-13.43-7.608-26.86-15.369-40.444-22.977-11.577-6.543-23.309-13.239-34.886-19.782-2.007-1.065-3.859-2.283-5.866-3.348-8.953-5.173-17.906-10.195-27.014-15.369-2.161-1.217-4.322-2.434-6.637-3.804-2.933-1.674-6.02-3.348-8.953-5.174-1.235-.761-2.47-1.369-3.551-2.13-1.698-1.065-3.55-1.978-5.248-3.043-6.02-3.5-12.195-7-18.215-10.348-.617-.304-1.081-.761-1.544-1.217-.308-.305-.308-.457-.308-.457v-.152c.154-.304.463-.761.771-.913.309-.304.618-.456 1.081-.761 5.248-2.891 10.342-5.934 15.591-8.826 1.543-.913 3.087-1.826 4.631-2.586 7.564-4.261 14.973-8.522 22.537-12.783v-10.195l-42.605 24.195c.155.761.309 1.522.618 2.282.309 1.066-.155 2.587-1.081 2.892-.617.152-1.543-.153-2.933-.457-.926-.152-2.315-.456-3.241-.456h-.309c-2.315 1.978-4.013 4.717-4.013 7.76 0 4.109 2.778 7.456 6.328 9.435 7.564 4.26 15.128 8.673 22.692 12.934 2.161 1.217 4.168 2.435 6.329 3.5 1.852 1.065 3.55 1.978 5.403 3.043l12.966 7.304c8.953 5.174 17.906 10.196 27.014 15.369 1.544.913 3.087 1.674 4.476 2.587 1.853 1.065 3.551 1.978 5.403 3.044 10.343 5.782 20.531 11.717 30.873 17.499 5.866 3.348 11.577 6.695 17.443 9.891 1.698.913 3.242 1.826 4.94 2.739 3.55 1.978 6.946 3.956 10.496 5.935 2.47 1.369 5.094 2.891 7.564 4.26.463.305.926.609 1.544.913 6.792 3.957 17.443 3.805 24.081 0 4.631-2.586 9.261-5.326 13.892-7.912 1.853-1.066 3.551-1.979 5.403-3.044 5.403-3.043 10.806-6.087 16.208-9.282 2.625-1.522 5.249-2.891 7.873-4.413 1.852-1.065 3.55-1.978 5.403-3.043 2.315-1.37 4.631-2.587 6.946-3.957 2.007-1.065 3.859-2.282 5.866-3.347 1.544-.913 3.241-1.826 4.939-2.739a126.184 126.184 0 0 1 6.175-3.5c1.852-1.066 3.55-1.979 5.403-3.044 6.637-3.804 13.275-7.608 20.067-11.412 3.55-1.979 6.329-5.326 6.329-9.435 0-3.956-2.624-7.456-6.329-9.434-47.544-27.086-95.088-54.02-142.478-81.106v10.195c3.088 1.826 6.175 3.5 9.262 5.174 1.544.913 3.087 1.826 4.631 2.587 14.973 8.521 30.101 17.195 45.074 25.716 1.544.913 3.087 1.826 4.631 2.587 15.591 9.739 31.953 19.173 48.47 28.456Z" fill="#E1DFEA"/><path d="M483.468 237.383c-.772 1.065-2.315.457-3.396-.152-.154-.152-.463-.304-.617-.456-.309-.305-.463-.457-.463-.609 0-.305 0-.457.154-.761-5.712 3.196-11.423 6.543-17.134 9.739-2.162 1.217-4.477 2.587-6.638 3.804-.154 1.522-.463 2.891-.618 4.413 0 .304-.154.609-.308.761-.772 1.065-2.316.456-3.396-.152-.155-.153-.463-.305-.618-.457-.308-.304-.463-.456-.463-.761 0-.304 0-.456.155-.761-1.39.761-2.933 1.674-4.323 2.435-6.483 3.804-13.121 7.456-19.604 11.108-.154 1.37-.463 2.892-.617 4.261v.152c0 .305-.155.457-.309.761-.772 1.065-2.316.457-3.396-.152-.309-.304-1.081-.761-1.081-1.217 0-.153 0-.457.155-.609-4.94 2.891-10.034 5.63-14.974 8.521-3.859 2.283-11.114 2.283-15.127 0-2.007-1.065-4.014-2.282-6.02-3.347-6.021-3.5-12.041-6.848-18.061-10.348v.761c0 .761-1.544 1.522-2.315 1.826-.927.304-2.007.152-2.316-.609-.154-.152-.154-.456-.154-.76v-3.805c-1.698-.913-3.396-1.826-4.94-2.891-4.168-2.435-8.336-4.717-12.503-7-9.108-5.173-18.37-10.347-27.477-15.673 0 .304 0 .456.154.761 0 .304-.463.761-.772.913-.771.609-2.161 1.217-3.087.913-.617-.152-.926-.761-1.08-1.217-.155-1.522-.464-2.892-.618-4.413-.617-.457-1.389-.761-2.007-1.218-2.006-1.065-3.859-2.282-5.865-3.347-8.954-5.174-17.907-10.196-27.014-15.369-3.087-1.827-6.329-3.653-9.571-5.479 0 .153 0 .457.155.609 0 .304-.309.761-.772 1.065-.772.609-2.161 1.218-3.087.913-.618-.152-.927-.608-1.081-1.217v-.152c-.154-1.37-.309-2.891-.617-4.261-1.853-1.065-3.551-1.978-5.403-3.043a528.956 528.956 0 0 0-12.658-7.152c-.617-.305-1.081-.761-1.544-1.218-.308-.304-.308-.456-.308-.456v-.152c.154-.305.463-.761.771-.913.309-.305.618-.457 1.081-.761 3.55-1.978 7.101-4.109 10.651-6.087 1.389-.761 2.933-1.674 4.322-2.435-.154-.913-.308-1.826-.308-2.891-2.162-1.217-4.168-2.434-6.329-3.5-4.323 2.435-8.49 4.87-12.813 7.304-3.55 1.979-6.328 5.326-6.328 9.435 0 3.956 2.778 7.456 6.328 9.434l18.524 10.5c1.853 1.065 3.705 2.13 5.403 3.043 1.852 1.066 3.55 1.979 5.403 3.044 8.027 4.565 15.899 9.13 23.926 13.543 1.698.913 3.242 1.826 4.94 2.739l12.04 6.847c1.235.609 2.316 1.37 3.55 1.979 1.853 1.065 3.551 1.978 5.403 3.043 8.645 4.869 17.289 9.891 25.933 14.76 1.081.609 2.316 1.37 3.396 1.979 4.631 2.586 9.262 5.325 13.893 7.912 1.698.913 3.242 1.826 4.94 2.739 6.483 3.652 12.966 7.457 19.604 11.109.154 0 .309.152.309.152 1.852.913 3.859 1.674 6.02 2.13 1.389.305 2.778.457 4.168.457 4.785.304 9.725-.761 13.429-2.892 2.933-1.673 6.02-3.347 8.953-5.173 1.853-1.065 3.551-1.978 5.403-3.044 7.101-3.956 14.047-8.065 21.148-12.021.926-.609 1.852-1.065 2.933-1.674 1.852-1.065 3.55-1.978 5.403-3.043 8.027-4.565 15.899-9.13 23.926-13.543 1.852-1.065 3.55-1.978 5.403-3.044 5.094-2.891 10.033-5.782 15.127-8.673 3.551-1.978 6.329-5.326 6.329-9.435 0-3.956-2.624-7.456-6.329-9.434-3.55-1.978-7.1-3.957-10.496-5.935-.463 3.196-.927 6.391-1.235 9.435 2.47 1.369 4.939 2.739 7.409 4.26.618.305 1.081.761 1.544 1.218.309.304.309.456.309.456v.153c-.155.304-.463.76-.772.913-.309.304-.618.456-1.081.76-3.087 1.674-6.02 3.5-9.107 5.174-.155 1.37-.463 2.891-.618 4.261v.152c-.772.609-.771.761-.926 1.065Z" fill="#E1DFEA"/><path d="M421.414 270.404c1.08.608 2.624 1.217 3.396.152.154-.152.308-.457.308-.761v-.152c.155-1.37.463-2.891.618-4.261 1.08-8.369 2.315-16.738 3.396-25.108-1.853 1.066-3.551 1.979-5.403 3.044-1.08 8.369-2.315 16.738-3.396 25.108 0 .152 0 .456-.154.608.154.761.772 1.218 1.235 1.37Zm28.248-17.804c0 .304.155.457.463.761.155.152.463.304.618.456 1.08.609 2.624 1.218 3.396.153.154-.153.308-.457.308-.761.155-1.522.463-2.891.618-4.413.154-1.37.309-2.739.617-4.261.927-7 1.853-13.999 2.779-20.847-1.852 1.065-3.55 1.978-5.403 3.043-.926 7.304-2.007 14.456-2.933 21.76-.154 1.066-.309 2.283-.463 3.348v.761Zm-12.658 36.673c3.088 1.826 6.175 1.978 8.645 1.065 2.47-1.065 4.168-3.5 4.631-6.848.771-6.086 1.698-12.325 2.469-18.412.309-1.674.464-3.5.772-5.174-1.852 1.065-3.55 1.978-5.402 3.044-.927 6.695-1.853 13.238-2.779 19.934-.154.913-.463 1.978-1.081 2.587-1.235 1.217-3.396.456-4.939-.305-.309-.152-12.812-9.739-13.121-9.891-1.544 1.065 9.107 11.413 7.409 12.174 1.235.608 2.316 1.217 3.396 1.826Z" fill="#E1DFEA"/><path d="M453.521 259.904c-.308 1.674-.463 3.5-.771 5.174 4.476 2.587 8.953 5.021 13.429 7.608 6.329 3.652 12.504.913 13.275-5.782 1.081-7.913 2.162-15.673 3.242-23.586-1.852 1.065-3.55 1.978-5.403 3.043-.926 6.696-1.852 13.239-2.778 19.934-.155.913-.463 1.978-1.081 2.587-1.235 1.217-3.396.457-4.939-.304-4.786-3.044-9.88-5.783-14.974-8.674Z" fill="#E1DFEA"/><path d="M276.62 540.503v-2.434c50.014-28.456 47.39-26.782 48.007-27.695.309-.457.463-.913.618-1.37v2.435c0 .761-.463 1.522-1.081 1.978-.463.305 3.551-1.978-47.544 27.086Z" fill="#1F825E"/><path d="m306.413 507.787-6.484 3.652-19.141-10.956 6.483-3.652 19.142 10.956Zm-25.008-14.152-6.483 3.652-19.141-10.956 6.329-3.652 19.295 10.956Z" fill="#F0E0DC"/><path d="M278.472 523.765c-1.389.152-2.624-.152-3.55-.761-.926-.457-1.389-1.218-1.235-1.978.154-.913.926-1.674 2.624-2.587 1.698-.913 3.242-1.37 4.631-1.522a6.467 6.467 0 0 1 3.55.609c.927.608 1.39 1.217 1.235 2.13-.154.913-1.08 1.826-2.778 2.739-1.544.761-3.087 1.218-4.477 1.37Z" fill="#36CF98"/><path d="M276.62 538.069v2.434l-16.98 9.739v-2.435l16.98-9.738Z" fill="#1F825E"/><path d="m159.458 471.419 117.162 66.65-16.98 9.738-117.162-66.65 16.98-9.738Zm115.618 51.585c.926.609 2.161.761 3.551.761 1.389 0 2.933-.457 4.476-1.37 1.698-.913 2.624-1.826 2.779-2.739.154-.761-.309-1.522-1.235-2.13a6.47 6.47 0 0 0-3.551-.609c-1.389.152-2.932.609-4.63 1.522-1.544.913-2.47 1.826-2.625 2.587-.154.761.309 1.521 1.235 1.978Zm-3.55-3.5c1.235-1.978 4.476-3.348 6.792-3.956 3.087-.761 6.02-.153 7.872.913 1.235.608 2.007 1.673 1.698 2.891l6.175-3.5 2.161 1.217-17.289 9.891-2.006-1.065c3.704-2.13.154.457-3.705-1.826-2.007-1.217-2.933-2.891-1.698-4.565Zm-10.805-3.043 12.503-7.152 1.853 1.065-1.853 1.065c1.389-.304 2.316-.304 3.087-.304 1.544.152 2.625.761 3.242 2.13l-2.778.761c-.618-1.522-2.933-1.978-4.631-1.37-2.007.609-2.47.913-9.417 4.87l-2.006-1.065Z" fill="#1F825E"/><path d="m256.398 479.331-6.483 3.653-19.141-10.957 6.483-3.652 19.141 10.956Z" fill="#F0E0DC"/><path d="M255.472 511.287c-1.235-.152-3.859-1.065-4.014-2.283-.154-.913 1.081-1.521 2.007-1.521 2.47-.305 4.168 1.521 8.027 2.434-2.161 1.218-3.55 1.826-6.02 1.37Z" fill="#36CF98"/><path d="M255.009 507.483c-2.624-.609-5.248 1.217-2.315 2.891 1.698.913 3.859 1.217 5.557.913 1.081-.304 2.315-.913 3.242-1.522-2.625-.608-5.094-1.978-6.484-2.282Zm-6.637 1.217c-.155-1.674 1.852-2.587 3.55-2.891 4.322-.761 7.101 1.978 11.269 3.043.617-.304 1.852-.913 1.852-1.674-.154-1.369-3.087-2.587-4.477-2.739-.771 0-1.852.152-2.933.457l-1.852-1.37c2.161-.761 4.014-.913 6.175-.304 1.698.456 4.631 1.826 5.557 3.043.772.913.772 1.674-.309 2.587-1.08.913-6.483 3.652-8.336 5.022a2.373 2.373 0 0 0-.926 1.217l-2.161-1.217c.154-.457.618-.761 1.081-1.065-2.316-.153-4.477-.457-6.484-1.522-1.235-1.065-1.852-1.826-2.006-2.587Zm-10.189-14.913c3.705-2.13 7.873-2.739 11.732-2.13 5.557.913 10.96 4.565 6.946 8.522l-2.778-.913c1.544-1.674 1.544-3.196-1.081-4.718-2.624-1.521-5.865-1.826-8.798-.913-2.47.761-5.557 2.283-7.101 4.109-1.389 1.826-.309 3.5 1.698 4.717 2.315 1.37 5.711 1.826 9.416.304l1.698 1.674c-4.322 1.522-8.953 1.522-12.966-.761-1.853-1.065-2.933-2.13-3.396-3.195-.772-2.739 2.161-5.326 4.63-6.696Z" fill="#1F825E"/><path d="m231.391 465.18-6.483 3.652-19.141-10.956 6.483-3.652 19.141 10.956Z" fill="#F0E0DC"/><path d="M323.392 506.57c.772.456 1.852 1.521 1.698 2.434 0 .761-.463 1.674-1.698 2.435l-46.927 26.63-117.162-66.65c51.095-29.065 47.236-27.086 48.934-27.391 2.161-.456 4.476-.304 6.483.761l108.672 61.781Zm-42.604-6.087 19.141 10.956 6.329-3.652-19.141-10.956-6.329 3.652Zm-6.638 16.586c-4.322 2.435-4.014 5.174-1.081 6.848 3.859 2.282 7.564-.304 3.705 1.826l2.007 1.065 17.289-9.891-2.161-1.217-6.175 3.5c.926-3.044-6.483-6.087-13.584-2.131Zm-.926-7.608-12.504 7.152 2.161 1.217c7.101-3.956 7.255-4.261 9.417-4.869 1.852-.609 4.167-.152 4.63 1.369l2.779-.761c-.617-1.369-1.852-1.978-3.242-2.13-.771-.152-1.698 0-3.087.304l1.853-1.065-2.007-1.217Zm-17.443-23.13 19.141 10.956 6.329-3.652-19.141-10.956-6.329 3.652Zm-6.021 20.239c-2.006 1.217-2.161 2.891.772 4.413 2.007 1.217 4.168 1.521 6.484 1.521-.464.305-.927.761-1.081 1.065l2.161 1.218c.463-1.065 1.389-1.522 4.631-3.348.926-.456 4.013-2.13 4.631-2.739 1.08-.913.926-1.674.309-2.587-.927-1.217-3.859-2.587-5.557-3.043-2.162-.609-4.014-.457-6.175.304l1.852 1.37c1.081-.305 2.161-.457 2.933-.457 1.39.152 4.322 1.37 4.477 2.739 0 .761-1.235 1.37-1.853 1.674-2.315-.609-4.939-1.978-6.792-2.587-2.932-.609-5.248-.304-6.792.457Zm.464-2.283-1.698-1.674c-3.705 1.37-7.101.913-9.417-.304-1.852-1.065-3.087-2.891-1.698-4.717 1.39-1.826 4.631-3.348 7.101-4.109 2.933-.761 6.175-.456 8.799.913 2.47 1.37 2.624 3.044 1.08 4.717l2.779.913c4.013-3.956-1.389-7.608-6.946-8.521-3.86-.609-8.027 0-11.732 2.13-2.47 1.37-5.403 3.957-4.322 6.544.463 1.065 1.543 2.13 3.396 3.195 3.704 2.435 8.335 2.435 12.658.913Zm-32.88-32.412c-.309-1.217-1.544-1.826-2.624-2.435-2.316-1.217-3.087-1.826-6.483-3.652-1.235-.608-2.316-1.369-3.551-1.978-.926-.608-1.852-1.217-2.933-1.521-1.389-.457-3.396-.609-4.939-.305-2.316.457-4.477 1.826-6.638 3.196-2.933 1.826-2.779 1.674-4.322 2.434-2.161 1.37-2.161 3.044-.772 4.261.617.609 9.879 5.63 11.732 6.848 2.161 1.217 2.933 1.826 5.402 1.978 4.631.304 7.255-2.587 12.349-5.174.927-.456 2.316-1.217 2.779-2.282v-1.37Zm7.564-3.043 6.329-3.652-19.141-10.956-6.329 3.652 19.141 10.956Zm31.49 10.499-19.141-10.956-6.329 3.652 19.141 10.956 6.329-3.652Z" fill="#36CF98"/><path d="M193.109 476.745c-6.175-3.5-5.403-3.196-6.483-3.653-1.081-.608-2.316-1.217-2.625-2.434-.154-.761 0-1.674.618-2.283.617-.608 1.389-.913 2.161-1.369 4.94-2.587 7.564-5.478 12.349-5.174 2.316.152 3.396.761 5.403 1.978 1.235.761 10.96 6.087 11.732 6.848.771.608 1.234 1.521.926 2.587-.463 1.217-1.698 1.826-2.779 2.282-5.094 2.739-7.718 5.478-12.349 5.174-2.778-.152-2.933-.761-8.953-3.956Z" fill="#F3E187"/><path d="M140.317 487.244c-2.47-1.369-2.316-3.652 0-4.869l2.161-1.218c.309 0-1.235-.76 117.162 66.65l-2.161 1.218c-1.389.76-3.859 1.369-6.483.76-1.853-.304 5.557 3.653-110.679-62.541Z" fill="#36CF98"/><path d="M138.464 487.244v-2.434c0 .456.155 1.065.618 1.369.617.761-6.483-3.348 109.907 62.846 1.389.761 3.859 1.369 6.483.761 1.544-.305 2.007-.761 4.168-1.979v2.435l-2.161 1.217c-1.852 1.066-4.322 1.218-6.483.761-1.698-.304 5.402 3.5-110.679-62.541-1.235-.761-1.853-1.674-1.853-2.435ZM338.366 72.737v26.781l-35.195 20.239-23.927-13.543 59.122-33.477Z" fill="#1F825E"/><path d="M366.151 176.364h77.182c-.618.913-5.403 5.173-5.403 5.173l5.403 5.174h-77.182l5.094-5.022-5.094-5.325Z" fill="#1F7082"/><path d="m446.575 187.624-6.484-6.087c1.853-1.674 4.786-4.565 6.484-6.086v12.173Z" fill="#1F7082"/><path d="M669.476 315.141c5.866 7.761 4.322 16.587-4.013 21.304-8.336 4.717-21.92 4.109-31.799-2.739-5.249-3.652-8.181-8.065-9.108-11.869-.926-3.956-.154-7.609 1.853-10.5 2.315-3.195 6.637-6.239 13.121-7.304 11.268-1.826 23.926 3.044 29.946 11.108Zm-9.416 8.37c1.235-.913 1.698-2.131 1.698-3.348-.154-1.065-.772-2.13-1.852-3.196.308-.152.772-.456 1.08-.608-.463-.305-.772-.761-1.235-1.065-.308.152-.772.456-1.08.608a10.885 10.885 0 0 0-4.477-2.13c-2.007-.457-3.859-.152-5.403.761-1.698.913-2.469 2.434-1.852 4.108.463 1.066.926 2.131 1.698 3.044a165.28 165.28 0 0 1-7.101 3.956c-.771-.761-1.08-1.674-.926-2.587.155-.761.772-1.369 1.698-2.282-.926-.609-1.698-1.065-2.624-1.674-1.081.761-1.698 1.522-2.007 2.435-.308.913-.308 1.673 0 2.586.309.761.926 1.674 1.853 2.739-.772.457-1.544.913-2.161 1.218.463.304.771.761 1.234 1.065.772-.457 1.544-.913 2.316-1.217 1.544 1.217 3.396 1.978 5.403 2.282 2.006.304 3.704 0 5.248-.913 1.235-.761 2.161-1.826 2.161-3.195 0-.609-.154-1.37-.463-2.131-.154-.456-.617-1.217-1.544-2.282l6.484-3.652c1.235 1.521.926 2.587-.463 3.804.617.456 1.543 1.065 2.315 1.674Z" fill="#F7B23B"/><path d="M661.758 320.011c.154 1.217-.463 2.435-1.698 3.348-.926-.609-1.698-1.218-2.624-1.674 1.389-1.218 1.698-2.283.463-3.805l-6.484 3.653c.772 1.065 1.235 1.826 1.544 2.282.309.761.617 1.37.463 2.13 0 1.37-.926 2.435-2.161 3.196-1.544.913-3.242 1.217-5.248.913-2.007-.304-3.705-1.065-5.403-2.283-.772.457-1.544.913-2.316 1.218-.463-.305-.771-.761-1.234-1.065.771-.457 1.543-.913 2.161-1.218-.927-1.065-1.544-1.978-1.853-2.739-.308-.761-.308-1.674 0-2.587.309-.913.926-1.673 2.007-2.434.926.608 1.698 1.065 2.624 1.674-1.08.76-1.543 1.521-1.698 2.282-.154.913.155 1.826.926 2.587a165.403 165.403 0 0 1 7.101-3.956c-.772-.913-1.235-1.826-1.698-3.044-.617-1.826.309-3.195 1.853-4.108 1.543-.913 3.396-1.218 5.402-.761a10.88 10.88 0 0 1 4.477 2.13c.309-.152.772-.456 1.08-.609.463.305.772.761 1.235 1.066-.308.152-.772.456-1.08.608 1.389 1.218 2.006 2.283 2.161 3.196Zm-11.114.304c2.006-1.217 4.167-2.282 6.174-3.5-3.396-2.282-6.792-.913-6.946.913-.155.761.154 1.522.772 2.587Zm-.155 5.174c.155-.609-.154-1.522-.926-2.739-2.315 1.217-4.477 2.587-6.792 3.804.926.609 2.007 1.065 3.242 1.217 1.235.153 2.315-.152 3.241-.608.618-.457 1.081-1.065 1.235-1.674Z" fill="#FBC959"/><path d="M656.819 316.815c-2.007 1.218-4.168 2.283-6.175 3.5-.617-1.065-.926-1.826-.926-2.587.309-1.826 3.705-3.195 7.101-.913Zm-7.41 5.935c.772 1.217 1.08 2.13.926 2.739-.154.609-.618 1.217-1.389 1.674-.927.608-2.007.761-3.242.608-1.235-.152-2.315-.456-3.242-1.217 2.47-1.217 4.786-2.435 6.947-3.804Z" fill="#F7B23B"/><path d="M595.381 315.598c-.308-8.065 9.262-15.217 23.155-17.043 6.792-.913 14.201-.456 20.839 1.37 0 0-3.396.152-7.409 1.673-4.94-.76-10.343-.608-15.283.457-4.476.913-9.261 2.891-12.503 6.087-4.94 4.869-4.477 10.804 1.081 15.369 3.55 2.891 8.335 4.565 12.812 5.326.154.608.617 1.673.772 1.826l.771 1.521c-6.174-.761-12.966-2.739-17.906-6.391-1.852-1.369-3.55-3.043-4.631-5.021-1.235-1.826-1.698-3.5-1.698-5.174Z" fill="#FBC959"/><path d="M621.624 309.055c2.778-3.957 8.181-7.609 15.899-8.826 13.584-2.13 29.02 3.5 36.43 13.543 7.101 9.434 5.248 20.086-4.785 25.869-10.034 5.782-26.551 5.021-38.746-3.348-6.483-4.413-9.879-9.739-11.114-14.456-1.235-4.717-.309-9.13 2.316-12.782Zm43.839 27.238c8.336-4.717 9.725-13.543 4.013-21.304-6.02-8.065-18.678-12.934-29.946-11.108-6.483 1.065-10.806 3.956-13.121 7.304-2.007 2.891-2.779 6.543-1.852 10.5.926 3.804 3.859 8.217 9.107 11.869 10.034 6.847 23.463 7.608 31.799 2.739Z" fill="#FBC959"/><path d="M618.845 315.598a98.441 98.441 0 0 0-.927 3.348c-.463-.457-.617-1.066-.463-1.522.155-.609.618-1.217 1.39-1.826Z" fill="#F7B23B"/><path d="M618.073 328.684c-4.477-.76-9.262-2.434-12.812-5.326-5.558-4.565-6.021-10.499-1.081-15.369 3.242-3.195 8.027-5.021 12.503-6.086 5.094-1.065 10.343-1.218 15.283-.457-6.021 2.131-11.115 6.239-12.658 12.326-.155.456-.155.761-.309 1.217l-2.316-.913c-1.08.761-1.698 1.37-2.006 2.131-.309.76-.309 1.369 0 1.978.308.608.926 1.217 2.006 1.978-.771.456-1.543.913-2.161 1.217.463.305.927.457 1.235.761.618-.304 1.081-.609 1.698-.913v.457c-.154 1.978-.154 3.804.463 5.782-.154.609 0 1.217.155 1.217Z" fill="#F7B23B"/><path d="M618.999 315.141c0 .153 0 .305-.154.457-.772.609-1.235 1.217-1.39 1.674-.154.608 0 1.065.464 1.521-.309 1.37-.309 1.37-.618 2.587-.617.305-1.08.609-1.698.913-.463-.304-.926-.456-1.235-.76.772-.457 1.544-.914 2.161-1.218-.926-.761-1.698-1.369-2.006-1.978-.309-.609-.309-1.217 0-1.978.308-.761.926-1.522 2.006-2.131.926.305 1.698.609 2.47.913Z" fill="#FBC959"/><path d="M618.999 315.141c-.309 2.131-.154 4.413.309 6.696 1.235 4.717 4.631 10.043 11.114 14.456 12.195 8.369 28.712 9.13 38.745 3.348 4.477-2.587 7.41-6.087 8.49-10.043-.463 1.826-1.08 3.804-1.543 5.63 0 .152-.618 2.282-2.007 4.413-.309.456-.926 1.369-1.081 1.521-3.087 3.652-7.563 6.087-12.349 7.304-12.812 3.196-28.403-1.369-36.893-10.195-1.852-1.826-3.55-4.261-4.476-6.239-1.081-1.978-1.853-4.565-2.007-7-.154-1.065 0-2.13 0-3.043.154-1.826.463-2.435 1.698-6.848Zm-69.463-33.477v.457-7s0 .761.154 1.217c.309 2.283 1.235 4.261 2.778 5.935.309.456 1.081 1.217 1.39 1.522 2.161 2.13 6.02 4.565 10.805 6.086.155 0 .772.305.926.305 10.652 3.195 24.699 2.739 34.578-2.435 5.094-2.587 10.034-7 10.034-12.782v7c0 4.717-3.242 8.521-7.255 11.108-4.168 2.891-10.806 5.326-19.142 5.935-6.329.456-12.503-.305-17.597-1.826-4.322-1.218-9.108-3.5-12.349-6.696-2.779-2.282-4.477-5.326-4.322-8.826Z" fill="#F7B23B"/><path d="M606.033 290.49c-1.235 3.804-4.631 6.848-8.336 8.978-12.967 7.456-34.577 6.543-45.537-1.826 5.402 2.283 11.886 3.348 17.752 3.348 7.872 1.217 16.98.304 24.235-3.652 3.55-1.065 6.637-2.587 8.644-3.957 1.235-1.065 2.47-2.13 3.242-2.891Z" fill="#FBC959"/><path d="M595.381 322.902v-7.304c0 1.674.618 3.348 1.544 5.021 1.081 1.979 2.779 3.653 4.631 5.022 4.94 3.652 11.732 5.63 17.906 6.391 1.235 2.131 2.933 4.413 4.322 5.935.618.608 1.081 1.065 1.698 1.521-8.798 0-19.604-2.434-25.933-8.369-2.315-2.13-4.013-5.021-4.168-8.217Zm-25.624-22.064c4.94 0 9.571-.609 13.739-1.826 3.55-.305 7.1-.913 10.496-1.826-7.1 3.956-16.362 4.869-24.235 3.652Z" fill="#F7B23B"/><path d="M539.965 283.338v.457-7c0 2.282.772 4.565 2.315 6.543 2.779 3.804 7.41 6.391 11.886 7.913 3.242 2.891 7.564 5.022 11.732 6.087 5.094 1.521 11.269 2.282 17.598 1.826-12.041 3.347-26.088 1.674-34.732-3.196-3.396-1.826-6.792-4.869-8.182-8.521-.463-1.37-.771-2.891-.617-4.109Z" fill="#F7B23B"/><path d="M549.535 274.969v-6.239c.155 2.13 1.081 4.413 2.779 6.391 8.798 10.956 33.96 13.391 48.779 5.022 2.315-1.37 4.476-2.892 6.02-5.022 1.852-2.282 2.778-4.717 2.778-7.152v7c0 5.782-4.785 10.195-10.033 12.782-5.712 2.891-12.195 4.109-18.678 4.413-6.329.152-12.504-.913-16.826-2.283-4.631-1.521-9.879-4.413-12.658-8.369-1.389-1.978-2.161-4.108-2.161-6.543Z" fill="#F7B23B"/><path d="M607.113 260.817c3.55 4.413 3.705 9.587 0 14.304-1.698 1.978-3.859 3.652-6.02 5.022-14.819 8.521-39.981 5.934-48.779-5.022-2.779-3.348-3.551-7.456-1.853-11.413 1.544-3.347 4.631-5.934 7.873-7.912 10.188-5.783 25.47-6.544 36.893-2.587 4.476 1.521 8.953 3.956 11.886 7.608Zm-4.785 13.087c3.087-3.805 2.932-8.217 0-11.869-7.256-8.978-27.94-11.109-40.135-4.109-1.852 1.065-3.705 2.435-5.094 4.109-3.087 3.804-2.933 8.217 0 11.869 7.255 8.978 27.94 11.108 40.134 4.108 1.853-1.065 3.705-2.434 5.095-4.108Z" fill="#FBC959"/><path d="M602.327 262.035c2.933 3.652 3.088 7.912 0 11.869-1.389 1.674-3.087 3.043-5.094 4.108-12.349 7-33.034 4.87-40.134-4.108-2.933-3.652-3.088-7.913 0-11.869 1.389-1.674 3.087-3.044 5.094-4.109 12.195-7 32.879-4.869 40.134 4.109Zm-16.825 2.13c1.08 0 2.161-.152 3.241-.152a3.568 3.568 0 0 0-2.006-2.739c-.927-.609-2.47-.913-4.168-1.065 0-.305.154-.609.154-.913-.617 0-1.235 0-1.852-.153 0 .305-.155.609-.155.913-2.161 0-3.704.305-4.785.761-1.698.761-2.624 1.674-2.778 3.044-.309 1.673 1.08 2.739 2.624 3.347 1.235.457 2.624.913 3.859 1.065-.309 1.826-.618 3.805-.772 5.631-1.235-.152-2.161-.457-3.087-1.218-.618-.456-.926-1.217-.926-2.13-1.081 0-2.162.152-3.242.152 0 .913.309 1.674.926 2.435.618.609 1.389 1.217 2.316 1.522.926.304 2.161.608 3.704.76-.154.609-.154 1.218-.308 1.826.617 0 1.235 0 1.852.153.154-.609.154-1.218.309-1.826 2.161 0 4.013-.305 5.557-1.066 1.543-.76 2.315-1.826 2.47-3.043.154-1.217-.463-2.283-1.544-2.891-.617-.457-1.389-.761-2.315-1.065-.464-.153-1.544-.305-3.088-.609.309-1.674.463-3.5.772-5.174 1.081.152 1.698.457 2.316.913.463.305.771.913.926 1.522Z" fill="#F7B23B"/><path d="M588.744 264.165c-1.081 0-2.161.152-3.242.152-.154-.761-.463-1.217-.926-1.674-.463-.456-1.235-.608-2.315-.913-.309 1.674-.464 3.5-.772 5.174 1.543.304 2.624.456 3.087.609.926.304 1.698.608 2.315 1.065 1.081.761 1.698 1.674 1.544 2.891-.154 1.217-1.08 2.283-2.47 3.043-1.543.761-3.396 1.066-5.557 1.066-.154.608-.154 1.217-.309 1.826-.617 0-1.234 0-1.852-.153.154-.608.154-1.217.309-1.826a17.286 17.286 0 0 1-3.705-.76c-.926-.305-1.698-.913-2.315-1.522-.618-.609-.927-1.522-.927-2.435 1.081 0 2.161-.152 3.242-.152.154.913.463 1.674.926 2.13.772.609 1.853 1.066 3.087 1.218.309-1.826.618-3.805.772-5.631-1.235-.152-2.47-.608-3.859-1.065-1.543-.608-2.933-1.674-2.624-3.347.154-1.218 1.081-2.283 2.779-3.044 1.08-.456 2.778-.761 4.785-.761 0-.304.154-.608.154-.913.618 0 1.235 0 1.853.152 0 .305-.155.609-.155.913 1.853.153 3.242.609 4.168 1.066 1.235.761 1.852 1.674 2.007 2.891Zm-3.705 7.152c.154-.609-.154-1.218-.617-1.674-.463-.457-1.544-.761-3.242-1.217-.309 1.826-.463 3.652-.772 5.478 1.235 0 2.316-.305 3.087-.761.927-.305 1.544-1.065 1.544-1.826Zm-5.403-4.717c.309-1.674.463-3.348.772-4.87-1.235 0-2.161.305-2.933.761-.772.457-1.235.913-1.235 1.522-.308 1.521 1.698 2.13 3.396 2.587Z" fill="#FBC959"/><path d="M584.422 269.795c.463.457.771.913.617 1.674-.154.761-.617 1.369-1.544 1.826-.926.457-1.852.761-3.087.761.309-1.826.463-3.652.772-5.478 1.698.456 2.779.761 3.242 1.217Zm-4.014-8.217c-.309 1.674-.463 3.348-.772 4.869-1.698-.304-3.859-1.065-3.55-2.739.154-.608.463-1.065 1.235-1.521.772-.305 1.852-.609 3.087-.609Z" fill="#F7B23B"/><path d="M554.012 291.251c-4.477-1.522-9.107-4.261-11.886-7.913-3.396-4.717-3.087-10.195 1.389-14.912 1.853-1.979 4.322-3.5 6.792-4.718a10.623 10.623 0 0 0-.926 4.261v.913c-5.711 4.87-5.557 11.261.463 16.13a12.796 12.796 0 0 0 3.242 5.326l.926.913Z" fill="#FBC959"/><path d="M549.535 283.186c0 .761.309 1.37.309 1.674-6.02-4.717-6.175-11.108-.463-16.13.154 14.152 0 13.847.154 14.456Zm-3.241 11.108c1.234.913 2.932 1.979 5.248 3.044l.617.304c10.96 8.369 32.571 9.282 45.538 1.826 3.55-1.978 6.946-5.021 8.335-8.978l.618-.609v4.413-.304c0 1.674-.309 3.5-1.081 5.022-.463.913-1.235 2.13-2.006 3.043-.309.456-1.081 1.065-1.39 1.369-12.658 11.565-42.295 10.5-52.638-1.369-2.161-2.283-3.396-4.869-3.241-7.761-.155-.152-.155-.152 0 0-.155-.152 0 0 0 0ZM95.088 432.616v-6.239c.155 2.13 1.08 4.413 2.779 6.391 8.799 10.956 33.96 13.391 48.779 5.021 2.315-1.369 4.476-2.891 6.02-5.021 1.852-2.283 2.779-4.717 2.779-7.152v7c0 5.782-4.786 10.195-10.034 12.782-5.711 2.891-12.195 4.108-18.678 4.413-6.329.152-12.504-.913-16.826-2.283-4.631-1.522-9.879-4.413-12.657-8.369-1.235-1.978-2.162-4.109-2.162-6.543Z" fill="#F7B23B"/><path d="M152.82 418.464c3.551 4.413 3.705 9.587 0 14.304-1.698 1.978-3.859 3.652-6.02 5.021-14.819 8.522-39.98 5.935-48.779-5.021-2.778-3.348-3.55-7.456-1.852-11.413 1.543-3.348 4.631-5.934 7.872-7.913 10.188-5.782 25.47-6.543 36.893-2.587 4.477 1.522 8.953 3.957 11.886 7.609Zm-4.939 13.086c3.087-3.804 2.933-8.217 0-11.869-7.255-8.978-27.94-11.108-40.135-4.108-1.852 1.065-3.705 2.434-5.094 4.108-3.087 3.804-2.933 8.217 0 11.869 7.255 8.978 27.94 11.109 40.135 4.109 2.006-1.065 3.704-2.435 5.094-4.109Z" fill="#FBC959"/><path d="M147.881 419.681c2.933 3.652 3.087 7.913 0 11.869-1.39 1.674-3.088 3.044-5.094 4.109-12.35 7-33.034 4.869-40.135-4.109-2.933-3.652-3.087-7.912 0-11.869 1.389-1.674 3.087-3.043 5.094-4.108 12.349-7 33.034-4.87 40.135 4.108Zm-16.672 2.131c1.081 0 2.161-.153 3.242-.153a3.57 3.57 0 0 0-2.007-2.739c-.926-.608-2.47-.913-4.168-1.065 0-.304.155-.608.155-.913-.618 0-1.235 0-1.853-.152 0 .304-.154.609-.154.913-2.161 0-3.705.304-4.785.761-1.698.761-2.624 1.674-2.779 3.043-.309 1.674 1.081 2.739 2.624 3.348 1.235.457 2.625.913 3.859 1.065-.308 1.826-.617 3.804-.771 5.63-1.235-.152-2.161-.456-3.088-1.217-.617-.456-.926-1.217-.926-2.13-1.08 0-2.161.152-3.241.152 0 .913.308 1.674.926 2.435.617.608 1.389 1.217 2.315 1.521.926.305 2.161.609 3.705.761-.154.609-.154 1.217-.309 1.826.618 0 1.235 0 1.853.152.154-.608.154-1.217.308-1.826 2.161 0 4.014-.304 5.557-1.065 1.544-.761 2.316-1.826 2.47-3.043.155-1.218-.463-2.283-1.543-2.891-.618-.457-1.39-.761-2.316-1.066-.463-.152-1.544-.304-3.087-.608.309-1.674.463-3.5.772-5.174 1.08.152 1.698.456 2.315.913.463.304.772.913.926 1.522Z" fill="#F7B23B"/><path d="M134.451 421.812c-1.08 0-2.161.152-3.241.152-.155-.761-.463-1.217-.927-1.674-.463-.457-1.234-.609-2.315-.913-.309 1.674-.463 3.5-.772 5.174 1.544.304 2.624.456 3.087.608.927.305 1.698.609 2.316 1.066 1.08.76 1.698 1.673 1.544 2.891-.155 1.217-1.081 2.282-2.47 3.043-1.39.761-3.396 1.065-5.557 1.065-.155.609-.155 1.218-.309 1.826-.618 0-1.235 0-1.852-.152.154-.609.154-1.217.308-1.826a17.22 17.22 0 0 1-3.704-.761c-.927-.304-1.698-.913-2.316-1.521-.617-.609-.926-1.522-.926-2.435 1.08 0 2.161-.152 3.242-.152.154.913.463 1.674.926 2.13.772.609 1.852 1.065 3.087 1.217.309-1.826.617-3.804.772-5.63-1.235-.152-2.47-.608-3.859-1.065-1.544-.609-2.933-1.674-2.624-3.348.154-1.217 1.08-2.282 2.778-3.043 1.081-.457 2.779-.761 4.785-.761 0-.304.155-.609.155-.913.617 0 1.235 0 1.852.152 0 .305-.154.609-.154.913 1.852.152 3.241.609 4.168 1.065 1.234.761 1.852 1.674 2.006 2.892Zm-3.704 7.304c.154-.609-.155-1.218-.618-1.674-.463-.457-1.544-.761-3.242-1.217-.308 1.826-.463 3.652-.771 5.478 1.235 0 2.315-.305 3.087-.761.926-.457 1.389-1.065 1.544-1.826Zm-5.403-4.87c.309-1.674.463-3.347.772-4.869-1.235 0-2.161.304-2.933.761-.772.456-1.235.913-1.235 1.522-.463 1.521 1.698 2.13 3.396 2.586Z" fill="#FBC959"/><path d="M130.129 427.442c.463.456.772.913.618 1.674-.155.761-.618 1.369-1.544 1.826-.926.456-1.852.761-3.087.761.308-1.826.463-3.652.772-5.478 1.698.456 2.778.76 3.241 1.217Zm-4.013-8.217c-.309 1.674-.464 3.348-.772 4.869-1.698-.304-3.859-1.065-3.551-2.739.155-.609.463-1.065 1.235-1.522.772-.304 1.853-.456 3.088-.608Z" fill="#F7B23B"/></g><defs><linearGradient id="b" x1="105.676" y1="361.001" x2="656.917" y2="361.001" gradientUnits="userSpaceOnUse"><stop stop-color="#5FACB1"/><stop offset="1" stop-color="#2B7C56"/></linearGradient><clipPath id="a"><path fill="#fff" d="M0 0h711v635H0z"/></clipPath></defs></svg>