<svg width="1124" height="1144" fill="none" xmlns="http://www.w3.org/2000/svg"><path fill-rule="evenodd" clip-rule="evenodd" d="M342.491-278.527c-.399-1.487.962-2.848 2.449-2.449l76.96 20.621c1.487.398 1.985 2.257.896 3.346l-56.338 56.338c-1.089 1.089-2.948.591-3.346-.896l-20.621-76.96Zm-91.924 91.924c-.399-1.487.962-2.848 2.449-2.45l76.96 20.622c1.487.398 1.985 2.257.896 3.346l-56.338 56.338c-1.088 1.089-2.947.591-3.346-.897l-20.621-76.959Zm-89.474 89.474c-1.488-.398-2.848.963-2.45 2.45l20.621 76.96c.399 1.486 2.258 1.985 3.346.896l56.339-56.338c1.088-1.089.59-2.948-.897-3.346L161.093-97.13ZM66.719-2.755c-.398-1.487.963-2.848 2.45-2.45l76.959 20.621c1.487.399 1.985 2.258.897 3.346L90.686 75.102c-1.088 1.088-2.947.59-3.346-.897L66.72-2.756Zm-89.474 89.474c-1.487-.398-2.848.962-2.45 2.45l20.621 76.959c.399 1.487 2.258 1.985 3.347.897L55.1 110.686c1.089-1.088.59-2.947-.897-3.346l-76.96-20.62Zm-94.374 94.373c-.398-1.487.963-2.848 2.45-2.449l76.96 20.621c1.486.399 1.985 2.258.896 3.346l-56.338 56.339c-1.089 1.088-2.948.59-3.346-.897l-20.622-76.96Zm-89.474 89.475c-1.487-.399-2.848.962-2.449 2.449l20.621 76.96c.398 1.487 2.257 1.985 3.346.896l56.338-56.338c1.089-1.089.591-2.947-.896-3.346l-76.96-20.621Zm-94.373 94.373c-.399-1.487.962-2.848 2.449-2.449l76.96 20.621c1.487.398 1.985 2.257.896 3.346l-56.338 56.338c-1.089 1.089-2.948.591-3.346-.896l-20.621-76.96Zm716.627-575.206c-1.487-.398-2.848.963-2.45 2.45l20.622 76.959c.398 1.487 2.257 1.985 3.346.897l56.338-56.338c1.089-1.089.591-2.948-.897-3.347l-76.959-20.621Zm-94.373 94.374c-.399-1.488.962-2.848 2.449-2.45l76.96 20.621c1.487.399 1.985 2.258.896 3.346l-56.338 56.339c-1.089 1.088-2.948.59-3.346-.897l-20.621-76.959Zm-89.475 89.474c-1.487-.399-2.848.962-2.449 2.45l20.621 76.959c.398 1.487 2.257 1.985 3.346.897l56.338-56.339c1.089-1.088.591-2.947-.896-3.346l-76.96-20.621ZM137.43 67.955c-.399-1.487.962-2.848 2.449-2.45l76.96 20.622c1.487.399 1.985 2.258.896 3.346l-56.338 56.338c-1.089 1.089-2.947.591-3.346-.896l-20.621-76.96ZM47.955 157.43c-1.487-.399-2.847.962-2.449 2.449l20.621 76.96c.399 1.487 2.258 1.985 3.346.896l56.338-56.338c1.089-1.089.591-2.948-.896-3.346l-76.96-20.621Zm-94.373 94.373c-.398-1.487.962-2.848 2.45-2.449l76.96 20.621c1.486.398 1.984 2.257.896 3.346l-56.339 56.338c-1.088 1.089-2.947.591-3.346-.896l-20.62-76.96Zm-89.474 89.474c-1.487-.398-2.848.963-2.45 2.45l20.621 76.959c.399 1.488 2.258 1.986 3.347.897l56.338-56.338c1.088-1.089.59-2.948-.897-3.346l-76.959-20.622Zm-94.374 94.374c-.398-1.487.963-2.848 2.45-2.45l76.959 20.622c1.487.398 1.986 2.257.897 3.346l-56.338 56.338c-1.089 1.089-2.948.591-3.346-.897l-20.622-76.959Zm716.628-575.206c-1.487-.399-2.848.962-2.45 2.449l20.621 76.96c.399 1.487 2.258 1.985 3.346.897l56.339-56.339c1.088-1.088.59-2.947-.897-3.346l-76.959-20.621Zm-94.374 94.373c-.398-1.487.963-2.848 2.45-2.45l76.959 20.622c1.487.399 1.986 2.257.897 3.346l-56.338 56.338c-1.089 1.089-2.948.59-3.347-.896l-20.621-76.96Zm-89.474 89.475c-1.487-.399-2.848.962-2.45 2.45l20.622 76.959c.398 1.487 2.257 1.985 3.346.896L380.37 68.26c1.089-1.089.591-2.948-.897-3.346l-76.959-20.621Zm-94.373 94.373c-.399-1.487.962-2.848 2.449-2.449l76.959 20.621c1.488.398 1.986 2.257.897 3.346l-56.338 56.338c-1.089 1.089-2.948.591-3.346-.896l-20.621-76.96Zm-89.475 89.474c-1.487-.398-2.848.963-2.449 2.45l20.621 76.959c.398 1.488 2.257 1.986 3.346.897l56.338-56.338c1.089-1.089.591-2.948-.896-3.346l-76.96-20.622Zm-94.373 94.374c-.399-1.487.962-2.848 2.45-2.45l76.959 20.622c1.487.398 1.985 2.257.896 3.346L48.26 400.37c-1.089 1.089-2.947.59-3.346-.897l-20.621-76.959Zm-89.475 89.474c-1.487-.398-2.848.963-2.45 2.45l20.622 76.959c.399 1.487 2.258 1.985 3.346.897l56.338-56.339c1.09-1.088.591-2.947-.896-3.346l-76.96-20.621Zm-94.373 94.374c-.398-1.488.962-2.848 2.449-2.45l76.96 20.621c1.487.399 1.985 2.258.897 3.346l-56.339 56.339c-1.088 1.088-2.947.59-3.346-.897l-20.621-76.959ZM557.072-68.844c-1.487-.399-2.848.962-2.449 2.45l20.621 76.959c.399 1.487 2.257 1.985 3.346.896l56.338-56.338c1.089-1.089.591-2.948-.896-3.346l-76.96-20.621Zm-94.373 94.373c-.399-1.487.962-2.848 2.449-2.45l76.96 20.622c1.487.398 1.985 2.257.897 3.346l-56.339 56.338c-1.088 1.089-2.947.591-3.346-.897l-20.621-76.959Zm-89.474 89.474c-1.488-.398-2.848.963-2.45 2.45l20.621 76.959c.399 1.487 2.258 1.986 3.346.897l56.339-56.338c1.088-1.089.59-2.948-.897-3.346l-76.959-20.622Zm-94.374 94.374c-.398-1.487.963-2.848 2.45-2.45l76.959 20.621c1.487.399 1.985 2.258.897 3.347l-56.339 56.338c-1.088 1.088-2.947.59-3.346-.897l-20.621-76.959Zm-89.474 89.474c-1.487-.398-2.848.962-2.45 2.45l20.622 76.959c.398 1.487 2.257 1.985 3.346.897l56.338-56.339c1.089-1.088.59-2.947-.897-3.346l-76.959-20.621Zm-94.374 94.373c-.398-1.487.963-2.848 2.45-2.449l76.959 20.621c1.488.399 1.986 2.258.897 3.346l-56.338 56.339c-1.089 1.088-2.948.59-3.346-.897l-20.622-76.96ZM5.53 482.699c-1.487-.399-2.848.962-2.45 2.449l20.622 76.96c.398 1.487 2.257 1.985 3.346.896l56.338-56.338c1.089-1.089.59-2.947-.897-3.346L5.53 482.699Zm-94.373 94.373c-.399-1.487.962-2.848 2.45-2.449l76.959 20.621c1.487.398 1.985 2.257.896 3.346l-56.338 56.338c-1.089 1.089-2.948.591-3.346-.896l-20.621-76.96Zm808.551-667.13c-1.487-.398-2.848.963-2.45 2.45l20.622 76.96c.398 1.486 2.257 1.985 3.346.896l56.338-56.338c1.089-1.089.591-2.948-.897-3.346l-76.959-20.622ZM625.333 4.316c-.398-1.487.963-2.848 2.45-2.45l76.959 20.622c1.488.398 1.986 2.257.897 3.346l-56.338 56.338c-1.089 1.088-2.948.59-3.346-.897l-20.622-76.96ZM535.859 93.79c-1.487-.398-2.848.962-2.449 2.45l20.621 76.959c.398 1.487 2.257 1.985 3.346.897l56.338-56.339c1.089-1.088.591-2.947-.896-3.346l-76.96-20.62Zm-94.373 94.374c-.399-1.488.962-2.848 2.449-2.45l76.96 20.621c1.487.399 1.985 2.258.896 3.346l-56.338 56.339c-1.089 1.088-2.948.59-3.346-.897l-20.621-76.959Zm-89.475 89.474c-1.487-.399-2.848.962-2.449 2.449l20.621 76.96c.399 1.487 2.257 1.985 3.346.896l56.338-56.338c1.089-1.088.591-2.947-.896-3.346l-76.96-20.621Zm-94.373 94.373c-.398-1.487.962-2.848 2.449-2.449l76.96 20.621c1.487.399 1.985 2.257.897 3.346l-56.339 56.338c-1.088 1.089-2.947.591-3.346-.896l-20.621-76.96Zm-89.474 89.475c-1.488-.399-2.848.962-2.45 2.449l20.621 76.96c.399 1.487 2.258 1.985 3.346.896l56.339-56.338c1.088-1.089.59-2.948-.897-3.346l-76.959-20.621ZM73.79 555.859c-.398-1.487.963-2.848 2.45-2.449l76.959 20.621c1.487.398 1.985 2.257.897 3.346l-56.339 56.338c-1.088 1.089-2.947.591-3.346-.896l-20.62-76.96Zm-89.474 89.474c-1.487-.398-2.848.963-2.45 2.45l20.622 76.959c.398 1.488 2.257 1.986 3.346.897l56.338-56.338c1.089-1.089.59-2.948-.897-3.346l-76.96-20.622Zm-94.374 94.374c-.398-1.487.963-2.848 2.45-2.45l76.96 20.622c1.487.398 1.985 2.257.896 3.346l-56.338 56.338c-1.089 1.089-2.948.59-3.346-.897l-20.622-76.959Zm992.399-850.978c-1.487-.398-2.848.963-2.449 2.45l20.621 76.96c.399 1.486 2.258 1.984 3.346.896l56.339-56.338c1.088-1.09.59-2.948-.897-3.347l-76.96-20.621Zm-94.373 94.373c-.398-1.487.962-2.847 2.45-2.449l76.959 20.621c1.487.399 1.985 2.258.897 3.346L811.935 60.96c-1.088 1.088-2.947.59-3.346-.897l-20.621-76.96Zm-89.474 89.475c-1.487-.398-2.848.962-2.45 2.45l20.621 76.959c.399 1.487 2.258 1.985 3.346.897l56.339-56.339c1.088-1.088.59-2.947-.897-3.346l-76.959-20.621ZM604.12 166.95c-.398-1.487.963-2.848 2.45-2.449l76.959 20.621c1.487.399 1.986 2.257.897 3.346l-56.338 56.338c-1.089 1.089-2.948.591-3.346-.896l-20.622-76.96Zm-89.474 89.475c-1.487-.399-2.848.962-2.45 2.449l20.622 76.96c.398 1.487 2.257 1.985 3.346.896l56.338-56.338c1.089-1.089.591-2.948-.897-3.346l-76.959-20.621Zm-94.373 94.373c-.399-1.487.962-2.848 2.449-2.449l76.96 20.621c1.487.398 1.985 2.257.896 3.346l-56.338 56.338c-1.089 1.089-2.948.591-3.346-.896l-20.621-76.96Zm-89.475 89.474c-1.487-.398-2.848.963-2.449 2.45l20.621 76.959c.398 1.488 2.257 1.986 3.346.897l56.338-56.338c1.089-1.089.591-2.948-.896-3.346l-76.96-20.622Zm-94.373 94.374c-.399-1.487.962-2.848 2.449-2.45l76.96 20.622c1.487.398 1.985 2.257.896 3.346l-56.338 56.338c-1.089 1.089-2.948.59-3.346-.897l-20.621-76.959ZM146.95 624.12c-1.487-.398-2.848.963-2.449 2.45l20.621 76.959c.399 1.487 2.258 1.985 3.346.897l56.338-56.339c1.089-1.088.591-2.947-.896-3.346l-76.96-20.621Zm-94.373 94.374c-.398-1.488.962-2.848 2.45-2.45l76.959 20.621c1.487.399 1.985 2.258.897 3.346L76.544 796.35c-1.088 1.088-2.947.59-3.346-.897l-20.621-76.959Zm-89.474 89.474c-1.488-.399-2.848.962-2.45 2.45l20.621 76.959c.399 1.487 2.258 1.985 3.346.897l56.339-56.339c1.088-1.088.59-2.947-.897-3.346l-76.96-20.621Zm-94.374 94.373c-.398-1.487.963-2.848 2.45-2.449l76.96 20.621c1.486.399 1.984 2.258.896 3.346l-56.338 56.338c-1.089 1.089-2.948.591-3.346-.896l-20.622-76.96ZM1044.98-132.484c-1.49-.399-2.85.962-2.45 2.449l20.62 76.96c.4 1.487 2.26 1.985 3.34.897l56.34-56.339c1.09-1.088.59-2.947-.89-3.346l-76.96-20.621Zm-94.377 94.373c-.399-1.487.962-2.848 2.449-2.45l76.958 20.622c1.49.399 1.99 2.258.9 3.346l-56.34 56.338c-1.089 1.09-2.948.591-3.346-.896l-20.621-76.96Zm-89.475 89.475c-1.487-.399-2.848.962-2.449 2.45l20.621 76.959c.398 1.487 2.257 1.985 3.346.896l56.338-56.338c1.089-1.089.591-2.948-.896-3.346l-76.96-20.621Zm-94.373 94.373c-.399-1.487.962-2.848 2.449-2.449l76.96 20.621c1.487.398 1.985 2.257.896 3.346l-56.338 56.338c-1.088 1.089-2.947.591-3.346-.896l-20.621-76.96Zm-89.475 89.475c-1.487-.399-2.848.962-2.449 2.449l20.621 76.959c.399 1.488 2.258 1.986 3.346.897l56.338-56.338c1.089-1.089.591-2.948-.896-3.346l-76.96-20.621Zm-94.373 94.373c-.398-1.487.962-2.848 2.45-2.45l76.959 20.622c1.487.398 1.985 2.257.897 3.346l-56.339 56.338c-1.088 1.089-2.947.591-3.346-.897l-20.621-76.959Zm-89.474 89.474c-1.487-.398-2.848.963-2.45 2.45l20.621 76.959c.399 1.487 2.258 1.985 3.347.897l56.338-56.338c1.088-1.089.59-2.948-.897-3.346l-76.959-20.622Zm-94.374 94.374c-.398-1.488.963-2.848 2.45-2.45l76.959 20.621c1.487.399 1.986 2.258.897 3.346l-56.338 56.339c-1.089 1.088-2.948.59-3.346-.897l-20.622-76.959Zm-89.474 89.474c-1.487-.398-2.848.962-2.45 2.449l20.622 76.96c.398 1.487 2.257 1.985 3.346.897l56.338-56.339c1.089-1.088.591-2.947-.897-3.346l-76.959-20.621Zm-94.373 94.373c-.399-1.487.962-2.848 2.449-2.449l76.96 20.621c1.487.399 1.985 2.258.896 3.346l-56.338 56.339c-1.089 1.088-2.948.59-3.346-.897l-20.621-76.96Zm-89.475 89.475c-1.487-.399-2.848.962-2.449 2.449l20.621 76.96c.398 1.487 2.257 1.985 3.346.896l56.338-56.338c1.089-1.089.591-2.948-.896-3.346l-76.96-20.621Zm-94.373 94.373c-.399-1.487.962-2.848 2.45-2.449l76.959 20.621c1.487.398 1.985 2.257.896 3.346l-56.338 56.338c-1.089 1.089-2.948.591-3.346-.896l-20.621-76.96Zm-89.475 89.475c-1.487-.399-2.848.962-2.45 2.449l20.622 76.958c.399 1.49 2.258 1.99 3.346.9l56.339-56.34c1.088-1.089.59-2.948-.897-3.346l-76.96-20.621Zm-94.373 94.377c-.398-1.49.962-2.85 2.45-2.45l76.959 20.62c1.487.4 1.985 2.26.897 3.34l-56.339 56.34c-1.088 1.09-2.947.59-3.346-.89l-20.621-76.96Z" fill="url(#a)"/><defs><linearGradient id="a" x1="-26.192" y1="-23.16" x2="751.5" y2="445" gradientUnits="userSpaceOnUse"><stop offset=".121" stop-color="#99FFF0"/><stop offset=".374" stop-color="#1A6358"/><stop offset="1" stop-color="#020E0C"/></linearGradient></defs></svg>