<svg width="1086" height="1454" fill="none" xmlns="http://www.w3.org/2000/svg"><path fill-rule="evenodd" clip-rule="evenodd" d="M770.419 66.11c.906 1.246.124 3.004-1.407 3.166l-79.234 8.367c-1.531.161-2.663-1.395-2.038-2.802l32.371-72.802c.626-1.407 2.54-1.609 3.445-.364l46.863 64.436Zm91.374 40.63c.906 1.245.124 3.003-1.407 3.165l-79.234 8.367c-1.531.162-2.663-1.395-2.037-2.802l32.371-72.802c.625-1.406 2.539-1.608 3.445-.363l46.862 64.435Zm91.375 40.629c.905 1.245.123 3.004-1.408 3.165l-79.234 8.367c-1.531.162-2.663-1.395-2.037-2.801l32.371-72.802c.626-1.407 2.539-1.61 3.445-.364l46.863 64.435Zm91.372 40.629c.91 1.246.13 3.004-1.41 3.166l-79.229 8.366c-1.531.162-2.663-1.394-2.038-2.801l32.371-72.802c.626-1.407 2.54-1.609 3.445-.364l46.861 64.435Zm91.38 40.63c.9 1.245.12 3.003-1.41 3.165l-79.24 8.367c-1.53.161-2.66-1.395-2.03-2.802l32.37-72.802c.62-1.406 2.54-1.609 3.44-.363l46.87 64.435Zm91.37 40.629c.91 1.245.12 3.004-1.41 3.165l-79.23 8.367c-1.53.162-2.66-1.395-2.04-2.801l32.37-72.802c.63-1.407 2.54-1.609 3.45-.364l46.86 64.435Zm91.37 40.629c.91 1.245.13 3.004-1.4 3.166l-79.24 8.366c-1.53.162-2.66-1.394-2.03-2.801l32.37-72.802c.62-1.407 2.54-1.609 3.44-.364l46.86 64.435Zm91.38 40.63c.9 1.245.12 3.003-1.41 3.165l-79.23 8.367c-1.53.161-2.67-1.395-2.04-2.802l32.37-72.802c.63-1.406 2.54-1.609 3.45-.363l46.86 64.435Zm-54.23 121.952c1.53-.162 2.32-1.921 1.41-3.166l-46.86-64.435c-.91-1.245-2.82-1.043-3.45.364l-32.37 72.802c-.62 1.407.51 2.963 2.04 2.801l79.23-8.366Zm-51.41 115.621c.91 1.245.13 3.003-1.4 3.165l-79.24 8.367c-1.53.161-2.66-1.395-2.04-2.802l32.38-72.802c.62-1.406 2.53-1.608 3.44-.363l46.86 64.435Zm-54.22 121.952c1.53-.162 2.31-1.921 1.4-3.166l-46.86-64.435c-.9-1.245-2.82-1.043-3.44.364l-32.37 72.802c-.63 1.407.5 2.963 2.03 2.801l79.24-8.366Zm-51.41 115.621c.9 1.245.12 3.004-1.41 3.165l-79.23 8.367c-1.54.162-2.67-1.395-2.04-2.802l32.37-72.801c.62-1.407 2.54-1.609 3.44-.364l46.87 64.435Zm-54.23 121.952c1.53-.162 2.31-1.92 1.41-3.165l-46.86-64.436c-.91-1.245-2.82-1.043-3.45.364l-32.37 72.802c-.63 1.407.51 2.963 2.04 2.802l79.23-8.367Zm-51.41 115.626c.91 1.24.12 3-1.41 3.16l-79.23 8.37c-1.53.16-2.66-1.4-2.04-2.8l32.37-72.806c.63-1.407 2.54-1.609 3.45-.364l46.86 64.44Zm-54.23 121.95c1.54-.16 2.32-1.92 1.41-3.17l-46.86-64.43c-.906-1.25-2.82-1.05-3.445.36l-32.371 72.8c-.626 1.41.506 2.97 2.037 2.8l79.229-8.36Zm-51.406 115.62c.906 1.24.124 3-1.407 3.16l-79.234 8.37c-1.531.16-2.663-1.39-2.037-2.8l32.371-72.8c.625-1.41 2.539-1.61 3.445-.37l46.862 64.44Zm-54.225 121.95c1.531-.16 2.313-1.92 1.407-3.17l-46.862-64.43c-.906-1.25-2.82-1.04-3.445.36l-32.372 72.81c-.625 1.4.507 2.96 2.038 2.8l79.234-8.37Zm-51.411 115.62c.906 1.25.124 3-1.407 3.17l-79.234 8.36c-1.531.17-2.663-1.39-2.038-2.8l32.371-72.8c.626-1.41 2.54-1.61 3.445-.36l46.863 64.43Zm-54.226 121.95c1.532-.16 2.314-1.92 1.408-3.16l-46.863-64.44c-.905-1.24-2.819-1.04-3.445.37l-32.371 72.8c-.625 1.41.507 2.96 2.038 2.8l79.233-8.37Zm-51.41 115.62c.905 1.25.123 3.01-1.408 3.17l-79.233 8.37c-1.531.16-2.663-1.4-2.038-2.81l32.371-72.8c.626-1.4 2.54-1.61 3.445-.36l46.863 64.43Zm-52.818 118.79c.905 1.25.123 3-1.408 3.17l-79.234 8.36c-1.531.16-2.663-1.39-2.037-2.8l32.371-72.8c.626-1.41 2.54-1.61 3.445-.36l46.863 64.43Zm-92.782-37.46c1.531-.16 2.313-1.92 1.408-3.17l-46.863-64.43c-.906-1.25-2.82-1.05-3.445.36l-32.371 72.8c-.626 1.41.506 2.97 2.037 2.8l79.234-8.36Zm54.226-121.95c.905 1.24.123 3-1.408 3.16l-79.234 8.37c-1.531.16-2.663-1.4-2.037-2.8l32.371-72.81c.626-1.4 2.539-1.61 3.445-.36l46.863 64.44Zm51.41-115.63c1.531-.16 2.313-1.92 1.408-3.16l-46.863-64.44c-.906-1.24-2.819-1.04-3.445.37l-32.371 72.8c-.626 1.41.506 2.96 2.037 2.8l79.234-8.37Zm54.226-121.95c.905 1.25.123 3.01-1.408 3.17l-79.233 8.36c-1.532.17-2.664-1.39-2.038-2.8l32.371-72.8c.626-1.41 2.54-1.61 3.445-.36l46.863 64.43Zm51.41-115.62c1.532-.16 2.313-1.92 1.408-3.16l-46.863-64.44c-.905-1.24-2.819-1.04-3.445.36l-32.371 72.81c-.625 1.4.507 2.96 2.038 2.8l79.233-8.37Zm54.226-121.95c.906 1.24.124 3-1.407 3.16l-79.234 8.37c-1.531.16-2.663-1.39-2.038-2.8l32.371-72.8c.626-1.41 2.54-1.61 3.445-.37l46.863 64.44Zm51.411-115.62c1.531-.16 2.313-1.92 1.407-3.17l-46.863-64.43c-.905-1.25-2.819-1.05-3.445.36l-32.371 72.8c-.625 1.41.507 2.97 2.038 2.8l79.234-8.36Zm54.229-121.95c.9 1.24.12 3-1.41 3.16l-79.235 8.37c-1.531.16-2.663-1.4-2.038-2.8l32.372-72.806c.625-1.406 2.539-1.608 3.445-.363l46.866 64.439Zm51.41-115.625c1.53-.162 2.31-1.921 1.4-3.166l-46.86-64.435c-.9-1.245-2.82-1.043-3.44.364l-32.374 72.802c-.626 1.406.506 2.963 2.037 2.801l79.237-8.366Zm54.22-121.952c.91 1.245.13 3.003-1.4 3.165l-79.24 8.367c-1.53.161-2.66-1.395-2.04-2.802l32.37-72.802c.63-1.407 2.54-1.609 3.45-.364l46.86 64.436Zm51.41-115.622c1.53-.161 2.32-1.92 1.41-3.165l-46.86-64.435c-.91-1.245-2.82-1.043-3.45.364l-32.37 72.802c-.62 1.406.51 2.963 2.04 2.801l79.23-8.367Zm54.23-121.951c.9 1.245.12 3.003-1.41 3.165l-79.23 8.367c-1.53.161-2.67-1.395-2.04-2.802l32.37-72.802c.63-1.407 2.54-1.609 3.45-.364l46.86 64.436Zm51.41-115.622c1.53-.161 2.31-1.92 1.41-3.165l-46.87-64.435c-.9-1.245-2.82-1.043-3.44.364l-32.37 72.801c-.63 1.407.5 2.964 2.04 2.802l79.23-8.367ZM539.248 1816.65c1.531-.16 2.313-1.92 1.407-3.17l-46.862-64.43c-.906-1.25-2.82-1.05-3.445.36l-32.372 72.8c-.625 1.41.507 2.97 2.038 2.8l79.234-8.36Zm54.225-121.95c.906 1.24.124 3-1.407 3.16l-79.234 8.37c-1.531.16-2.663-1.4-2.037-2.8l32.371-72.81c.625-1.4 2.539-1.6 3.445-.36l46.862 64.44Zm51.411-115.63c1.531-.16 2.313-1.92 1.407-3.16l-46.862-64.44c-.906-1.24-2.82-1.04-3.445.37l-32.371 72.8c-.626 1.41.506 2.96 2.037 2.8l79.234-8.37Zm54.225-121.95c.906 1.25.124 3.01-1.407 3.17l-79.234 8.36c-1.531.17-2.663-1.39-2.037-2.8l32.371-72.8c.625-1.41 2.539-1.61 3.445-.36l46.862 64.43Zm51.411-115.62c1.531-.16 2.313-1.92 1.408-3.16l-46.863-64.44c-.906-1.24-2.82-1.04-3.445.36l-32.371 72.81c-.626 1.4.506 2.96 2.037 2.8l79.234-8.37Zm54.226-121.95c.905 1.24.123 3-1.408 3.16l-79.234 8.37c-1.531.16-2.663-1.39-2.037-2.8l32.371-72.8c.626-1.41 2.539-1.61 3.445-.37l46.863 64.44Zm51.41-115.62c1.531-.16 2.313-1.92 1.408-3.17l-46.863-64.43c-.905-1.25-2.819-1.05-3.445.36l-32.371 72.8c-.625 1.41.506 2.97 2.038 2.81l79.233-8.37Zm54.226-121.954c.905 1.246.124 3.004-1.407 3.166l-79.234 8.366c-1.531.162-2.663-1.394-2.038-2.801l32.371-72.802c.626-1.407 2.54-1.609 3.445-.364l46.863 64.435Zm51.411-115.621c1.531-.161 2.313-1.92 1.407-3.165l-46.863-64.435c-.905-1.245-2.819-1.043-3.445.364l-32.371 72.801c-.625 1.407.507 2.964 2.038 2.802l79.234-8.367Zm54.227-121.952c.9 1.245.12 3.004-1.41 3.166l-79.233 8.366c-1.531.162-2.663-1.394-2.038-2.801l32.371-72.802c.626-1.407 2.54-1.609 3.445-.364l46.865 64.435Zm51.41-115.621c1.53-.162 2.31-1.92 1.41-3.165l-46.87-64.435c-.9-1.246-2.82-1.043-3.44.363l-32.372 72.802c-.626 1.407.506 2.963 2.037 2.802l79.235-8.367Zm54.22-121.952c.91 1.245.13 3.004-1.4 3.165l-79.24 8.367c-1.53.162-2.66-1.395-2.03-2.801l32.37-72.802c.62-1.407 2.54-1.609 3.44-.364l46.86 64.435Zm51.41-115.621c1.54-.162 2.32-1.92 1.41-3.165l-46.86-64.436c-.91-1.245-2.82-1.043-3.45.364l-32.37 72.802c-.62 1.407.51 2.963 2.04 2.802l79.23-8.367ZM447.873 1776.02c1.532-.16 2.313-1.92 1.408-3.17l-46.863-64.43c-.905-1.25-2.819-1.05-3.445.36l-32.371 72.8c-.625 1.41.507 2.97 2.038 2.81l79.233-8.37Zm54.226-121.95c.906 1.24.124 3-1.407 3.16l-79.234 8.37c-1.531.16-2.663-1.4-2.038-2.8l32.371-72.8c.626-1.41 2.54-1.61 3.445-.37l46.863 64.44Zm51.411-115.62c1.531-.17 2.313-1.92 1.407-3.17l-46.863-64.44c-.905-1.24-2.819-1.04-3.445.37l-32.371 72.8c-.625 1.41.507 2.96 2.038 2.8l79.234-8.36Zm54.225-121.96c.906 1.25.124 3.01-1.407 3.17l-79.234 8.37c-1.531.16-2.663-1.4-2.038-2.81l32.372-72.8c.625-1.4 2.539-1.61 3.445-.36l46.862 64.43Zm51.411-115.62c1.531-.16 2.313-1.92 1.407-3.16l-46.862-64.44c-.906-1.24-2.82-1.04-3.445.37l-32.371 72.8c-.626 1.4.506 2.96 2.037 2.8l79.234-8.37Zm54.225-121.95c.906 1.25.124 3-1.407 3.17l-79.234 8.36c-1.531.16-2.663-1.39-2.037-2.8l32.371-72.8c.625-1.41 2.539-1.61 3.445-.36l46.862 64.43Zm51.411-115.62c1.531-.16 2.313-1.92 1.408-3.17l-46.863-64.431c-.906-1.246-2.82-1.043-3.445.363l-32.371 72.798c-.626 1.41.506 2.97 2.037 2.81l79.234-8.37Zm54.226-121.953c.905 1.245.123 3.004-1.408 3.165l-79.234 8.367c-1.531.162-2.663-1.395-2.037-2.801l32.371-72.802c.626-1.407 2.539-1.609 3.445-.364l46.863 64.435Zm51.41-115.621c1.531-.162 2.313-1.92 1.408-3.165l-46.863-64.436c-.905-1.245-2.819-1.043-3.445.364l-32.371 72.802c-.626 1.407.506 2.963 2.037 2.802l79.234-8.367Zm54.226-121.952c.905 1.245.123 3.004-1.408 3.165l-79.233 8.367c-1.532.162-2.663-1.395-2.038-2.802l32.371-72.801c.626-1.407 2.54-1.609 3.445-.364l46.863 64.435Zm51.411-115.621c1.531-.162 2.313-1.92 1.407-3.166l-46.863-64.435c-.905-1.245-2.819-1.043-3.445.364l-32.371 72.802c-.625 1.407.507 2.963 2.038 2.801l79.234-8.366Zm54.225-121.952c.91 1.245.12 3.004-1.41 3.165l-79.231 8.367c-1.531.162-2.663-1.395-2.038-2.802l32.371-72.801c.626-1.407 2.54-1.609 3.445-.364l46.863 64.435Zm51.41-115.621c1.53-.162 2.31-1.921 1.41-3.166l-46.86-64.435c-.91-1.245-2.82-1.043-3.45.364l-32.37 72.802c-.626 1.407.51 2.963 2.04 2.801l79.23-8.366ZM356.499 1735.39c1.531-.16 2.313-1.92 1.408-3.17l-46.863-64.43c-.906-1.25-2.819-1.04-3.445.36l-32.371 72.8c-.626 1.41.506 2.97 2.037 2.81l79.234-8.37Zm54.226-121.95c.905 1.24.123 3-1.408 3.16l-79.234 8.37c-1.531.16-2.663-1.4-2.037-2.8l32.371-72.8c.626-1.41 2.54-1.61 3.445-.37l46.863 64.44Zm51.41-115.62c1.532-.17 2.313-1.92 1.408-3.17l-46.863-64.43c-.905-1.25-2.819-1.05-3.445.36l-32.371 72.8c-.625 1.41.507 2.96 2.038 2.8l79.233-8.36Zm54.226-121.96c.906 1.25.124 3.01-1.408 3.17l-79.233 8.37c-1.531.16-2.663-1.4-2.038-2.81l32.371-72.8c.626-1.4 2.54-1.61 3.445-.36l46.863 64.43Zm51.411-115.62c1.531-.16 2.313-1.92 1.407-3.16l-46.863-64.44c-.905-1.24-2.819-1.04-3.445.37l-32.371 72.8c-.625 1.4.507 2.96 2.038 2.8l79.234-8.37Zm54.225-121.95c.906 1.25.124 3-1.407 3.17l-79.234 8.36c-1.531.16-2.663-1.39-2.038-2.8l32.372-72.8c.625-1.41 2.539-1.61 3.444-.36l46.863 64.43Zm51.411-115.62c1.531-.16 2.313-1.92 1.407-3.17l-46.862-64.431c-.906-1.245-2.82-1.043-3.445.364l-32.371 72.797c-.626 1.41.506 2.97 2.037 2.81l79.234-8.37Zm54.225-121.952c.906 1.245.124 3.003-1.407 3.165l-79.234 8.367c-1.531.162-2.663-1.395-2.037-2.802l32.371-72.802c.625-1.406 2.539-1.608 3.445-.363l46.862 64.435Zm51.411-115.621c1.531-.162 2.313-1.921 1.407-3.166l-46.862-64.435c-.906-1.245-2.82-1.043-3.445.364l-32.371 72.802c-.626 1.407.506 2.963 2.037 2.801l79.234-8.366Zm54.226-121.952c.905 1.245.123 3.003-1.408 3.165l-79.234 8.367c-1.531.161-2.663-1.395-2.037-2.802l32.371-72.802c.625-1.406 2.539-1.609 3.445-.363l46.863 64.435Zm51.41-115.622c1.531-.161 2.313-1.92 1.408-3.165l-46.863-64.435c-.906-1.245-2.819-1.043-3.445.364l-32.371 72.802c-.626 1.406.506 2.963 2.037 2.801l79.234-8.367Zm54.226-121.951c.905 1.245.123 3.003-1.408 3.165l-79.234 8.367c-1.531.161-2.663-1.395-2.037-2.802l32.371-72.802c.626-1.407 2.54-1.609 3.445-.364l46.863 64.436Zm51.41-115.622c1.532-.161 2.313-1.92 1.408-3.165l-46.863-64.435c-.905-1.245-2.819-1.043-3.445.364l-32.371 72.801c-.625 1.407.507 2.964 2.038 2.802l79.233-8.367ZM265.125 1694.76c1.531-.16 2.313-1.92 1.407-3.17l-46.862-64.43c-.906-1.25-2.82-1.04-3.445.36l-32.371 72.8c-.626 1.41.506 2.97 2.037 2.81l79.234-8.37Zm54.225-121.95c.906 1.24.124 3-1.407 3.16l-79.234 8.37c-1.531.16-2.663-1.39-2.037-2.8l32.371-72.8c.625-1.41 2.539-1.61 3.445-.37l46.862 64.44Zm51.411-115.62c1.531-.17 2.313-1.92 1.408-3.17l-46.863-64.43c-.906-1.25-2.82-1.05-3.445.36l-32.371 72.8c-.626 1.41.506 2.96 2.037 2.8l79.234-8.36Zm54.226-121.96c.905 1.25.123 3.01-1.408 3.17l-79.234 8.37c-1.531.16-2.663-1.4-2.037-2.8l32.371-72.81c.626-1.4 2.539-1.61 3.445-.36l46.863 64.43Zm51.41-115.62c1.531-.16 2.313-1.92 1.408-3.16l-46.863-64.44c-.905-1.24-2.819-1.04-3.445.37l-32.371 72.8c-.626 1.41.506 2.96 2.038 2.8l79.233-8.37Zm54.226-121.95c.905 1.25.124 3.01-1.408 3.17l-79.233 8.36c-1.531.17-2.663-1.39-2.038-2.8l32.371-72.8c.626-1.41 2.54-1.61 3.445-.36l46.863 64.43Zm51.411-115.62c1.531-.161 2.313-1.92 1.407-3.165l-46.863-64.435c-.905-1.245-2.819-1.043-3.445.364l-32.371 72.802c-.625 1.406.507 2.963 2.038 2.801l79.234-8.367Zm54.225-121.951c.906 1.245.124 3.003-1.407 3.165l-79.234 8.367c-1.531.161-2.663-1.395-2.038-2.802l32.371-72.802c.626-1.407 2.54-1.609 3.445-.364l46.863 64.436Zm51.411-115.622c1.531-.161 2.313-1.92 1.407-3.165l-46.863-64.435c-.905-1.245-2.819-1.043-3.444.364l-32.372 72.801c-.625 1.407.507 2.964 2.038 2.802l79.234-8.367Zm54.225-121.952c.906 1.245.124 3.004-1.407 3.166l-79.234 8.366c-1.531.162-2.663-1.394-2.037-2.801l32.371-72.802c.625-1.407 2.539-1.609 3.445-.364l46.862 64.435Zm51.411-115.621c1.531-.162 2.313-1.92 1.407-3.165l-46.862-64.435c-.906-1.245-2.82-1.043-3.445.363l-32.371 72.802c-.626 1.407.506 2.964 2.037 2.802l79.234-8.367Zm54.225-121.952c.906 1.245.124 3.004-1.407 3.166l-79.234 8.366c-1.531.162-2.663-1.394-2.037-2.801l32.371-72.802c.625-1.407 2.539-1.609 3.445-.364l46.862 64.435Zm51.411-115.621c1.531-.162 2.313-1.92 1.408-3.165l-46.863-64.435c-.906-1.246-2.82-1.043-3.445.363l-32.371 72.802c-.626 1.407.506 2.963 2.037 2.802l79.234-8.367ZM173.751 1654.13c1.531-.16 2.313-1.92 1.407-3.16l-46.863-64.44c-.905-1.25-2.819-1.04-3.445.36l-32.37 72.81c-.626 1.4.506 2.96 2.037 2.8l79.234-8.37Zm54.225-121.95c.906 1.24.124 3-1.407 3.16l-79.234 8.37c-1.531.16-2.663-1.39-2.038-2.8l32.372-72.8c.625-1.41 2.539-1.61 3.444-.37l46.863 64.44Zm51.411-115.62c1.531-.16 2.313-1.92 1.407-3.17l-46.862-64.43c-.906-1.25-2.82-1.05-3.445.36l-32.371 72.8c-.626 1.41.506 2.97 2.037 2.8l79.234-8.36Zm54.225-121.95c.906 1.24.124 3-1.407 3.16l-79.234 8.37c-1.531.16-2.663-1.4-2.037-2.8l32.371-72.81c.625-1.4 2.539-1.6 3.445-.36l46.862 64.44Zm51.411-115.63c1.531-.16 2.313-1.92 1.407-3.16l-46.862-64.44c-.906-1.24-2.82-1.04-3.445.37l-32.371 72.8c-.626 1.41.506 2.96 2.037 2.8l79.234-8.37Zm54.226-121.95c.905 1.25.123 3.01-1.408 3.17l-79.234 8.36c-1.531.17-2.663-1.39-2.037-2.8l32.371-72.799c.625-1.407 2.539-1.609 3.445-.364l46.863 64.433Zm51.41-115.619c1.531-.162 2.313-1.92 1.408-3.165l-46.863-64.435c-.906-1.245-2.819-1.043-3.445.363l-32.371 72.802c-.626 1.407.506 2.963 2.037 2.802l79.234-8.367Zm54.226-121.952c.905 1.245.123 3.004-1.408 3.166l-79.233 8.366c-1.532.162-2.664-1.395-2.038-2.801l32.371-72.802c.626-1.407 2.54-1.609 3.445-.364l46.863 64.435Zm51.41-115.621c1.532-.162 2.313-1.92 1.408-3.165l-46.863-64.436c-.905-1.245-2.819-1.043-3.445.364l-32.371 72.802c-.625 1.407.507 2.963 2.038 2.802l79.233-8.367Zm54.226-121.952c.906 1.245.124 3.004-1.407 3.165l-79.234 8.367c-1.531.162-2.663-1.395-2.038-2.801l32.371-72.802c.626-1.407 2.54-1.609 3.445-.364l46.863 64.435Zm51.411-115.621c1.531-.162 2.313-1.92 1.407-3.165l-46.863-64.436c-.905-1.245-2.819-1.043-3.445.364L620.66 471.83c-.625 1.407.507 2.963 2.038 2.802l79.234-8.367Zm54.225-121.952c.906 1.245.124 3.004-1.407 3.165l-79.234 8.367c-1.531.162-2.663-1.395-2.038-2.802l32.372-72.801c.625-1.407 2.539-1.609 3.445-.364l46.862 64.435Zm51.411-115.621c1.531-.162 2.313-1.92 1.407-3.166l-46.862-64.435c-.906-1.245-2.82-1.043-3.445.364l-32.371 72.802c-.626 1.407.506 2.963 2.037 2.801l79.234-8.366ZM82.376 1613.5c1.531-.16 2.313-1.92 1.408-3.16L36.92 1545.9c-.905-1.24-2.82-1.04-3.445.36l-32.371 72.81c-.625 1.4.506 2.96 2.038 2.8l79.233-8.37Zm54.226-121.95c.905 1.24.124 3-1.408 3.16l-79.233 8.37c-1.531.16-2.663-1.39-2.038-2.8l32.371-72.8c.626-1.41 2.54-1.61 3.445-.37l46.863 64.44Zm51.411-115.62c1.531-.16 2.313-1.92 1.407-3.17l-46.863-64.43c-.905-1.25-2.819-1.05-3.445.36l-32.371 72.8c-.625 1.41.507 2.97 2.038 2.8l79.234-8.36Zm54.225-121.95c.906 1.24.124 3-1.407 3.16l-79.234 8.37c-1.531.16-2.663-1.4-2.038-2.8l32.371-72.81c.626-1.4 2.54-1.6 3.445-.36l46.863 64.44Zm51.411-115.63c1.531-.16 2.313-1.92 1.407-3.16l-46.862-64.44c-.906-1.24-2.82-1.04-3.445.37l-32.372 72.8c-.625 1.41.507 2.96 2.038 2.8l79.234-8.37Zm54.225-121.95c.906 1.25.124 3.01-1.407 3.17l-79.234 8.37c-1.531.16-2.663-1.4-2.037-2.81l32.371-72.798c.625-1.407 2.539-1.609 3.445-.364l46.862 64.432Zm51.411-115.618c1.531-.162 2.313-1.92 1.407-3.166l-46.862-64.435c-.906-1.245-2.82-1.043-3.445.364l-32.371 72.802c-.626 1.407.506 2.963 2.037 2.801l79.234-8.366Zm54.226-121.952c.905 1.245.123 3.004-1.408 3.165l-79.234 8.367c-1.531.162-2.663-1.395-2.037-2.802l32.371-72.801c.625-1.407 2.539-1.609 3.445-.364l46.863 64.435Zm51.41-115.621c1.531-.162 2.313-1.921 1.408-3.166l-46.863-64.435c-.906-1.245-2.819-1.043-3.445.364l-32.371 72.802c-.626 1.407.506 2.963 2.037 2.801l79.234-8.366Zm54.226-121.952c.905 1.245.123 3.003-1.408 3.165l-79.234 8.367c-1.531.161-2.663-1.395-2.037-2.802l32.371-72.802c.626-1.406 2.54-1.608 3.445-.363l46.863 64.435Zm51.41-115.621c1.531-.162 2.313-1.921 1.408-3.166l-46.863-64.435c-.905-1.245-2.819-1.043-3.445.364l-32.371 72.802c-.625 1.406.506 2.963 2.038 2.801l79.233-8.366Zm54.226-121.952c.906 1.245.124 3.003-1.408 3.165l-79.233 8.367c-1.531.161-2.663-1.395-2.038-2.802l32.371-72.802c.626-1.407 2.54-1.609 3.445-.364l46.863 64.436Zm51.411-115.622c1.531-.161 2.313-1.92 1.407-3.165l-46.863-64.435c-.905-1.245-2.819-1.043-3.445.364l-32.371 72.802c-.625 1.406.507 2.963 2.038 2.801l79.234-8.367Z" fill="url(#a)"/><defs><linearGradient id="a" x1="83.768" y1="478.909" x2="1118.98" y2="777.853" gradientUnits="userSpaceOnUse"><stop offset=".403" stop-color="#020E0C"/><stop offset=".676" stop-color="#1A6358"/><stop offset="1" stop-color="#99FFF0"/></linearGradient></defs></svg>